<svg width="22" height="22" viewBox="0 0 22 22" fill="none" xmlns="http://www.w3.org/2000/svg">
<path fill-rule="evenodd" clip-rule="evenodd" d="M13.2515 0.0485565C13.152 0.0810891 12.9776 0.176707 12.864 0.261008C12.7504 0.345352 11.1367 1.93553 9.27797 3.7948L5.89845 7.1753H9.69029H13.4822L15.0933 5.46583C15.9795 4.52566 16.8388 3.61436 17.003 3.44072L17.3016 3.12508L15.8621 1.68306C14.822 0.641114 14.363 0.210273 14.2074 0.130103C13.9473 -0.00398618 13.5231 -0.0401765 13.2515 0.0485565ZM17.1135 5.2026C16.5097 5.84362 15.8445 6.54969 15.6352 6.7717L15.2549 7.1753L16.2595 7.17177L17.2642 7.16824L18.2329 6.13551C18.7657 5.56752 19.2065 5.0896 19.2125 5.07346C19.2185 5.05737 18.9957 4.81759 18.7174 4.54063L18.2113 4.03711L17.1135 5.2026ZM19.594 6.56299L19.0393 7.15378L20.0891 7.18219C20.6665 7.19785 21.2055 7.23141 21.2868 7.25676C21.3681 7.28215 21.4401 7.29751 21.4467 7.29084C21.4533 7.28421 21.164 6.98479 20.8037 6.62552L20.1487 5.97224L19.594 6.56299ZM1.01807 8.51228C0.63546 8.58801 0.272309 8.88933 0.0906693 9.2817L0 9.47754V15.2439V21.0103L0.112411 21.2498C0.245358 21.5331 0.472548 21.7663 0.747957 21.9019L0.947162 22H11H21.0528L21.2509 21.9024C21.5205 21.7697 21.7527 21.5306 21.8875 21.2469L22 21.0103V15.2439V9.47754L21.8803 9.23393C21.7425 8.95345 21.4944 8.71177 21.2088 8.57975L21.0098 8.48779L11.1076 8.48147C5.66145 8.47798 1.12114 8.49184 1.01807 8.51228ZM5.95111 11.1141C6.20361 11.2195 6.36489 11.3657 6.5021 11.6132L6.63014 11.8443V13.0492V14.2541L6.5021 14.4852C6.43166 14.6124 6.31434 14.7618 6.24146 14.8174C5.94297 15.045 5.90013 15.0502 4.35742 15.0502H2.92152L2.68805 14.9319C2.42232 14.7972 2.20099 14.5351 2.12974 14.2706C2.09986 14.1596 2.08776 13.6824 2.09629 12.9491C2.10894 11.8569 2.11424 11.7926 2.20581 11.6214C2.31779 11.412 2.57589 11.182 2.78281 11.1071C2.88488 11.0702 3.35041 11.0538 4.36048 11.0515C5.55498 11.0488 5.81962 11.0592 5.95111 11.1141ZM3.37965 13.0492V13.7593H4.36986H5.36008V13.0492V12.3392H4.36986H3.37965V13.0492ZM5.18787 18.5789V19.2244H3.59491H2.00196V18.5789V17.9334H3.59491H5.18787V18.5789ZM10.1389 18.5789V19.2244H8.54599H6.95303V18.5789V17.9334H8.54599H10.1389V18.5789ZM15.047 18.5789V19.2244H13.454H11.8611V18.5789V17.9334H13.454H15.047V18.5789ZM19.998 18.5789V19.2244H18.4051H16.8121V18.5789V17.9334H18.4051H19.998V18.5789Z" fill="#929292"/>
</svg>
