<svg width="9" height="14" viewBox="0 0 9 14" fill="none" xmlns="http://www.w3.org/2000/svg">
<path d="M3.976 13.68V0.519999H4.872V13.68H3.976ZM4.326 12.112C3.57933 12.112 2.86533 12 2.184 11.776C1.50267 11.5427 0.966 11.244 0.574 10.88L1.092 9.788C1.46533 10.1147 1.94133 10.3853 2.52 10.6C3.09867 10.8147 3.70067 10.922 4.326 10.922C4.89533 10.922 5.35733 10.8567 5.712 10.726C6.06667 10.5953 6.328 10.418 6.496 10.194C6.664 9.96067 6.748 9.69933 6.748 9.41C6.748 9.074 6.636 8.80333 6.412 8.598C6.19733 8.39267 5.91267 8.22933 5.558 8.108C5.21267 7.97733 4.83 7.86533 4.41 7.772C3.99 7.67867 3.56533 7.57133 3.136 7.45C2.716 7.31933 2.32867 7.156 1.974 6.96C1.62867 6.764 1.34867 6.50267 1.134 6.176C0.919333 5.84 0.812 5.41067 0.812 4.888C0.812 4.384 0.942667 3.922 1.204 3.502C1.47467 3.07267 1.88533 2.732 2.436 2.48C2.996 2.21867 3.70533 2.088 4.564 2.088C5.13333 2.088 5.698 2.16267 6.258 2.312C6.818 2.46133 7.30333 2.676 7.714 2.956L7.252 4.076C6.832 3.796 6.38867 3.59533 5.922 3.474C5.45533 3.34333 5.00267 3.278 4.564 3.278C4.01333 3.278 3.56067 3.348 3.206 3.488C2.85133 3.628 2.59 3.81467 2.422 4.048C2.26333 4.28133 2.184 4.54267 2.184 4.832C2.184 5.17733 2.29133 5.45267 2.506 5.658C2.73 5.86333 3.01467 6.02667 3.36 6.148C3.71467 6.26933 4.102 6.38133 4.522 6.484C4.942 6.57733 5.362 6.68467 5.782 6.806C6.21133 6.92733 6.59867 7.086 6.944 7.282C7.29867 7.478 7.58333 7.73933 7.798 8.066C8.01267 8.39267 8.12 8.81267 8.12 9.326C8.12 9.82067 7.98467 10.2827 7.714 10.712C7.44333 11.132 7.02333 11.4727 6.454 11.734C5.894 11.986 5.18467 12.112 4.326 12.112Z" fill="#74BA73"/>
</svg>
