<svg width="17" height="21" viewBox="0 0 17 21" fill="none" xmlns="http://www.w3.org/2000/svg">
<path fill-rule="evenodd" clip-rule="evenodd" d="M7.62661 0.0525224C6.539 0.228835 5.56729 0.760197 4.80566 1.59511C3.97016 2.51101 3.53717 3.56864 3.47763 4.83901C3.39447 6.61331 4.23882 8.30945 5.69458 9.29254C6.41061 9.77606 7.10123 10.0216 7.93773 10.0899C9.48819 10.2166 10.8103 9.71404 11.8776 8.5923C12.9201 7.4966 13.3864 6.1447 13.2572 4.59259C13.1465 3.26226 12.5757 2.11427 11.5893 1.23804C10.81 0.545771 10.091 0.203865 9.10017 0.0543705C8.62417 -0.0174607 8.0627 -0.0181589 7.62661 0.0525224ZM9.3249 1.34433C9.94694 1.51005 10.4181 1.7913 10.9452 2.31141C11.6273 2.9845 11.9767 3.7215 12.0667 4.67732C12.1736 5.81163 11.8362 6.84609 11.0915 7.66798C10.631 8.1761 9.95041 8.60758 9.36939 8.75974C8.51648 8.98308 7.49439 8.88653 6.76235 8.51345C5.76188 8.00361 5.02335 7.05366 4.75166 5.92736C4.64791 5.49728 4.6593 4.5208 4.77316 4.07922C5.08006 2.88938 6.08591 1.78411 7.20214 1.41021C7.80547 1.20815 8.70856 1.1801 9.3249 1.34433ZM4.00954 10.1819C3.401 10.2482 2.77096 10.4844 2.27321 10.833C1.03041 11.7033 0.226443 13.6496 0.041412 16.2359C-0.0625335 17.6888 0.0212999 18.4069 0.383038 19.1621C0.582845 19.5792 0.961151 20.0382 1.34794 20.3329C1.63939 20.5549 2.13562 20.7868 2.56872 20.9035L2.92716 21H8.50278H14.0784L14.4368 20.9037C15.6951 20.5659 16.5735 19.6885 16.8898 18.4537C17.0533 17.8154 17.0324 16.2964 16.8435 15.0962C16.4237 12.4282 15.3645 10.8263 13.6891 10.3257C13.306 10.2112 12.6207 10.1241 12.4175 10.1642C12.2232 10.2024 11.9515 10.3521 11.3382 10.7588C10.6776 11.1968 10.5719 11.2539 10.0797 11.4383C9.49647 11.6569 9.06389 11.7414 8.52823 11.7415C7.96732 11.7415 7.53839 11.6623 6.97267 11.4542C6.43844 11.2577 6.41531 11.2451 5.58099 10.6987C5.14104 10.4105 4.81554 10.226 4.68618 10.1914C4.46511 10.1323 4.46515 10.1323 4.00954 10.1819ZM5.04514 11.8057C5.79629 12.3017 6.10996 12.4616 6.76625 12.6831C8.47741 13.2608 10.2261 12.9821 11.8747 11.8688C12.6207 11.365 12.6035 11.3725 12.9213 11.414C14.367 11.6024 15.2678 12.8554 15.6499 15.2091C15.8071 16.1779 15.8554 17.5301 15.7509 18.043C15.5826 18.8696 15.041 19.4513 14.2146 19.6931C13.9729 19.7638 13.6605 19.7679 8.50278 19.7679C3.33167 19.7679 3.03309 19.764 2.78776 19.6926C2.19344 19.5196 1.68005 19.1023 1.44038 18.5974C1.2332 18.1609 1.18386 17.7959 1.21273 16.9135C1.24188 16.0228 1.2841 15.6086 1.4201 14.8806C1.52612 14.3131 1.76874 13.5082 1.93864 13.1605C2.45199 12.1101 3.14883 11.5354 4.05554 11.4148C4.20158 11.3954 4.3352 11.3772 4.35248 11.3743C4.36973 11.3715 4.68145 11.5656 5.04514 11.8057Z" fill="#929292"/>
</svg>
