<svg width="102" height="102" viewBox="0 0 102 102" fill="none" xmlns="http://www.w3.org/2000/svg">
<path d="M102 51C102 79.1665 79.1665 102 51 102C22.8335 102 0 79.1665 0 51C0 22.8335 22.8335 0 51 0C79.1665 0 102 22.8335 102 51ZM16.5848 51C16.5848 70.007 31.993 85.4152 51 85.4152C70.007 85.4152 85.4152 70.007 85.4152 51C85.4152 31.993 70.007 16.5848 51 16.5848C31.993 16.5848 16.5848 31.993 16.5848 51Z" fill="#519EF9"/>
<path d="M102 51C102 64.0221 97.0187 76.5509 88.0774 86.0181C79.136 95.4853 66.912 101.174 53.9111 101.917C40.9102 102.66 28.1175 98.4022 18.1554 90.0158C8.19328 81.6294 1.81652 69.7499 0.332332 56.8127C-1.15185 43.8755 2.36898 30.8605 10.173 20.436C17.9771 10.0114 29.4732 2.96696 42.3047 0.746732C55.1361 -1.4735 68.3308 1.2987 79.1838 8.49501C90.0368 15.6913 97.726 26.7666 100.675 39.4504L84.5211 43.2062C82.5311 34.6471 77.3423 27.1734 70.0186 22.3173C62.6949 17.4612 53.7911 15.5905 45.1323 17.0887C36.4736 18.5869 28.7159 23.3406 23.4497 30.3752C18.1834 37.4097 15.8075 46.1923 16.8091 54.9225C17.8106 63.6526 22.1137 71.669 28.8362 77.3282C35.5587 82.9874 44.1913 85.8607 52.9644 85.3591C61.7375 84.8575 69.9864 81.019 76.0201 74.6305C82.0538 68.242 85.4152 59.7874 85.4152 51H102Z" fill="#E18181"/>
<path d="M102 51C102 61.4894 98.7657 71.7236 92.7378 80.308C86.7099 88.8923 78.1817 95.4093 68.3154 98.9706C58.4491 102.532 47.7247 102.964 37.6036 100.209C27.4826 97.4538 18.4573 91.6448 11.7578 83.5737C5.0582 75.5026 1.01026 65.562 0.165615 55.1067C-0.679034 44.6514 1.72069 34.19 7.03775 25.1481C12.3548 16.1062 20.3306 8.92374 29.878 4.5795C39.4255 0.235267 50.0803 -1.0594 60.3903 0.871947L57.3367 17.1732C50.3794 15.8699 43.1894 16.7436 36.7467 19.6751C30.304 22.6066 24.9219 27.4534 21.3339 33.5549C17.7459 39.6565 16.1266 46.7159 16.6966 53.7713C17.2665 60.8266 19.9981 67.5346 24.519 72.981C29.0399 78.4274 35.1303 82.3474 41.96 84.2067C48.7898 86.066 56.0267 85.7741 62.6846 83.3709C69.3424 80.9677 75.0973 76.57 79.165 70.7773C83.2326 64.9845 85.4152 58.0783 85.4152 51H102Z" fill="#8265F5"/>
<path d="M102 51C102 57.9619 100.575 64.8501 97.8117 71.2403C95.0487 77.6304 91.0067 83.3872 85.9346 88.1561C80.8625 92.9249 74.8677 96.6048 68.3196 98.9691C61.7714 101.333 54.8085 102.332 47.8598 101.903C40.9111 101.475 34.1238 99.6278 27.9159 96.4766C21.7079 93.3254 16.2109 88.9366 11.7634 83.5805C7.31592 78.2244 4.01212 72.0145 2.05553 65.3331C0.0989432 58.6518 -0.468997 51.6407 0.386695 44.7316L16.8457 46.77C16.2683 51.4323 16.6516 56.1635 17.9719 60.6721C19.2922 65.1807 21.5216 69.3713 24.5229 72.9856C27.5241 76.5999 31.2335 79.5615 35.4226 81.688C39.6118 83.8144 44.192 85.0606 48.881 85.3499C53.57 85.6392 58.2686 84.9653 62.6874 83.3699C67.1061 81.7745 71.1514 79.2913 74.5741 76.0732C77.9968 72.8552 80.7244 68.9704 82.5889 64.6583C84.4533 60.3461 85.4152 55.6979 85.4152 51H102Z" fill="#7EDD88"/>
<path d="M66.1386 57.44C66.1386 60.128 65.1626 62.48 63.2106 64.496C61.2906 66.48 58.5386 67.792 54.9546 68.432V73.76H48.1866V68.672C45.7866 68.544 43.4826 68.176 41.2746 67.568C39.0986 66.96 37.2906 66.208 35.8506 65.312L39.4986 57.056C41.0986 57.984 42.8906 58.736 44.8746 59.312C46.8586 59.856 48.7626 60.128 50.5866 60.128C52.1546 60.128 53.2746 59.984 53.9466 59.696C54.6186 59.376 54.9546 58.912 54.9546 58.304C54.9546 57.6 54.5066 57.072 53.6106 56.72C52.7466 56.368 51.3066 55.984 49.2906 55.568C46.6986 55.024 44.5386 54.448 42.8106 53.84C41.0826 53.2 39.5786 52.176 38.2986 50.768C37.0186 49.328 36.3786 47.392 36.3786 44.96C36.3786 42.144 37.3866 39.728 39.4026 37.712C41.4506 35.696 44.3786 34.416 48.1866 33.872V28.64H54.9546V33.776C58.7946 34.128 62.0426 35.056 64.6986 36.56L61.2906 44.768C57.9946 43.104 54.8746 42.272 51.9306 42.272C49.0186 42.272 47.5626 42.976 47.5626 44.384C47.5626 45.056 47.9946 45.568 48.8586 45.92C49.7226 46.24 51.1466 46.592 53.1306 46.976C55.6906 47.456 57.8506 48.016 59.6106 48.656C61.3706 49.264 62.8906 50.272 64.1706 51.68C65.4826 53.088 66.1386 55.008 66.1386 57.44Z" fill="#D5D5D5"/>
</svg>
