<svg width="725" height="398" viewBox="0 0 725 398" fill="none" xmlns="http://www.w3.org/2000/svg">
<path d="M664.9 321.6C662.8 304.5 732.3 207.2 701.7 164.8C671.1 122.4 596.1 160.3 588.8 152C581.5 143.6 631.5 48.9 581.5 12.5C531.5 -23.9 424.5 31.1 424.5 31.1C419.5 32.7 391.9 47.4 368.2 60.2C344.6 47.5 317 32.8 311.9 31.1C311.9 31.1 204.9 -23.9 154.9 12.5C104.9 48.9 155 143.7 147.6 152C140.3 160.4 65.3 122.5 34.7 164.8C4.49998 207.2 73.9 304.5 71.9 321.6C69.8 338.7 33 342.4 32.3 357.3C47.5 364.5 88.7 362 132.5 362C176.3 362 209.5 362 209.5 362H395.5H572C572 362 590.7 362 634.5 362C678.3 362 684.5 363.5 704.7 357.3C703.8 342.4 667 338.7 664.9 321.6Z" fill="#E8505B"/>
<path opacity="0.7" d="M664.9 321.6C662.8 304.5 732.3 207.2 701.7 164.8C671.1 122.4 596.1 160.3 588.8 152C581.5 143.6 631.5 48.9 581.5 12.5C531.5 -23.9 424.5 31.1 424.5 31.1C419.5 32.7 391.9 47.4 368.2 60.2C344.6 47.5 317 32.8 311.9 31.1C311.9 31.1 204.9 -23.9 154.9 12.5C104.9 48.9 155 143.7 147.6 152C140.3 160.4 65.3 122.5 34.7 164.8C4.49998 207.2 73.9 304.5 71.9 321.6C69.8 338.7 33 342.4 32.3 357.3C55.5 366.5 90.2 361.5 134 361.5C177.8 361.5 234.5 361.5 234.5 361.5H419H573.5C573.5 361.5 579.7 361.5 623.5 361.5C667.3 361.5 690.5 361.5 704.7 357.3C703.8 342.4 667 338.7 664.9 321.6Z" fill="white"/>
<path d="M0.5 362.4H724.5" stroke="#263238" stroke-miterlimit="10" stroke-linecap="round" stroke-linejoin="round"/>
<path d="M688.001 89.2001H683.301V362.3H688.001V89.2001Z" fill="#263238" stroke="#263238" stroke-miterlimit="10" stroke-linecap="round" stroke-linejoin="round"/>
<path d="M711.4 79.9H661.4V135.8H711.4V79.9Z" fill="#E8505B" stroke="#263238" stroke-miterlimit="10" stroke-linecap="round" stroke-linejoin="round"/>
<path d="M711.4 355.8H661.4V362.4H711.4V355.8Z" fill="#263238" stroke="#263238" stroke-miterlimit="10" stroke-linecap="round" stroke-linejoin="round"/>
<path d="M20.8003 215.7C20.8003 215.7 18.4003 222.4 13.2003 223.3C8.00034 224.2 -1.09966 214.2 4.70034 209C10.5003 203.8 18.4003 212 20.8003 215.7Z" fill="#E8505B" stroke="#263238" stroke-miterlimit="10" stroke-linecap="round" stroke-linejoin="round"/>
<path d="M28.8 182.7C28.8 182.7 21.2 201.3 24.2 210.4C27.2 219.5 46.2 226.3 51.6 214.4C57.1 202.5 44.9 185.7 40.3 182.1C35.8 178.5 30.3 179.7 28.8 182.7Z" fill="#E8505B" stroke="#263238" stroke-miterlimit="10" stroke-linecap="round" stroke-linejoin="round"/>
<path d="M73.3001 190.7C73.3001 190.7 60.2001 202.6 58.7001 214.5C57.2001 226.4 66.0001 230.7 75.2001 229.1C84.3001 227.6 88.9001 204.4 86.2001 193.7C83.3001 183 73.3001 190.7 73.3001 190.7Z" fill="#E8505B" stroke="#263238" stroke-miterlimit="10" stroke-linecap="round" stroke-linejoin="round"/>
<path d="M75.7004 256.5C75.7004 256.5 61.1004 257.1 60.5004 264.1C59.9004 271.1 66.9004 272.6 73.9004 266.5C80.9004 260.5 81.8004 256.8 75.7004 256.5Z" fill="#E8505B" stroke="#263238" stroke-miterlimit="10" stroke-linecap="round" stroke-linejoin="round"/>
<path d="M60.7002 265.8C60.7002 265.8 72.2002 260.5 77.4002 259.6" stroke="#263238" stroke-miterlimit="10"/>
<path d="M79.0003 302.4C79.0003 302.4 68.2003 292.4 62.8003 297C57.4003 301.5 61.3003 307.6 70.5003 308.2C79.8003 308.9 83.1003 306.9 79.0003 302.4Z" fill="#E8505B" stroke="#263238" stroke-miterlimit="10" stroke-linecap="round" stroke-linejoin="round"/>
<path d="M61.8003 298.3C61.8003 298.3 73.7003 302.8 78.0003 305.8" stroke="#263238" stroke-miterlimit="10"/>
<path d="M22.3003 299.5C22.3003 299.5 37.1003 285.8 44.6003 292C52.0003 298.2 46.7003 306.6 33.9003 307.5C21.1003 308.4 16.6003 305.7 22.3003 299.5Z" fill="#E8505B" stroke="#263238" stroke-miterlimit="10" stroke-linecap="round" stroke-linejoin="round"/>
<path d="M45.9001 293.8C45.9001 293.8 29.5001 299.9 23.6001 304.1" stroke="#263238" stroke-miterlimit="10"/>
<path d="M39.4 271.2C39.4 271.2 37.9 278.5 32.4 281.3C26.9 284 17.2 278.3 22.3 269.4C27.5 260.5 36.7 267.5 39.4 271.2Z" fill="#E8505B" stroke="#263238" stroke-miterlimit="10" stroke-linecap="round" stroke-linejoin="round"/>
<path d="M26.6001 248.3C26.6001 248.3 23.9001 242.2 13.2001 246.2C2.50013 250.2 -1.69987 256.3 5.00013 258.4C11.7001 260.5 26.6001 248.3 26.6001 248.3Z" fill="#E8505B" stroke="#263238" stroke-miterlimit="10" stroke-linecap="round" stroke-linejoin="round"/>
<path d="M24.6002 248C24.6002 248 13.3002 249.2 7.2002 254.4" stroke="#263238" stroke-miterlimit="10"/>
<path d="M57.1001 175.1C57.1001 175.1 58.9001 179.4 62.6001 178.5C66.3001 177.6 67.2001 172.1 73.0001 173.6C78.8001 175.1 83.7001 181.8 83.7001 178.8C83.7001 175.8 76.4001 167.8 68.1001 167.8C59.9001 167.8 57.4001 171.1 57.1001 175.1Z" fill="#E8505B" stroke="#263238" stroke-miterlimit="10" stroke-linecap="round" stroke-linejoin="round"/>
<path d="M26.6001 248.3C26.6001 248.3 39.7001 245.8 45.2001 260.4C45.7001 261.8 46.2001 263.3 46.6001 264.9" stroke="#263238" stroke-miterlimit="10"/>
<path d="M81.3999 234.2C81.3999 234.2 84.0999 228.1 94.7999 232.1C105.5 236.1 109.7 242.2 103 244.3C96.3999 246.4 81.3999 234.2 81.3999 234.2Z" fill="#E8505B" stroke="#263238" stroke-miterlimit="10" stroke-linecap="round" stroke-linejoin="round"/>
<path d="M83.8999 234.6C83.8999 234.6 94.8999 234 100.1 240.4" stroke="#263238" stroke-miterlimit="10"/>
<path d="M81.4003 234.2C81.4003 234.2 77.0003 233.4 72.3003 235.4" stroke="#263238" stroke-miterlimit="10"/>
<path d="M33.6002 223.2C27.2002 216.6 20.8002 215.6 20.8002 215.6C20.8002 215.6 11.4002 213.1 7.7002 216.5" stroke="#263238" stroke-miterlimit="10"/>
<path d="M34.8999 189.4L34.3999 186.9" stroke="#263238" stroke-miterlimit="10"/>
<path d="M49.8001 324.2C49.8001 324.2 51.2001 271.7 49.8001 255.7C48.4001 239.8 42.1001 221.1 42.1001 221.1L35.6001 192.1" stroke="#263238" stroke-miterlimit="10"/>
<path d="M76.8999 200.7L77.9999 198.2" stroke="#263238" stroke-miterlimit="10"/>
<path d="M53 324.2C53 324.2 53.5 276.3 55.3 262.6C57.1 248.9 64.4 227.5 64.4 227.5L75.6 203.5" stroke="#263238" stroke-miterlimit="10"/>
<path d="M60.6997 265.8C60.6997 265.8 57.4997 293.3 55.6997 324.2" stroke="#263238" stroke-miterlimit="10"/>
<path d="M45.1999 324.2C45.1999 324.2 46.0999 280.4 44.2999 274.5C42.4999 268.6 39.3999 271.2 39.3999 271.2C39.3999 271.2 30.9999 272.2 27.8999 277.1" stroke="#263238" stroke-miterlimit="10"/>
<path d="M47.2998 268.2C49.6998 281.6 47.4998 324.2 47.4998 324.2" stroke="#263238" stroke-miterlimit="10"/>
<path d="M69.7 236.8C67.1 238.6 64.5 241.5 62.8 246.2C57.3 260.8 58 324.2 58 324.2" stroke="#263238" stroke-miterlimit="10"/>
<path d="M35.1997 225C37.9997 228.3 40.7997 232.9 42.8997 239C50.1997 260 52.8997 314.2 51.5997 324.3" stroke="#263238" stroke-miterlimit="10"/>
<path d="M53.7 244.6C53.3 271 53 324.2 53 324.2" stroke="#263238" stroke-miterlimit="10"/>
<path d="M53.8003 241.3C54.1003 223.8 54.5003 206.7 54.8003 197.5C55.7003 173.8 57.1003 175.1 57.1003 175.1C57.1003 175.1 58.8003 169.8 68.3003 170.4" stroke="#263238" stroke-miterlimit="10"/>
<path d="M42.1003 261.3C42.1003 261.3 34.5003 254.5 37.5003 251.2C40.5003 247.9 59.5003 245.4 64.9003 249.8C70.4003 254.1 58.2003 260.3 53.6003 261.6C49.1003 262.8 43.6003 262.4 42.1003 261.3Z" fill="#E8505B" stroke="#263238" stroke-miterlimit="10" stroke-linecap="round" stroke-linejoin="round"/>
<path d="M49.1004 255.7C49.0004 256.4 48.9004 257.1 48.9004 257.7" stroke="#263238" stroke-miterlimit="10"/>
<path d="M51.8003 247.8C51.8003 247.8 50.7003 250.1 49.8003 252.8" stroke="#263238" stroke-miterlimit="10"/>
<path d="M42.1003 305.7C42.1003 305.7 34.5003 298.9 37.5003 295.6C40.5003 292.3 59.5003 289.8 64.9003 294.2C70.4003 298.5 58.2003 304.7 53.6003 306C49.0003 307.3 43.6003 306.8 42.1003 305.7Z" fill="#E8505B" stroke="#263238" stroke-miterlimit="10" stroke-linecap="round" stroke-linejoin="round"/>
<path d="M51.8005 292.2C51.8005 292.2 49.0005 297.8 49.0005 302.2" stroke="#263238" stroke-miterlimit="10"/>
<path d="M47.8002 286.9C47.8002 286.9 42.6002 282.3 44.7002 280C46.8002 277.7 59.6002 276.1 63.3002 279C67.0002 282 58.7002 286.1 55.6002 287C52.5002 288 48.8002 287.7 47.8002 286.9Z" fill="#E8505B" stroke="#263238" stroke-miterlimit="10" stroke-linecap="round" stroke-linejoin="round"/>
<path d="M54.3004 277.7C54.3004 277.7 52.4004 281.5 52.4004 284.5" stroke="#263238" stroke-miterlimit="10"/>
<path d="M61.2001 316.6H40.6001V362.4H61.2001V316.6Z" fill="white" stroke="#263238" stroke-miterlimit="10" stroke-linecap="round" stroke-linejoin="round"/>
<path d="M651.3 306.5H648.5V361.8H651.3V306.5Z" fill="white" stroke="#263238" stroke-miterlimit="10" stroke-linecap="round" stroke-linejoin="round"/>
<path d="M513.8 306.5H511V361.8H513.8V306.5Z" fill="white" stroke="#263238" stroke-miterlimit="10" stroke-linecap="round" stroke-linejoin="round"/>
<path d="M640.7 212H518.1V293.8H640.7V212Z" fill="white" stroke="#263238" stroke-miterlimit="10" stroke-linecap="round" stroke-linejoin="round"/>
<path d="M633 284.9H528.6V309.3H633V284.9Z" fill="white" stroke="#263238" stroke-miterlimit="10" stroke-linecap="round" stroke-linejoin="round"/>
<path d="M528.7 247.1H507.3V309.3H528.7V247.1Z" fill="white" stroke="#263238" stroke-miterlimit="10" stroke-linecap="round" stroke-linejoin="round"/>
<path d="M654.4 247.1H633V309.3H654.4V247.1Z" fill="white" stroke="#263238" stroke-miterlimit="10" stroke-linecap="round" stroke-linejoin="round"/>
<path d="M526 327.4L526.5 341.1C526.5 341.1 521.5 349.8 520.1 351.4C518.7 353 510.3 359.1 508.9 360.5C507.5 361.9 508.4 363.2 509.6 363.9C510.7 364.6 541.7 363.9 541.7 363.9C541.7 363.9 543.8 362.8 543.5 359.3C543.3 355.9 541 331.5 541 331.5L526 327.4Z" fill="white" stroke="#263238" stroke-miterlimit="10" stroke-linecap="round" stroke-linejoin="round"/>
<path d="M532.4 341.3C529.2 339.9 526.5 341.1 526.5 341.1C526.5 341.1 521.5 349.8 520.1 351.4C518.7 353 510.3 359.1 508.9 360.5C507.5 361.9 508.4 363.2 509.6 363.9C510.7 364.6 541.7 363.9 541.7 363.9C541.7 363.9 543.7 362.8 543.5 359.3C543.4 357.8 542.9 352.2 542.4 346.4L536.7 345.4C536.7 345.4 535.6 342.7 532.4 341.3Z" fill="white" stroke="#263238" stroke-miterlimit="10" stroke-linecap="round" stroke-linejoin="round"/>
<path d="M628.1 327.4L627.6 341.1C627.6 341.1 632.6 349.8 634 351.4C635.4 353 643.8 359.1 645.2 360.5C646.6 361.9 645.7 363.2 644.5 363.9C643.4 364.6 612.4 363.9 612.4 363.9C612.4 363.9 610.3 362.8 610.6 359.3C610.8 355.9 613.1 331.5 613.1 331.5L628.1 327.4Z" fill="white" stroke="#263238" stroke-miterlimit="10" stroke-linecap="round" stroke-linejoin="round"/>
<path d="M621.7 341.3C624.9 339.9 627.6 341.1 627.6 341.1C627.6 341.1 632.6 349.8 634 351.4C635.4 353 643.8 359.1 645.2 360.5C646.6 361.9 645.7 363.2 644.5 363.9C643.4 364.6 612.4 363.9 612.4 363.9C612.4 363.9 610.3 362.8 610.6 359.3C610.7 357.8 611.2 352.2 611.7 346.4L617.4 345.4C617.4 345.4 618.5 342.7 621.7 341.3Z" fill="white" stroke="#263238" stroke-miterlimit="10" stroke-linecap="round" stroke-linejoin="round"/>
<path d="M529 243.8C529 243.8 518.5 245.4 516.2 256.8C513.9 268.2 520.8 330.4 520.8 330.4L543.6 334.3L545.2 285.2H606.9L610.5 334.7C610.5 334.7 632.8 328.3 632.6 329C632.4 329.7 631.9 292.3 631.9 292.3C631.9 292.3 634.6 259.5 633.3 255.9C631.9 252.3 630.3 248.6 628.5 247.5C626.7 246.4 611.1 246.8 609.1 247.3C607.2 247.7 586.5 252.8 579.3 251.9C572 251 555.7 252.7 552.3 251.4C548.9 250.1 534.5 239.7 529 243.8Z" fill="#999999" stroke="#263238" stroke-miterlimit="10" stroke-linecap="round" stroke-linejoin="round"/>
<path d="M545.2 285.2V273.2C545.2 273.2 541.6 260.4 537.2 256.6" stroke="#263238" stroke-miterlimit="10" stroke-linecap="round" stroke-linejoin="round"/>
<path d="M540.6 256.4C540.6 256.4 543.3 259.8 544.2 263.7" stroke="#263238" stroke-miterlimit="10" stroke-linecap="round" stroke-linejoin="round"/>
<path d="M606.9 285.2V273.2L606.2 259.8" stroke="#263238" stroke-miterlimit="10" stroke-linecap="round" stroke-linejoin="round"/>
<path d="M602.8 259.3L604.4 266.2" stroke="#263238" stroke-miterlimit="10" stroke-linecap="round" stroke-linejoin="round"/>
<path d="M570.7 261.6C570.7 261.6 576.2 268.2 577.1 270.9" stroke="#263238" stroke-miterlimit="10" stroke-linecap="round" stroke-linejoin="round"/>
<path d="M583.7 265.1L579.3 268.1" stroke="#263238" stroke-miterlimit="10" stroke-linecap="round" stroke-linejoin="round"/>
<path d="M629.5 266.8L631 289.8" stroke="#263238" stroke-miterlimit="10" stroke-linecap="round" stroke-linejoin="round"/>
<path d="M520.3 275.3L519.2 306.5" stroke="#263238" stroke-miterlimit="10" stroke-linecap="round" stroke-linejoin="round"/>
<path d="M570.2 172.8C570.2 172.8 552.6 176.9 549.1 178.7C545.6 180.6 543.7 185.2 542.6 187.3C541.5 189.5 529.1 234 529.4 235.9C529.7 237.8 541.8 241 541.8 241L551.3 217.8L552.4 241L552.3 251.1C552.3 251.1 570.4 261.1 577.4 262.2C584.4 263.3 587.9 260.5 592.8 258.3C597.7 256.1 607.3 247.5 607.3 247.5L630.8 241.8C630.8 241.8 626.2 197.8 624.9 193.2C623.5 188.6 618.4 178.3 613.6 177.3C608.3 176.1 597.4 172.7 597.4 172.7H570.2V172.8Z" fill="#E8505B" stroke="#263238" stroke-miterlimit="10" stroke-linecap="round" stroke-linejoin="round"/>
<path d="M534.799 214.4C531.899 225.1 529.299 235.2 529.399 236.1C529.699 238 541.799 241.2 541.799 241.2L549.999 221.1L534.799 214.4Z" fill="#D1D1D1" stroke="#263238" stroke-miterlimit="10" stroke-linecap="round" stroke-linejoin="round"/>
<path d="M628.1 217.7L613 221.3L613.2 246.3L630.8 242C630.8 242 629.5 229.9 628.1 217.7Z" fill="#D1D1D1" stroke="#263238" stroke-miterlimit="10" stroke-linecap="round" stroke-linejoin="round"/>
<path d="M573.199 168.5L566.699 173.1L570.499 200.1L587.299 188.5L603.799 199.8C603.799 199.8 601.899 178.5 600.799 174.7C599.699 170.9 595.899 169.8 595.899 169.8L573.199 168.5Z" fill="#E8505B" stroke="#263238" stroke-miterlimit="10" stroke-linecap="round" stroke-linejoin="round"/>
<path d="M575.3 179.2C575.3 179.2 578.9 187.2 580.5 189.9C582.1 192.6 587.5 201.2 587.5 201.2L593.2 183.4L595.4 179.3L575.3 179.2Z" fill="#D1D1D1" stroke="#263238" stroke-miterlimit="10" stroke-linecap="round" stroke-linejoin="round"/>
<path d="M578.999 134.4C578.999 134.4 573.399 136.3 571.199 142.7C568.999 149 570.499 158.3 570.499 158.3C570.499 158.3 566.399 156.6 565.899 160C565.399 163.4 567.099 166.3 568.299 167.3C569.499 168.3 571.499 168.3 571.499 168.3C571.499 168.3 574.699 177.8 575.399 179.3C576.099 180.8 581.699 185.6 583.699 186.1C585.599 186.6 591.499 184.9 591.499 184.9C591.499 184.9 596.399 178.3 596.599 176.9C596.799 175.4 600.299 167.2 600.699 163.8C601.199 160.4 602.899 147.2 601.199 143.8C599.499 140.4 596.299 135.3 589.999 133.8C583.599 132.2 578.999 134.4 578.999 134.4Z" fill="#D1D1D1" stroke="#263238" stroke-miterlimit="10" stroke-linecap="round" stroke-linejoin="round"/>
<path d="M589.9 133.6C583.6 132.1 578.9 134.3 578.9 134.3C578.9 134.3 573.3 136.2 571.1 142.6C568.9 148.9 570.4 158.2 570.4 158.2C570.4 158.2 572.6 159.4 573.3 159.4C574 159.4 577.4 158.4 577.7 156.2C577.9 154 578.7 147.4 578.7 147.4C578.7 147.4 584.3 149.1 588.2 149.6C592.1 150.1 598.7 147.7 598.7 147.7L600.9 154.5L601.4 156.9C601.9 151.9 602.2 145.7 601.1 143.6C599.4 140.2 596.3 135.1 589.9 133.6Z" fill="#263238" stroke="#263238" stroke-miterlimit="10" stroke-linecap="round" stroke-linejoin="round"/>
<path d="M601.399 156.9C601.399 156.9 604.299 156.7 603.799 159.9C603.299 163.1 600.399 165.7 600.399 165.7L601.399 156.9Z" stroke="#263238" stroke-miterlimit="10" stroke-linecap="round" stroke-linejoin="round"/>
<path d="M590.899 165.8L590.399 175L586.299 174.8" stroke="#263238" stroke-miterlimit="10" stroke-linecap="round" stroke-linejoin="round"/>
<path d="M583.799 177.2C583.799 177.2 586.499 178.7 588.899 177.9" stroke="#263238" stroke-miterlimit="10" stroke-linecap="round" stroke-linejoin="round"/>
<path d="M579.199 166.3C579.199 166.3 581.599 168.7 584.999 167.3" stroke="#263238" stroke-miterlimit="10" stroke-linecap="round" stroke-linejoin="round"/>
<path d="M593.1 166.7C593.1 166.7 595.5 168.6 597.5 166" stroke="#263238" stroke-miterlimit="10" stroke-linecap="round" stroke-linejoin="round"/>
<path d="M579.499 162.8C579.499 162.8 583.299 164.1 585.899 163.5" stroke="#263238" stroke-miterlimit="10" stroke-linecap="round" stroke-linejoin="round"/>
<path d="M592.799 163.4C592.799 163.4 596.599 163.4 598.699 162.4" stroke="#263238" stroke-miterlimit="10" stroke-linecap="round" stroke-linejoin="round"/>
<path d="M561.999 212.3L558.199 243.3L589.199 250.8L593.199 221.4L561.999 212.3Z" fill="#263238" stroke="#263238" stroke-miterlimit="10" stroke-linecap="round" stroke-linejoin="round"/>
<path d="M593.199 221.4L621.899 211L615.999 242L589.199 250.8L593.199 221.4Z" fill="#263238" stroke="#263238" stroke-miterlimit="10" stroke-linecap="round" stroke-linejoin="round"/>
<path d="M593.199 221.4C593.199 221.4 593.899 218.3 597.399 217.2C600.999 216.1 619.599 209.9 619.599 209.9L620.599 211.2L593.199 221.4Z" fill="white" stroke="#263238" stroke-miterlimit="10" stroke-linecap="round" stroke-linejoin="round"/>
<path d="M593.199 221.4C593.199 221.4 591.099 217.8 590.099 217.2C589.099 216.5 564.599 210.7 564.599 210.7L562.899 212.5L593.199 221.4Z" fill="white" stroke="#263238" stroke-miterlimit="10" stroke-linecap="round" stroke-linejoin="round"/>
<path d="M630.199 236.6C630.199 236.6 631.699 241.8 631.499 244.1C631.299 246.3 628.099 247.5 625.299 249C622.599 250.4 616.899 252.4 613.599 252.5C610.299 252.6 602.499 251.8 601.299 251.8C600.099 251.8 589.799 249.4 587.699 248.7C585.599 248 583.099 247 581.999 246.2C580.899 245.4 579.299 245 579.299 245C579.299 245 578.399 244.2 578.099 243.5C577.899 242.8 582.099 243.6 582.099 243.6C582.099 243.6 577.699 240.4 576.899 239.9C576.099 239.4 575.999 238.4 576.099 237.9C576.199 237.4 581.299 240.3 581.699 240.3C582.099 240.3 585.399 240.5 585.399 240.5C585.399 240.5 582.699 237.7 580.799 236.6C578.899 235.5 579.699 234.2 580.799 234.2C581.899 234.2 588.599 238.3 588.599 238.3L597.799 239.4L597.499 235.9C597.499 235.9 596.099 234.5 595.599 232.9C595.099 231.3 596.999 229.9 598.599 231.5C600.199 233.1 602.899 235.6 603.699 236.1C604.499 236.6 605.299 242.9 605.299 242.9C605.299 242.9 613.499 241.5 614.299 240.3C615.099 239.1 622.799 234.9 624.599 234.5C626.399 234.1 627.799 234.4 627.799 234.4" fill="#D1D1D1"/>
<path d="M630.199 236.6C630.199 236.6 631.699 241.8 631.499 244.1C631.299 246.3 628.099 247.5 625.299 249C622.599 250.4 616.899 252.4 613.599 252.5C610.299 252.6 602.499 251.8 601.299 251.8C600.099 251.8 589.799 249.4 587.699 248.7C585.599 248 583.099 247 581.999 246.2C580.899 245.4 579.299 245 579.299 245C579.299 245 578.399 244.2 578.099 243.5C577.899 242.8 582.099 243.6 582.099 243.6C582.099 243.6 577.699 240.4 576.899 239.9C576.099 239.4 575.999 238.4 576.099 237.9C576.199 237.4 581.299 240.3 581.699 240.3C582.099 240.3 585.399 240.5 585.399 240.5C585.399 240.5 582.699 237.7 580.799 236.6C578.899 235.5 579.699 234.2 580.799 234.2C581.899 234.2 588.599 238.3 588.599 238.3L597.799 239.4L597.499 235.9C597.499 235.9 596.099 234.5 595.599 232.9C595.099 231.3 596.999 229.9 598.599 231.5C600.199 233.1 602.899 235.6 603.699 236.1C604.499 236.6 605.299 242.9 605.299 242.9C605.299 242.9 613.499 241.5 614.299 240.3C615.099 239.1 622.799 234.9 624.599 234.5C626.399 234.1 627.799 234.4 627.799 234.4" stroke="#263238" stroke-miterlimit="10" stroke-linecap="round" stroke-linejoin="round"/>
<path d="M585.399 240.5L589.399 242.1" stroke="#263238" stroke-miterlimit="10" stroke-linecap="round" stroke-linejoin="round"/>
<path d="M582.199 243.5C582.199 243.5 586.599 245 588.399 245.2" stroke="#263238" stroke-miterlimit="10" stroke-linecap="round" stroke-linejoin="round"/>
<path d="M529.9 232.1C528.4 233.4 527 237.5 527 239.8C527 242.1 529.1 244.2 531.4 245.4C533.7 246.5 538.6 247.4 543.8 246.9C549 246.4 551.8 244.8 551.8 244.8C551.8 244.8 558.2 243.4 560.1 243.3C562 243.3 568.4 240.9 569.2 240.2C570 239.5 569.5 237.9 569.5 237.9C569.5 237.9 571.3 236.8 571.8 235.9C572.3 235.1 570.2 233.8 570.2 233.8C570.2 233.8 571.7 232.8 572 232.3C572.3 231.8 570.5 231 569.7 231.3C568.9 231.6 563 232.6 563 232.6C563 232.6 567.2 230.2 568.1 229.7C568.9 229.2 568.4 228.7 567.8 228.1C567.1 227.4 562.2 230.1 561.6 230.2C560.9 230.4 555.6 231.5 555.6 231.5C555.6 231.5 556.4 229.2 556.9 228.9C557.4 228.6 559.7 227.3 559.7 227.3C559.7 227.3 560.4 224 560.4 222.9C560.4 221.8 557.1 225.3 557.1 225.3C557.1 225.3 552.2 228.7 551.7 229.1C551.2 229.4 548.4 236 548.4 236C548.4 236 547.1 236.5 544.6 234.7C542.2 232.9 538.4 231.6 536.3 231.6" fill="#D1D1D1"/>
<path d="M529.9 232.1C528.4 233.4 527 237.5 527 239.8C527 242.1 529.1 244.2 531.4 245.4C533.7 246.5 538.6 247.4 543.8 246.9C549 246.4 551.8 244.8 551.8 244.8C551.8 244.8 558.2 243.4 560.1 243.3C562 243.3 568.4 240.9 569.2 240.2C570 239.5 569.5 237.9 569.5 237.9C569.5 237.9 571.3 236.8 571.8 235.9C572.3 235.1 570.2 233.8 570.2 233.8C570.2 233.8 571.7 232.8 572 232.3C572.3 231.8 570.5 231 569.7 231.3C568.9 231.6 563 232.6 563 232.6C563 232.6 567.2 230.2 568.1 229.7C568.9 229.2 568.4 228.7 567.8 228.1C567.1 227.4 562.2 230.1 561.6 230.2C560.9 230.4 555.6 231.5 555.6 231.5C555.6 231.5 556.4 229.2 556.9 228.9C557.4 228.6 559.7 227.3 559.7 227.3C559.7 227.3 560.4 224 560.4 222.9C560.4 221.8 557.1 225.3 557.1 225.3C557.1 225.3 552.2 228.7 551.7 229.1C551.2 229.4 548.4 236 548.4 236C548.4 236 547.1 236.5 544.6 234.7C542.2 232.9 538.4 231.6 536.3 231.6" stroke="#263238" stroke-miterlimit="10" stroke-linecap="round" stroke-linejoin="round"/>
<path d="M570.3 233.8L564.9 235.2L561 235.7" stroke="#263238" stroke-miterlimit="10" stroke-linecap="round" stroke-linejoin="round"/>
<path d="M569.6 237.8L563.7 239L561 239.2" stroke="#263238" stroke-miterlimit="10" stroke-linecap="round" stroke-linejoin="round"/>
<path d="M563.1 232.6L560 233.1" stroke="#263238" stroke-miterlimit="10" stroke-linecap="round" stroke-linejoin="round"/>
<path d="M428 200C428 200 429.6 224.4 432.6 247.1C435.6 269.8 438.4 291.1 440.9 297.4C443.4 303.7 445.8 327.3 445.8 329.8C445.8 332.3 445.6 340.5 445.6 340.5L444.2 342.8L444.7 347C444.7 347 447.5 349.3 451.2 350C454.9 350.7 459.5 350.9 459.5 350.9C459.5 350.9 469.7 355.1 471.1 356C472.5 356.9 476.7 356.7 476.7 356.7C476.7 356.7 478.1 353.9 477.9 351.4C477.7 348.9 476 345.8 476 344C476 342.1 483.4 306.5 482.5 299.5C481.6 292.6 476.5 274.7 476.2 272.4C476 270.1 485.5 221.9 485.5 221.9L480.9 194.8L430.4 196.4L428 200Z" fill="#999999" stroke="#263238" stroke-miterlimit="10" stroke-linecap="round" stroke-linejoin="round"/>
<path d="M433.201 111L421.401 160.9L406.501 157.6L404.801 174.2L426.201 181.6L433.401 127.6L433.201 111Z" fill="#E8505B" stroke="#263238" stroke-miterlimit="10" stroke-linecap="round" stroke-linejoin="round"/>
<path d="M406.5 157.6L399.9 160.5L404.8 174.2L406.5 157.6Z" fill="white" stroke="#263238" stroke-miterlimit="10" stroke-linecap="round" stroke-linejoin="round"/>
<path d="M385 125L384.9 120.5L378.5 113.5L377.7 115.5L385 125Z" fill="white" stroke="#263238" stroke-miterlimit="10" stroke-linecap="round" stroke-linejoin="round"/>
<path d="M384.9 120.5L401.1 111.6L399.1 116L385 125L384.9 120.5Z" fill="white" stroke="#263238" stroke-miterlimit="10" stroke-linecap="round" stroke-linejoin="round"/>
<path d="M385 125L403.3 111.1L415.4 139.2L400.4 148.9L385 125Z" fill="#263238" stroke="#263238" stroke-miterlimit="10" stroke-linecap="round" stroke-linejoin="round"/>
<path d="M385 125L375.9 113.4L387.3 133.8L400.4 148.9L385 125Z" fill="#263238" stroke="#263238" stroke-miterlimit="10" stroke-linecap="round" stroke-linejoin="round"/>
<path d="M405.2 166.3C405.2 166.3 392 154.7 391.7 154.1C391.4 153.5 389.8 145.8 389.8 145.8L385.9 133.2C385.9 133.2 387.5 134.1 388.3 136.5C389.1 138.9 392.1 148.1 392.1 148.1C392.1 148.1 392.7 137.9 393 136.6C393.3 135.3 394.7 136 394.9 137.4C395.1 138.8 395.2 149 395.2 149L399.6 140.7C399.6 140.7 401 140.4 400.5 141.8C400 143.2 398.1 150.7 398.1 150.7C398.1 150.7 403 153.8 403.6 155.3C404.2 156.7 403.6 158.6 403.6 159.1C403.6 159.6 406.1 160.7 406.1 160.7L405.2 166.3Z" fill="white" stroke="#263238" stroke-miterlimit="10" stroke-linecap="round" stroke-linejoin="round"/>
<path d="M406.5 157.6L404.4 156.4L402.7 165.2L405.2 166.3L406.5 157.6Z" fill="white" stroke="#263238" stroke-miterlimit="10" stroke-linecap="round" stroke-linejoin="round"/>
<path d="M442.5 103.2C442.5 103.2 439.1 104.9 437.7 108.4C436.4 111.8 430 164.3 430 164.3L428 200L441.6 200.2L452.5 120L454 100.3C454 100.3 445.6 98.8 442.5 103.2Z" fill="white" stroke="#263238" stroke-miterlimit="10" stroke-linecap="round" stroke-linejoin="round"/>
<path d="M442.5 103.2C442.5 103.2 440.6 104.3 438.3 121.4C436 138.4 430.1 191.4 430.3 196.4C430.5 201.4 430.1 223.8 430.1 223.8L423 222.7C423 222.7 421.7 202.6 423.6 190.6C425.5 178.5 428.6 155.8 429.3 147.7C430.1 139.7 432.4 110.6 433.3 108.5C434.3 106.4 441.9 100.8 441.9 100.8L442.5 103.2Z" fill="#E8505B" stroke="#263238" stroke-miterlimit="10" stroke-linecap="round" stroke-linejoin="round"/>
<path d="M456.7 78.5L462 92.7L449 103L444.4 113.2L440 98.8L451.5 89.8L450.7 80.4L456.7 78.5Z" fill="white" stroke="#263238" stroke-miterlimit="10" stroke-linecap="round" stroke-linejoin="round"/>
<path d="M423.8 59.0001C423.8 59.0001 423.4 66.5001 424.6 68.8001C425.7 71.1001 427.7 74.2001 427.7 75.1001C427.7 76.1001 425.2 82.9001 425.8 83.9001C426.4 84.9001 429.4 85.0001 429.4 85.0001C429.4 85.0001 432.5 91.3001 433 93.4001C433.6 95.5001 434 100.1 436.3 101.6C438.6 103.1 442.4 100.3 448 96.8001C453.5 93.4001 453.9 89.1001 453.9 88.0001C453.9 86.9001 453.3 83.6001 453.3 83.6001C453.3 83.6001 457.3 81.5001 458.5 78.4001C459.6 75.3001 459.5 73.4001 459.5 73.4001C459.5 73.4001 462.8 71.9001 463.7 66.9001C464.7 61.9001 460.4 49.5001 456.8 47.0001C453 44.7001 450 40.8001 441 42.0001C432 43.1001 423.4 47.2001 422.1 51.8001C420.7 56.3001 423.8 59.0001 423.8 59.0001Z" fill="white" stroke="#263238" stroke-miterlimit="10" stroke-linecap="round" stroke-linejoin="round"/>
<path d="M422.001 51.7C423.301 47.1 431.901 43.1 440.901 41.9C449.901 40.8 453.001 44.6 456.601 47.1C460.201 49.6 464.401 62 463.501 67C462.501 72 459.301 73.5 459.301 73.5C458.201 68.5 453.801 67.8 452.401 68.9C451.101 70 453.201 83.6 453.201 83.6C453.201 83.6 453.801 86.9 453.801 88C453.801 89.1 453.401 93.4 447.901 96.8C442.401 100.2 438.501 103.1 436.201 101.6C433.901 100.1 433.501 95.5 432.901 93.4C432.301 91.3 429.301 85 429.301 85C429.301 85 429.201 85 429.101 85C430.201 84.4 431.901 83.9 434.301 83.7C440.601 83.1 441.601 87.5 443.101 87.3C444.601 87.1 447.301 85 447.901 82.9C448.501 80.8 448.501 70.1 448.701 68.9C448.901 67.8 448.301 67.4 447.401 67C446.401 66.6 440.901 64.3 439.201 63.2C437.501 62.1 437.901 54.8 437.901 54.8L423.901 59C423.801 59 420.701 56.3 422.001 51.7Z" fill="#263238" stroke="#263238" stroke-miterlimit="10" stroke-linecap="round" stroke-linejoin="round"/>
<path d="M429.6 74.9C430.6 77.3 432.9 78.7 434.7 77.9C436.5 77.1 437.1 74.5 436.1 72.1C435.1 69.7 432.8 68.3 431 69.1C429.2 69.9 428.5 72.5 429.6 74.9Z" stroke="#263238" stroke-miterlimit="10" stroke-linecap="round" stroke-linejoin="round"/>
<path d="M424.501 70.2001C423.301 71.3001 422.901 73.5001 423.801 75.6001C424.401 77.1001 425.601 78.2001 426.801 78.6001" stroke="#263238" stroke-miterlimit="10" stroke-linecap="round" stroke-linejoin="round"/>
<path d="M428.5 73L425.7 73.2" stroke="#263238" stroke-miterlimit="10" stroke-linecap="round" stroke-linejoin="round"/>
<path d="M436.101 72.2L451.901 70.5" stroke="#263238" stroke-miterlimit="10" stroke-linecap="round" stroke-linejoin="round"/>
<path d="M464.1 89.1L445.2 102.3L448.8 112L467.8 99.8L464.1 89.1Z" fill="#E8505B" stroke="#263238" stroke-miterlimit="10" stroke-linecap="round" stroke-linejoin="round"/>
<path d="M449.001 109C449.001 109 446.101 126.8 444.201 143.8C442.301 160.8 439.201 193.2 438.801 193.9C438.401 194.7 438.001 203.1 439.001 206.9C440.001 210.7 446.701 222.8 448.801 223.4C450.901 224 461.001 224.4 461.001 224.4L494.501 226.1L488.201 188.8C488.201 188.8 488.801 143.5 489.301 138.1C489.901 132.7 491.001 113.8 488.501 112.3C486.001 110.8 467.601 99.9 467.601 99.9L449.001 109Z" fill="#E8505B" stroke="#263238" stroke-miterlimit="10" stroke-linecap="round" stroke-linejoin="round"/>
<path d="M488.6 112.2C488.6 112.2 494.9 137.6 494.3 141.1C493.7 144.5 491.4 184.3 491 186.6C490.6 188.9 476.3 220.8 476.3 220.8L461.4 213.7C461.4 213.7 469.1 183.3 469.1 182.7C469.1 182.1 471.2 173.3 471.4 172.8C471.6 172.2 464.3 138 464.3 138C464.3 138 463 130.3 465.4 127.1C467.9 123.8 475.2 116.8 475.2 116.8" fill="#E8505B"/>
<path d="M488.6 112.2C488.6 112.2 494.9 137.6 494.3 141.1C493.7 144.5 491.4 184.3 491 186.6C490.6 188.9 476.3 220.8 476.3 220.8L461.4 213.7C461.4 213.7 469.1 183.3 469.1 182.7C469.1 182.1 471.2 173.3 471.4 172.8C471.6 172.2 464.3 138 464.3 138C464.3 138 463 130.3 465.4 127.1C467.9 123.8 475.2 116.8 475.2 116.8" stroke="#263238" stroke-miterlimit="10" stroke-linecap="round" stroke-linejoin="round"/>
<path d="M477.4 173.1C475.9 174.2 474.7 175 474.3 175.4" stroke="#263238" stroke-miterlimit="10" stroke-linecap="round" stroke-linejoin="round"/>
<path d="M486.9 166.5C486.9 166.5 484.2 168.4 481.2 170.4" stroke="#263238" stroke-miterlimit="10" stroke-linecap="round" stroke-linejoin="round"/>
<path d="M473.3 219.5L471.4 223.7L460.7 219.1L463 214.2L473.3 219.5Z" fill="white" stroke="#263238" stroke-miterlimit="10" stroke-linecap="round" stroke-linejoin="round"/>
<path d="M460.7 219.1L458 224.1L468.7 232.2L470 223.2L460.7 219.1Z" fill="white" stroke="#263238" stroke-miterlimit="10" stroke-linecap="round" stroke-linejoin="round"/>
<path d="M444.601 347C444.601 347 438.101 353.9 436.701 354.9C435.301 355.8 425.301 363.2 425.301 363.2C425.301 363.2 424.601 364.6 425.801 365.3C427.001 366 443.201 366.5 443.201 366.5C443.201 366.5 446.001 367.9 449.901 367.9C453.801 367.9 468.401 366.7 470.501 366.3C472.601 365.8 476.301 365.4 477.201 363.1C478.101 360.8 476.501 356.8 476.501 356.8C476.501 356.8 474.901 355.2 472.301 353.6C469.801 352 467.701 350.6 464.401 349C461.201 347.4 456.301 349.9 456.301 349.9L444.601 347Z" fill="white" stroke="#263238" stroke-miterlimit="10" stroke-linecap="round" stroke-linejoin="round"/>
<path d="M454.8 352.5C454.8 352.5 452.9 356 448.1 359.2C443.2 362.4 443.2 366.4 443.2 366.4" fill="white"/>
<path d="M454.8 352.5C454.8 352.5 452.9 356 448.1 359.2C443.2 362.4 443.2 366.4 443.2 366.4" stroke="#263238" stroke-miterlimit="10" stroke-linecap="round" stroke-linejoin="round"/>
<path d="M457.9 334.8C457.8 338.6 457.8 339.8 457.8 339.8C457.8 339.8 457.3 341.4 457.1 343C456.9 344.6 457.3 345.8 457.3 345.8" stroke="#263238" stroke-miterlimit="10" stroke-linecap="round" stroke-linejoin="round"/>
<path d="M441.101 234.9L446.401 239.5C446.401 239.5 452.001 277.3 453.601 287C455.201 296.7 458.701 306.7 458.201 321.5C458.101 324.9 458.001 327.8 457.901 330.1" stroke="#263238" stroke-miterlimit="10" stroke-linecap="round" stroke-linejoin="round"/>
<path d="M472.4 297.9C473.1 301.5 473.7 304.4 473.8 305.1" stroke="#263238" stroke-miterlimit="10" stroke-linecap="round" stroke-linejoin="round"/>
<path d="M476.3 229.5C476.3 229.5 471 260.3 469.8 264C468.6 267.7 467.7 274.7 467.9 276.3C468 277.2 469.6 284.9 471.1 292.1" stroke="#263238" stroke-miterlimit="10" stroke-linecap="round" stroke-linejoin="round"/>
<path d="M474.901 308.3C474.901 308.3 474.401 311.8 473.501 317.3C472.601 322.9 469.801 340.9 469.801 340.9" stroke="#263238" stroke-miterlimit="10" stroke-linecap="round" stroke-linejoin="round"/>
<path d="M282.2 91.9C282.2 91.9 268.6 98.3 268.9 104C269.2 109.6 269.6 112.1 269.6 112.1C269.6 112.1 253.8 116.8 253.6 122.1C253.4 127.5 256.4 134.4 255.9 135.9C255.4 137.4 248 138.6 251 145.3C254 152 261.1 157.8 273.1 158C285.1 158.1 292 148.1 292.3 139C292.6 130 297.6 100.8 297.6 100.8L282.2 91.9Z" fill="#263238" stroke="#263238" stroke-miterlimit="10" stroke-linecap="round" stroke-linejoin="round"/>
<path d="M329.3 206.8C329.3 206.8 329.1 231.1 323.9 249.4C318.7 267.7 315.4 286.1 315.4 286.1C315.4 286.1 314.7 296.7 312.6 306.2C310.4 315.7 310.7 330.8 310.5 334.9C310.4 339 310.5 341.9 310.5 341.9C310.5 341.9 303.1 342.5 301.8 342.3C300.4 342.1 299.1 341.4 299.1 341.4C299.1 341.4 295.6 309.3 295.9 301.4C296.1 293.5 296.1 285 296.6 283.1C297.2 281.2 298.4 256.3 297.5 241.9C296.6 227.5 289 224.9 283.5 218.4C278.1 211.9 275.2 205 275.2 205C275.2 205 308.7 208.9 329.3 206.8Z" fill="#E8505B" stroke="#263238" stroke-miterlimit="10" stroke-linecap="round" stroke-linejoin="round"/>
<path d="M306.5 219.9C306.5 219.9 312.1 216.7 315.3 213.4L306.5 219.9Z" fill="white"/>
<path d="M306.5 219.9C306.5 219.9 312.1 216.7 315.3 213.4" stroke="#263238" stroke-miterlimit="10" stroke-linecap="round" stroke-linejoin="round"/>
<path d="M294.2 213.6C294.2 213.6 303 217.3 305.5 223.2C308.1 229.1 306.3 251.6 305.2 260.8C304.1 270 302.3 277.8 300.4 283.4C298.5 289 289.1 334.5 289.1 334.5L287.9 341.8C287.9 341.8 283.6 343.2 282 343C280.5 342.8 277.8 341.3 277.8 341.3C277.8 341.3 274.3 298.1 275.9 290.6C277.5 283.1 286 272.1 286 272.1C286 272.1 286.4 270.6 285.9 268.2C285.5 265.8 273.5 242.9 270.2 226.2C266.9 209.5 268.6 204.3 268.6 204.3L280.2 207.1L289.7 208.4" fill="#E8505B"/>
<path d="M294.2 213.6C294.2 213.6 303 217.3 305.5 223.2C308.1 229.1 306.3 251.6 305.2 260.8C304.1 270 302.3 277.8 300.4 283.4C298.5 289 289.1 334.5 289.1 334.5L287.9 341.8C287.9 341.8 283.6 343.2 282 343C280.5 342.8 277.8 341.3 277.8 341.3C277.8 341.3 274.3 298.1 275.9 290.6C277.5 283.1 286 272.1 286 272.1C286 272.1 286.4 270.6 285.9 268.2C285.5 265.8 273.5 242.9 270.2 226.2C266.9 209.5 268.6 204.3 268.6 204.3L280.2 207.1L289.7 208.4" stroke="#263238" stroke-miterlimit="10" stroke-linecap="round" stroke-linejoin="round"/>
<path d="M277.799 341.4C277.799 341.4 275.899 353 273.999 358.1C272.099 363.2 274.899 367.7 279.199 368.5C283.499 369.3 288.499 368.5 289.199 364.2C289.899 359.9 288.599 348.1 288.699 346.2C288.799 344.3 287.999 341.8 287.999 341.8C287.999 341.8 281.899 344.3 277.799 341.4Z" fill="white" stroke="#263238" stroke-miterlimit="10" stroke-linecap="round" stroke-linejoin="round"/>
<path d="M289.2 364.2C289.4 362.6 289.4 360.1 289.3 357.4C288.7 358.3 286.7 360.6 282.1 360.9C277.7 361.2 275.3 358.2 274.4 356.8C274.2 357.3 274.1 357.7 273.9 358.1C272 363.2 274.8 367.7 279.1 368.5C283.5 369.3 288.5 368.5 289.2 364.2Z" fill="white" stroke="#263238" stroke-miterlimit="10" stroke-linecap="round" stroke-linejoin="round"/>
<path d="M310.399 341.9C310.399 341.9 314.199 347.2 320.499 352C326.799 356.8 330.299 357.6 329.499 359.3C328.599 361 320.899 361.2 315.399 360.9C309.899 360.6 304.699 358.8 302.399 358.3C300.099 357.8 296.999 358.8 296.299 356.2C295.599 353.6 298.999 341.4 298.999 341.4C298.999 341.4 307.399 342 310.399 341.9Z" fill="white" stroke="#263238" stroke-miterlimit="10" stroke-linecap="round" stroke-linejoin="round"/>
<path d="M329.5 359.2C330.3 357.6 327.2 356.8 321.4 352.6C320 353.1 317.1 354 314.5 353.9C310.9 353.8 298.1 347.1 298.1 347.1L297.5 346.8C296.6 350.4 295.8 354.8 296.2 356.2C296.9 358.8 300.1 357.8 302.3 358.3C304.6 358.8 309.8 360.6 315.3 360.9C321 361.1 328.7 361 329.5 359.2Z" fill="white" stroke="#263238" stroke-miterlimit="10" stroke-linecap="round" stroke-linejoin="round"/>
<path d="M325.1 121.6C325.1 121.6 327.3 122.2 328.2 126C329.1 129.8 329.2 169 329.2 169L321.7 171.7L320.3 167.1L325.9 128.6C325.9 128.6 325.1 122.3 325.1 121.6Z" fill="white" stroke="#263238" stroke-miterlimit="10" stroke-linecap="round" stroke-linejoin="round"/>
<path d="M328.9 142.5C328.8 134.5 328.5 127.5 328.2 126C327.3 122.2 325.1 121.6 325.1 121.6C325.1 122.2 325.9 128.5 325.9 128.5L323.8 143.1L328.9 142.5Z" fill="#D1D1D1" stroke="#263238" stroke-miterlimit="10" stroke-linecap="round" stroke-linejoin="round"/>
<path d="M324.6 138.6L331 137.9C331 137.9 330 128 329 125.5C328.1 123 325 121.6 325 121.6C325 121.6 325.6 134.8 324.6 138.6Z" fill="white" stroke="#263238" stroke-miterlimit="10" stroke-linecap="round" stroke-linejoin="round"/>
<path d="M263.6 133.5L253.8 193.5L257.2 192.9L265.3 133.2L263.6 133.5Z" fill="#999999" stroke="#263238" stroke-miterlimit="10" stroke-linecap="round" stroke-linejoin="round"/>
<path d="M291 100.4C291 100.4 289.1 112.3 287.3 115.4C285.5 118.4 275 119.7 275 119.7C275 119.7 267.6 121 268.8 127.2C270 133.4 277.3 171.5 276.9 172.6C276.5 173.7 268.8 204.4 268.8 204.4C268.8 204.4 288.9 209.8 307.9 209.1C326.9 208.3 329.4 206.9 329.4 206.9C329.4 206.9 327.6 189.5 324.9 182C322.2 174.6 320.3 167.8 320.3 167.2C320.3 166.6 326.9 128.6 326.6 125.5C326.3 122.4 325 120.6 321.2 120.1C317.4 119.6 312.4 118.7 309.5 116.7C306.7 114.7 305.2 106.7 305.2 106.7C305.2 106.7 297.3 107.7 291 100.4Z" fill="#D1D1D1" stroke="#263238" stroke-miterlimit="10" stroke-linecap="round" stroke-linejoin="round"/>
<path d="M311.7 117.8C310.8 117.4 310.1 117 309.4 116.6C306.6 114.6 305.1 106.6 305.1 106.6C305.1 106.6 297.3 107.7 291 100.4C291 100.4 289.1 112.3 287.3 115.4C286.6 116.6 284.5 117.5 282.3 118.2C285.1 122.1 293.1 132.6 299.6 132.6C305.2 132.5 309.7 123.1 311.7 117.8Z" fill="white" stroke="#263238" stroke-miterlimit="10" stroke-linecap="round" stroke-linejoin="round"/>
<path d="M315.8 84.3C315.8 84.3 314.8 90.6 314.1 95.3C313.4 99.9 307.7 108.4 304 109.1C300.3 109.8 297.1 108.7 294.2 106.3C291.4 103.9 286.9 98 286.9 98C286.9 98 282.5 98.1 280.1 93.7C277.7 89.4 279.9 87.1 281.5 86.6C283.1 86.1 286.3 86 286.3 86C286.3 86 288.9 77.8 290 77.4C291.2 77 296.4 76.2 299.2 73.8C302 71.4 305.3 64.5 307.4 64.8C309.5 65.1 316.2 74.3 316.3 75.7C316.6 77 315.8 84.3 315.8 84.3Z" fill="white" stroke="#263238" stroke-miterlimit="10" stroke-linecap="round" stroke-linejoin="round"/>
<path d="M300.3 88.2C300.3 89.1 299.9 89.8 299.4 89.8C298.9 89.8 298.5 89 298.6 88.2C298.6 87.3 299 86.6 299.5 86.6C300 86.5 300.3 87.3 300.3 88.2Z" fill="#263238"/>
<path d="M310.4 88.8001C310.4 89.7001 310 90.4001 309.5 90.4001C309 90.4001 308.6 89.6001 308.7 88.8001C308.7 87.9001 309.1 87.2001 309.6 87.2001C310.1 87.2001 310.5 87.9001 310.4 88.8001Z" fill="#263238"/>
<path d="M307.3 93.9L304 94.9" stroke="#263238" stroke-miterlimit="10" stroke-linecap="round" stroke-linejoin="round"/>
<path d="M298.3 96.7001C298.3 96.7001 299.5 100.5 304.9 99.7001" stroke="#263238" stroke-miterlimit="10" stroke-linecap="round" stroke-linejoin="round"/>
<path d="M296.2 84C296.2 84 299.5 82.5 303 83.9" stroke="#263238" stroke-miterlimit="10" stroke-linecap="round" stroke-linejoin="round"/>
<path d="M308.2 84.2001C308.2 84.2001 311.2 83.0001 312.9 85.2001" stroke="#263238" stroke-miterlimit="10" stroke-linecap="round" stroke-linejoin="round"/>
<path d="M308.4 68.6C308.4 68.6 306.3 74.1 302.3 77.7C298.3 81.2 290.6 82.4 290.6 82.4C290.6 82.4 288.7 87.4 287.9 88.9C287.1 90.4 285.4 90.2 285.4 90.2C285.4 90.2 282.9 88.4 278.2 85.3C273.5 82.3 271.5 77.8 273.5 74.9C275.5 72.1 281.9 57.4 289.1 57C296.3 56.6 309.7 59 312.5 61.6C315.3 64.2 320.8 74.4 321.3 77.3C321.8 80.2 322.2 80.4 320.2 81.7C318.2 83 315.9 84.3 315.9 84.3L315.7 79.3L308.4 68.6Z" fill="#263238" stroke="#263238" stroke-miterlimit="10" stroke-linecap="round" stroke-linejoin="round"/>
<path d="M251 208.3C251 208.3 246.5 227.1 247.6 230.2C248.7 233.3 268.5 243.9 273.7 245.2C278.9 246.5 284.6 244.7 286.1 242.9C287.7 241.1 284.5 200.5 284.5 200.5L253.7 193.5L251 208.3Z" fill="#999999" stroke="#263238" stroke-miterlimit="10" stroke-linecap="round" stroke-linejoin="round"/>
<path d="M276.6 201C276.4 203.4 277.5 217.5 277.5 217.5C277.5 217.5 274.4 242.8 275.6 245.7C280.2 246.3 284.8 244.6 286.2 243C287.8 241.2 284.6 200.6 284.6 200.6L278.7 199.2C277.4 199.8 276.6 200.4 276.6 201Z" fill="#999999" stroke="#263238" stroke-miterlimit="10" stroke-linecap="round" stroke-linejoin="round"/>
<path d="M259.4 191.3C259.4 191.3 250.9 191.7 250.5 193.9C250.1 196.1 247.9 205.7 249.6 207.6C251.2 209.5 276.7 217.6 277.4 217.4C278.1 217.3 276.3 203.3 277.2 202.5C278.1 201.7 284.5 200.5 284.5 200.5L259.4 191.3Z" fill="#999999" stroke="#263238" stroke-miterlimit="10" stroke-linecap="round" stroke-linejoin="round"/>
<path d="M274.9 119.6C274.9 119.6 277.9 118.7 279.3 125.9C280.8 133.1 279.2 202 279.2 202L282.8 201.4C282.8 201.4 281.1 129.9 281.2 126.8C281.3 123.8 280.4 120.3 278.5 119.3C276.6 118.3 274.9 119.6 274.9 119.6Z" fill="#999999" stroke="#263238" stroke-miterlimit="10" stroke-linecap="round" stroke-linejoin="round"/>
<path d="M277.1 119.8C277.1 119.8 269.2 118.4 266.5 119.3C263.8 120.2 260.2 124.1 260.2 124.1L259.2 138.2L278.5 137.4L276.6 125" fill="#D1D1D1"/>
<path d="M277.1 119.8C277.1 119.8 269.2 118.4 266.5 119.3C263.8 120.2 260.2 124.1 260.2 124.1L259.2 138.2L278.5 137.4L276.6 125" stroke="#263238" stroke-miterlimit="10" stroke-linecap="round" stroke-linejoin="round"/>
<path d="M262.2 137.9C262.2 137.9 273.6 175.3 274.4 175.9C275.2 176.5 277.5 175.8 278.1 175.6C278.7 175.4 316.4 135.2 316.4 135.2C316.4 135.2 320.1 132.8 321.7 131.3C323.3 129.8 325 124.1 325 124.1C325 124.1 330.7 122.3 331.4 122.2C332.2 122 333.9 120.9 333.9 120.9C333.9 120.9 328.4 117.8 325.9 117.6C323.4 117.3 320.5 118.8 319.7 119.3C318.9 119.9 311.5 133.7 311.5 133.7L282.1 155.4L276.5 137.5L262.2 137.9Z" fill="white" stroke="#263238" stroke-miterlimit="10" stroke-linecap="round" stroke-linejoin="round"/>
<path d="M331.4 122.3L321.6 155.6L346.3 160L356 127.3L331.4 122.3Z" fill="#E8505B" stroke="#263238" stroke-miterlimit="10" stroke-linecap="round" stroke-linejoin="round"/>
<path d="M356 127.3L364.6 117.9L351 152.2L346.3 160L356 127.3Z" fill="#E8505B" stroke="#263238" stroke-miterlimit="10" stroke-linecap="round" stroke-linejoin="round"/>
<path d="M325.4 182.2C325.4 182.2 340 168.2 340.4 167.8C340.8 167.4 350 161.6 350 161.6L350.8 157C350.8 157 352.5 153.9 352.8 153.3C353.1 152.7 354.9 141.2 354 141.8C353.1 142.4 352.8 142.5 352.7 143.4C352.5 144.3 351 152.4 351 152.4C351 152.4 349.7 146.6 348.9 145.1C348.1 143.6 347.1 145.3 347.1 145.9C347.1 146.5 348.7 154.3 348.7 154.3C348.7 154.3 343.8 150.3 342.9 149.7C342 149.2 341.7 150.5 342.2 151.3C342.7 152.1 346.1 156.4 346.1 156.4L345.8 158.3C345.8 158.3 342.4 155.9 341.4 155.5C340.4 155.1 340.4 155.8 341 156.9C341.6 157.9 342.2 159.3 342.2 159.3H339.4C339.4 159.3 335.7 164 335.6 165C335.4 166 335.2 167.4 335.2 167.4L321.7 171.9L325.4 182.2Z" fill="white" stroke="#263238" stroke-miterlimit="10" stroke-linecap="round" stroke-linejoin="round"/>
<path d="M223.2 306.5H220.4V361.8H223.2V306.5Z" fill="white" stroke="#263238" stroke-miterlimit="10" stroke-linecap="round" stroke-linejoin="round"/>
<path d="M85.8 306.5H83V361.8H85.8V306.5Z" fill="white" stroke="#263238" stroke-miterlimit="10" stroke-linecap="round" stroke-linejoin="round"/>
<path d="M212.7 212H90.1001V293.8H212.7V212Z" fill="white" stroke="#263238" stroke-miterlimit="10" stroke-linecap="round" stroke-linejoin="round"/>
<path d="M205 284.9H100.6V309.3H205V284.9Z" fill="white" stroke="#263238" stroke-miterlimit="10" stroke-linecap="round" stroke-linejoin="round"/>
<path d="M100.6 247.1H79.2002V309.3H100.6V247.1Z" fill="white" stroke="#263238" stroke-miterlimit="10" stroke-linecap="round" stroke-linejoin="round"/>
<path d="M226.3 247.1H204.9V309.3H226.3V247.1Z" fill="white" stroke="#263238" stroke-miterlimit="10" stroke-linecap="round" stroke-linejoin="round"/>
<path d="M122.7 118.6C122.7 118.6 110.3 117 111.6 119C112.9 121 115.8 121.4 115.8 121.4C115.8 121.4 105.8 122.5 101.8 129.6C97.8004 136.7 101.1 134.9 101.1 134.9C101.1 134.9 95.5004 142.9 95.6004 147.3C95.8004 151.7 98.9004 149.3 98.9004 149.3C98.9004 149.3 98.4004 159.3 100.4 161.7C102.4 164.1 103.9 161 103.9 161C103.9 161 108.3 166.8 112.5 168.8C116.7 170.8 117.4 167.5 117.4 167.5C117.4 167.5 128.2 173.3 134.2 173.1C140.2 172.9 146.4 168.2 146.4 168.2C146.4 168.2 146.2 170 147.5 170C148.8 170 157.5 163.1 157.5 163.1C157.5 163.1 156.4 165.7 159.1 163.3C161.8 160.9 163.7 151.3 163.7 146.9C163.7 142.5 161 136.7 161 136.7C161 136.7 164.3 139.4 164.3 137.2C164.3 135 159.7 126.3 154.1 123.3C148.5 120.4 145 120 145 120C145 120 147.9 118.4 145.4 117.3C142.8 116.2 133.9 116.2 133.9 116.2C133.9 116.2 135.5 113.6 132.1 114.4C128.4 115.1 123.1 116.9 122.7 118.6Z" fill="#263238" stroke="#263238" stroke-miterlimit="10" stroke-linecap="round" stroke-linejoin="round"/>
<path d="M114.7 258C114.7 258 110.7 269.5 112.2 276C113.7 282.4 117.6 284.7 119.5 285.1C121.3 285.4 150 285.1 150 285.1L166 244.8L114.7 258Z" fill="#263238" stroke="#263238" stroke-miterlimit="10" stroke-linecap="round" stroke-linejoin="round"/>
<path d="M123.6 165.4C123.6 165.4 124.6 171.2 123.6 174.7C122.6 178.2 117.5 180.8 112.5 182.6C107.6 184.4 98.1004 185.7 96.5004 190.2C94.9004 194.7 91.4004 236.6 91.4004 238C91.4004 239.5 95.7004 242 99.2004 241.6C102.7 241.3 107 234.2 107 234.2C107 234.2 110.8 257.3 112.8 258.5C114.8 259.7 119.1 258.5 119.1 258.5L164.8 245.3C164.8 245.3 175 248.8 179.8 246.8C184.6 244.8 185.2 241 183.9 235.6C182.6 230.2 173.5 196.2 171.5 189.4C169.5 182.6 167.5 179.2 164.9 177.7C162.3 176.2 151.7 177.4 147.6 176.7C143.5 176 138.5 167 138.5 163.3L123.6 165.4Z" fill="#999999" stroke="#263238" stroke-miterlimit="10" stroke-linecap="round" stroke-linejoin="round"/>
<path d="M135.9 188.4C143.5 186.8 148.4 180.8 150.9 176.9C149.6 176.9 148.5 176.8 147.7 176.7C143.6 176 138.6 167 138.6 163.3L123.7 165.4C123.7 165.4 124.7 171.2 123.7 174.7C122.8 177.9 118.4 180.3 113.9 182.1C118.5 185.2 127.8 190.2 135.9 188.4Z" fill="white" stroke="#263238" stroke-miterlimit="10" stroke-linecap="round" stroke-linejoin="round"/>
<path d="M125.3 137.2C125.3 137.2 125.7 140.5 127.3 139.8C128.9 139.1 134 134 134 134C134 134 133.6 137.1 137.1 138.9C140.6 140.7 139.3 138 139.3 138L143.7 143.5L144.8 152.1C144.8 152.1 145.5 158.5 143.7 161.9C141.9 165.4 137.3 169.7 133.5 170.3C129.7 170.8 126.4 169 123.7 165.6C121 162.1 119.7 159.4 119.7 159.4C119.7 159.4 116.2 147 117.7 144.6C119.2 142.2 125.3 137.2 125.3 137.2Z" fill="white" stroke="#263238" stroke-miterlimit="10" stroke-linecap="round" stroke-linejoin="round"/>
<path d="M117.8 151.1C117.8 151.1 112.9 147.8 113.6 152.9C114.3 158 118.9 156.4 118.9 156.4L117.8 151.1Z" fill="white" stroke="#263238" stroke-miterlimit="10" stroke-linecap="round" stroke-linejoin="round"/>
<path d="M144.6 148.5C144.6 148.5 147.3 146.3 148.1 148.5C148.8 150.7 145 154.1 145 154.1L144.6 148.5Z" fill="white" stroke="#263238" stroke-miterlimit="10" stroke-linecap="round" stroke-linejoin="round"/>
<path d="M128.2 152.8C128.2 153.5 127.8 154 127.3 154C126.8 154 126.4 153.4 126.4 152.8C126.4 152.1 126.8 151.6 127.3 151.6C127.8 151.6 128.2 152.1 128.2 152.8Z" fill="#263238"/>
<path d="M137.2 152.3C137.2 153 136.8 153.5 136.3 153.5C135.8 153.5 135.4 152.9 135.4 152.3C135.4 151.7 135.8 151.1 136.3 151.1C136.8 151.1 137.2 151.6 137.2 152.3Z" fill="#263238"/>
<path d="M124.1 148.4C124.1 148.4 125.5 146.2 129.3 147.1" stroke="#263238" stroke-miterlimit="10" stroke-linecap="round" stroke-linejoin="round"/>
<path d="M133.4 146.5C133.4 146.5 136.6 145.1 138.9 147.6" stroke="#263238" stroke-miterlimit="10" stroke-linecap="round" stroke-linejoin="round"/>
<path d="M126.9 160.5C126.9 160.5 132.9 164.4 137.6 159.4" stroke="#263238" stroke-miterlimit="10" stroke-linecap="round" stroke-linejoin="round"/>
<path d="M130.1 156.6C130.1 156.6 132 157.7 132.9 157.2C133.8 156.7 133.8 155.8 133.8 155.8" stroke="#263238" stroke-miterlimit="10" stroke-linecap="round" stroke-linejoin="round"/>
<path d="M97.9003 246.8C100 246.5 103.5 242.5 104 241.4C104.3 240.8 105.6 232.3 106.8 224.4C103.9 225 100.7 223.3 98.4003 221.7C96.2003 225.6 94.2003 229 93.7003 229.4C92.5003 230.4 89.1003 237.3 90.2003 242.1C91.5003 246.8 95.8003 247.1 97.9003 246.8Z" fill="white" stroke="#263238" stroke-miterlimit="10" stroke-linecap="round" stroke-linejoin="round"/>
<path d="M105.8 208.2C105.8 208.2 103.2 195.3 104.3 194.7C105.5 194 115.5 192.7 116 193.1C116.5 193.4 117 203.5 117 203.5L113.4 204.8C113.4 204.8 113.9 207.3 112.9 208.4C111.9 209.6 108.8 210.9 108.8 210.9C108.8 210.9 104.5 240.3 104 241.4C103.5 242.6 100 246.5 97.9002 246.8C95.8002 247.1 91.5002 246.8 90.3002 242C89.1002 237.2 92.6002 230.3 93.8002 229.3C94.9002 228.3 105.8 208.2 105.8 208.2Z" fill="white" stroke="#263238" stroke-miterlimit="10" stroke-linecap="round" stroke-linejoin="round"/>
<path d="M111.6 193.2C111.6 193.2 112.9 190.9 113.4 189.6C113.9 188.3 115.2 188.6 115.7 190.1C116.2 191.6 116 193.1 116 193.1L111.6 193.2Z" fill="white" stroke="#263238" stroke-miterlimit="10" stroke-linecap="round" stroke-linejoin="round"/>
<path d="M129.9 189.4H116.7V207.4H129.9V189.4Z" fill="white" stroke="#263238" stroke-miterlimit="10" stroke-linecap="round" stroke-linejoin="round"/>
<path d="M167.4 201.4C167.4 201.4 168.4 198.9 169.8 198C171.2 197.1 188.2 191.1 188.2 191.1L167.4 201.4Z" fill="white" stroke="#263238" stroke-miterlimit="10" stroke-linecap="round" stroke-linejoin="round"/>
<path d="M167.4 201.4C167.4 201.4 164.9 198.3 163.8 198C162.6 197.7 139.2 193.1 139.2 193.1L167.4 201.4Z" fill="white" stroke="#263238" stroke-miterlimit="10" stroke-linecap="round" stroke-linejoin="round"/>
<path d="M139.2 193.2L134 225L162.1 233.9L167.4 201.4L139.2 193.2Z" fill="#E8505B" stroke="#263238" stroke-miterlimit="10" stroke-linecap="round" stroke-linejoin="round"/>
<path d="M167.401 201.4L190.301 190.7L184.401 225.7L162.101 233.9L167.401 201.4Z" fill="#E8505B" stroke="#263238" stroke-miterlimit="10" stroke-linecap="round" stroke-linejoin="round"/>
<path d="M175.6 234.3C175.6 234.3 168.2 225.2 167.4 225.1C166.6 224.9 166.1 226.4 166.7 227.6C167.4 228.8 171.3 234.4 171.3 234.4C171.3 234.4 164.5 228.1 163.5 227.6C162.5 227.1 161.4 228.3 161.5 229.2C161.7 230.2 167.8 236.8 167.8 236.8C167.8 236.8 159.6 231.4 158.9 231C158.2 230.7 157.9 232.3 158.7 233.1C159.5 233.9 160.5 235.6 160.5 235.6C160.5 235.6 163.1 239.2 163.6 239.7C164.1 240.2 165.6 242.7 167.9 242.3C170.2 242 175.3 238.8 176 237C176.8 235.3 175.6 234.3 175.6 234.3Z" fill="white" stroke="#263238" stroke-miterlimit="10" stroke-linecap="round" stroke-linejoin="round"/>
<path d="M160.601 235.6L166.601 240.5" stroke="#263238" stroke-miterlimit="10" stroke-linecap="round" stroke-linejoin="round"/>
<path d="M169.201 243.2C169.201 243.2 178.401 248.5 184.501 257.4C190.601 266.3 191.301 275.2 188.101 280.2C185.001 285.1 180.301 285.5 177.201 285.5C174.101 285.5 165.001 285.5 165.001 285.5C165.001 285.5 164.701 276.6 162.901 273.3C161.101 270 153.701 269 149.401 263.4C145.101 257.8 146.601 242.8 154.701 240.6C162.801 238.4 169.201 243.2 169.201 243.2Z" fill="#263238" stroke="#263238" stroke-miterlimit="10" stroke-linecap="round" stroke-linejoin="round"/>
<path d="M160.6 264.6C160.6 264.6 164.7 267.1 166.4 277.1C168 287.2 167.1 321.3 167.1 327.4C167.1 333.5 168.3 340.4 168.3 340.4L156.4 342C156.4 342 152.3 326.2 148 307.8C143.7 289.5 142.2 279.3 146.7 270C151 261 160.6 264.6 160.6 264.6Z" fill="#263238" stroke="#263238" stroke-miterlimit="10" stroke-linecap="round" stroke-linejoin="round"/>
<path d="M167 253.6C167 253.6 163.2 264.8 155.8 275.7C148.4 286.6 139.3 295.8 136.8 299.3C134.3 302.8 127.7 312.7 127.7 312.7L117.8 304C117.8 304 127.4 287 131.3 277.6C135.3 268.2 145.7 242.3 151.6 239.5C157.5 236.7 160.7 237.4 167.9 242.5L171.9 246.5" fill="#263238"/>
<path d="M167 253.6C167 253.6 163.2 264.8 155.8 275.7C148.4 286.6 139.3 295.8 136.8 299.3C134.3 302.8 127.7 312.7 127.7 312.7L117.8 304C117.8 304 127.4 287 131.3 277.6C135.3 268.2 145.7 242.3 151.6 239.5C157.5 236.7 160.7 237.4 167.9 242.5L171.9 246.5" stroke="#263238" stroke-miterlimit="10" stroke-linecap="round" stroke-linejoin="round"/>
<path d="M117.9 303.9C117.9 303.9 112 305.4 107.8 305.4C103.7 305.4 93.9001 300.9 92.8001 303.4C91.6001 305.9 97.1001 314 100.4 317.6C103.7 321.2 106.8 324.7 109.3 327.3C111.8 329.9 114.4 330.8 116.1 330.1C117.7 329.4 127.8 312.6 127.8 312.6L117.9 303.9Z" fill="white" stroke="#263238" stroke-miterlimit="10" stroke-linecap="round" stroke-linejoin="round"/>
<path d="M112.6 323.7C110.6 321.6 104.2 311.7 100.9 307.4C99.1001 305 96.7001 303.5 95.0001 302.7C93.9001 302.6 93.1001 302.8 92.8001 303.4C91.6001 305.9 97.1001 314 100.4 317.6C103.7 321.2 106.8 324.7 109.3 327.3C111.8 329.9 114.4 330.8 116.1 330.1C116.4 330 117.1 329.2 118 328C116.1 326.8 113.8 324.9 112.6 323.7Z" fill="white" stroke="#263238" stroke-miterlimit="10" stroke-linecap="round" stroke-linejoin="round"/>
<path d="M95.9001 306C93.4001 302.7 93.1001 304.8 93.1001 304.8L92.6001 304.6C93.0001 307.9 97.4001 314.4 100.3 317.5C103.6 321.1 106.7 324.6 109.2 327.2C111.7 329.8 114.3 330.7 116 330C116 330 111.9 327 108.6 323.7C105.3 320.6 98.4001 309.3 95.9001 306Z" fill="#999999" stroke="#263238" stroke-miterlimit="10" stroke-linecap="round" stroke-linejoin="round"/>
<path d="M156.3 342.2C156.3 342.2 155.6 349.5 154.5 354.6C153.3 359.7 156 363 157.8 363.8C159.6 364.6 170.7 364 172.3 363.5C173.9 363 175.9 361.5 174.3 356.2C172.7 350.9 168.2 340.5 168.2 340.5L156.3 342.2Z" fill="white" stroke="#263238" stroke-miterlimit="10" stroke-linecap="round" stroke-linejoin="round"/>
<path d="M172.3 363.5C173.5 363.2 174.8 362.3 174.9 360C164.5 362.7 157.5 361.5 155.1 360.9C155.8 362.4 156.9 363.4 157.8 363.8C159.6 364.6 170.7 364 172.3 363.5Z" fill="white" stroke="#263238" stroke-miterlimit="10" stroke-linecap="round" stroke-linejoin="round"/>
</svg>
