<svg width="213" height="39" viewBox="0 0 213 39" fill="none" xmlns="http://www.w3.org/2000/svg">
<rect width="15" height="39" fill="#F95151"/>
<rect x="19" y="30" width="15" height="9" fill="#A551F9"/>
<rect x="19" width="15" height="24" fill="#519EF9"/>
<path d="M54.016 31.384C52.2453 31.384 50.528 31.1493 48.864 30.68C47.2213 30.1893 45.8987 29.56 44.896 28.792L46.656 24.888C47.616 25.592 48.7573 26.1573 50.08 26.584C51.4027 27.0107 52.7253 27.224 54.048 27.224C55.52 27.224 56.608 27.0107 57.312 26.584C58.016 26.136 58.368 25.5493 58.368 24.824C58.368 24.2907 58.1547 23.8533 57.728 23.512C57.3227 23.1493 56.7893 22.8613 56.128 22.648C55.488 22.4347 54.6133 22.2 53.504 21.944C51.7973 21.5387 50.4 21.1333 49.312 20.728C48.224 20.3227 47.2853 19.672 46.496 18.776C45.728 17.88 45.344 16.6853 45.344 15.192C45.344 13.8907 45.696 12.7173 46.4 11.672C47.104 10.6053 48.16 9.76267 49.568 9.144C50.9973 8.52533 52.736 8.216 54.784 8.216C56.2133 8.216 57.6107 8.38667 58.976 8.728C60.3413 9.06933 61.536 9.56 62.56 10.2L60.96 14.136C58.8907 12.9627 56.8213 12.376 54.752 12.376C53.3013 12.376 52.224 12.6107 51.52 13.08C50.8373 13.5493 50.496 14.168 50.496 14.936C50.496 15.704 50.8907 16.28 51.68 16.664C52.4907 17.0267 53.7173 17.3893 55.36 17.752C57.0667 18.1573 58.464 18.5627 59.552 18.968C60.64 19.3733 61.568 20.0133 62.336 20.888C63.1253 21.7627 63.52 22.9467 63.52 24.44C63.52 25.72 63.1573 26.8933 62.432 27.96C61.728 29.0053 60.6613 29.8373 59.232 30.456C57.8027 31.0747 56.064 31.384 54.016 31.384ZM66.7103 13.784H71.7023V31H66.7103V13.784ZM69.2063 11.384C68.2889 11.384 67.5423 11.1173 66.9663 10.584C66.3903 10.0507 66.1023 9.38933 66.1023 8.6C66.1023 7.81067 66.3903 7.14933 66.9663 6.616C67.5423 6.08267 68.2889 5.816 69.2063 5.816C70.1236 5.816 70.8703 6.072 71.4463 6.584C72.0223 7.096 72.3103 7.736 72.3103 8.504C72.3103 9.336 72.0223 10.0293 71.4463 10.584C70.8703 11.1173 70.1236 11.384 69.2063 11.384ZM87.4393 30.168C86.9486 30.5307 86.3406 30.808 85.6153 31C84.9113 31.1707 84.1646 31.256 83.3753 31.256C81.3273 31.256 79.7379 30.7333 78.6073 29.688C77.4979 28.6427 76.9433 27.1067 76.9433 25.08V18.008H74.2873V14.168H76.9433V9.976H81.9353V14.168H86.2233V18.008H81.9353V25.016C81.9353 25.7413 82.1166 26.3067 82.4792 26.712C82.8633 27.096 83.3966 27.288 84.0793 27.288C84.8686 27.288 85.5406 27.0747 86.0953 26.648L87.4393 30.168ZM106.574 22.456C106.574 22.52 106.542 22.968 106.478 23.8H93.4543C93.6889 24.8667 94.2436 25.7093 95.1183 26.328C95.9929 26.9467 97.0809 27.256 98.3823 27.256C99.2783 27.256 100.068 27.128 100.75 26.872C101.454 26.5947 102.105 26.168 102.702 25.592L105.358 28.472C103.737 30.328 101.369 31.256 98.2543 31.256C96.3129 31.256 94.5956 30.8827 93.1023 30.136C91.6089 29.368 90.4569 28.312 89.6463 26.968C88.8356 25.624 88.4303 24.0987 88.4303 22.392C88.4303 20.7067 88.8249 19.192 89.6143 17.848C90.4249 16.4827 91.5236 15.4267 92.9103 14.68C94.3183 13.912 95.8863 13.528 97.6143 13.528C99.2996 13.528 100.825 13.8907 102.19 14.616C103.556 15.3413 104.622 16.3867 105.39 17.752C106.18 19.096 106.574 20.664 106.574 22.456ZM97.6463 17.304C96.5156 17.304 95.5663 17.624 94.7983 18.264C94.0303 18.904 93.5609 19.7787 93.3903 20.888H101.87C101.7 19.8 101.23 18.936 100.462 18.296C99.6943 17.6347 98.7556 17.304 97.6463 17.304ZM129.424 13.528C131.558 13.528 133.275 14.168 134.576 15.448C135.899 16.728 136.56 18.6267 136.56 21.144V31H131.568V21.912C131.568 20.5467 131.27 19.5333 130.672 18.872C130.075 18.1893 129.211 17.848 128.08 17.848C126.822 17.848 125.819 18.2427 125.072 19.032C124.326 19.8 123.952 20.952 123.952 22.488V31H118.96V13.784H123.728V15.8C124.39 15.0747 125.211 14.52 126.192 14.136C127.174 13.7307 128.251 13.528 129.424 13.528ZM148.029 13.528C150.696 13.528 152.744 14.168 154.173 15.448C155.603 16.7067 156.317 18.616 156.317 21.176V31H151.645V28.856C150.707 30.456 148.957 31.256 146.397 31.256C145.075 31.256 143.923 31.032 142.941 30.584C141.981 30.136 141.245 29.5173 140.733 28.728C140.221 27.9387 139.965 27.0427 139.965 26.04C139.965 24.44 140.563 23.1813 141.757 22.264C142.973 21.3467 144.84 20.888 147.357 20.888H151.325C151.325 19.8 150.995 18.968 150.333 18.392C149.672 17.7947 148.68 17.496 147.357 17.496C146.44 17.496 145.533 17.6453 144.637 17.944C143.763 18.2213 143.016 18.6053 142.397 19.096L140.605 15.608C141.544 14.9467 142.664 14.4347 143.965 14.072C145.288 13.7093 146.643 13.528 148.029 13.528ZM147.645 27.896C148.499 27.896 149.256 27.704 149.917 27.32C150.579 26.9147 151.048 26.328 151.325 25.56V23.8H147.901C145.853 23.8 144.829 24.472 144.829 25.816C144.829 26.456 145.075 26.968 145.565 27.352C146.077 27.7147 146.771 27.896 147.645 27.896ZM182.883 13.528C185.038 13.528 186.745 14.168 188.003 15.448C189.283 16.7067 189.923 18.6053 189.923 21.144V31H184.931V21.912C184.931 20.5467 184.643 19.5333 184.067 18.872C183.513 18.1893 182.713 17.848 181.667 17.848C180.494 17.848 179.566 18.232 178.883 19C178.201 19.7467 177.859 20.8667 177.859 22.36V31H172.867V21.912C172.867 19.2027 171.779 17.848 169.603 17.848C168.451 17.848 167.534 18.232 166.851 19C166.169 19.7467 165.827 20.8667 165.827 22.36V31H160.835V13.784H165.603V15.768C166.243 15.0427 167.022 14.488 167.939 14.104C168.878 13.72 169.902 13.528 171.011 13.528C172.227 13.528 173.326 13.7733 174.307 14.264C175.289 14.7333 176.078 15.4267 176.675 16.344C177.379 15.448 178.265 14.7547 179.331 14.264C180.419 13.7733 181.603 13.528 182.883 13.528ZM211.449 22.456C211.449 22.52 211.417 22.968 211.353 23.8H198.329C198.564 24.8667 199.119 25.7093 199.993 26.328C200.868 26.9467 201.956 27.256 203.257 27.256C204.153 27.256 204.943 27.128 205.625 26.872C206.329 26.5947 206.98 26.168 207.577 25.592L210.233 28.472C208.612 30.328 206.244 31.256 203.129 31.256C201.188 31.256 199.471 30.8827 197.977 30.136C196.484 29.368 195.332 28.312 194.521 26.968C193.711 25.624 193.305 24.0987 193.305 22.392C193.305 20.7067 193.7 19.192 194.489 17.848C195.3 16.4827 196.399 15.4267 197.785 14.68C199.193 13.912 200.761 13.528 202.489 13.528C204.175 13.528 205.7 13.8907 207.065 14.616C208.431 15.3413 209.497 16.3867 210.265 17.752C211.055 19.096 211.449 20.664 211.449 22.456ZM202.521 17.304C201.391 17.304 200.441 17.624 199.673 18.264C198.905 18.904 198.436 19.7787 198.265 20.888H206.745C206.575 19.8 206.105 18.936 205.337 18.296C204.569 17.6347 203.631 17.304 202.521 17.304Z" fill="black"/>
</svg>
