<svg width="690" height="428" viewBox="0 0 690 428" fill="none" xmlns="http://www.w3.org/2000/svg">
<g clip-path="url(#clip0_3_1454)">
<path d="M669.5 414.6C669.5 414.7 527.1 414.9 351.5 414.9C175.8 414.9 33.5 414.8 33.5 414.6C33.5 414.4 175.9 414.3 351.5 414.3C527.1 414.3 669.5 414.5 669.5 414.6Z" fill="#263238"/>
<path d="M54.0999 427L79.0999 411.5L80.1999 407.7L51.3999 427C51.3999 426.9 52.7999 427.8 54.0999 427Z" fill="#263238"/>
<path d="M128.5 415L128.6 411.8L166.6 412.8C166.6 412.8 167.9 413.3 168.1 414.9L128.5 415Z" fill="#263238"/>
<path d="M229.5 314.7H209.2V395.8H229.5V314.7Z" fill="#E0E0E0"/>
<path d="M259.3 332.4H239V395.8H259.3V332.4Z" fill="#E0E0E0"/>
<path d="M289.6 346.8H269.3V395.7H289.6V346.8Z" fill="#E0E0E0"/>
<path d="M317.7 366.7H297.4V395.7H317.7V366.7Z" fill="#E0E0E0"/>
<path d="M570.5 83.3L629.9 86.3C628.3 118.9 600.1 144.4 567.5 142.7C534.9 141.1 509.4 112.9 511.1 80.3C512.7 47.7 540.9 22.2 573.5 23.9C578.7 24.2 583.8 25.1 588.8 26.7L570.5 83.3Z" fill="#F5F5F5"/>
<path d="M601 29.4L584.9 72.6L630.4 73.3C630.4 73.4 629.1 47 601 29.4Z" fill="#E0E0E0"/>
<path d="M54.7001 250.6V206.7C78.8 206.7 98.6 226.5 98.6 250.6C98.6 274.7 78.8 294.5 54.7001 294.5C31 294.5 11.3 275.3 10.8 251.6L54.7001 250.6Z" fill="#E0E0E0"/>
<path d="M43.9 238.8L0 239.8C0 228.4 4.5 216.4 12.5 208.2C20.5 200 31.9 195.2 43.3 194.9L43.9 238.8Z" fill="#F5F5F5"/>
<path d="M647.5 135.3L654 124L660.6 112.7L667.1 124L673.6 135.3H664.6V179H656.6L656.5 135.3H647.5Z" fill="#E0E0E0"/>
<path d="M672.3 97.4L676.4 90.4L680.4 83.3L684.5 90.3L688.5 97.3L682.9 97.4V124.4H678L677.9 97.4H672.3Z" fill="#F5F5F5"/>
<path d="M580.4 300C575.1 296.7 569.1 294.6 562.9 294C560 293.7 556.9 293.8 554.6 295.5C554.1 295.9 553.6 296.4 553.7 297C553.8 297.4 554.2 297.8 554.5 298C561.7 303.4 572.5 304.1 580.4 300Z" fill="#E8505B"/>
<path d="M580 299.5C576 296.4 572.1 293.3 568.7 289.6C565.3 285.9 562.6 281.4 561.6 276.5C561.3 275 561.2 273.3 562.2 272.1C571.1 279.1 578.2 288.2 580 299.5Z" fill="#E8505B"/>
<path d="M580.3 299.9C579.6 295 579.4 289.9 580.5 285.1C581.6 280.3 584.3 275.6 588.4 272.9C590 276.5 589.3 280.7 588.2 284.5C586.5 290.4 583.8 296 580.4 301" fill="#E8505B"/>
<path d="M589.2 315.7C583.8 316.4 579.2 319.2 575.2 322.8C571.2 326.4 568.3 331.3 567.2 336.6C572.5 336.3 576.9 332.6 580.2 328.4C583.3 324.3 585.5 319.7 589.2 315.7Z" fill="#E8505B"/>
<path d="M591.1 318.3C586.8 307.7 588.3 294.8 595.1 285.6C598.1 296.4 597 308.6 591.1 318.3Z" fill="#E8505B"/>
<path d="M602.7 332.2C597.8 331.9 592.9 333.1 588.7 335.5C584.5 337.9 581 341.6 578.8 346C578.5 346.6 578.2 347.3 578.6 347.9C578.9 348.4 579.6 348.4 580.2 348.4C584.9 348.1 589.1 345.3 592.5 342C596 338.8 599 335 602.8 332.2" fill="#E8505B"/>
<path d="M602.4 331.4C599.9 323.4 599.7 314.6 602 306.5C602.9 303.3 604.4 299.9 607.3 298.4C607.6 298.3 607.8 298.2 608.1 298.3C608.4 298.4 608.5 298.7 608.6 298.9C609.7 301.1 610 303.6 609.9 306C609.8 308.4 609.3 310.8 608.8 313.2C607.9 317.6 607.4 322.4 604.9 326.2C604.3 327.1 603.8 328.1 603.4 329.1C602.9 330.1 602.9 330.4 602.5 331.2" fill="#E8505B"/>
<path d="M633.3 336C631 327.3 633.4 316.7 638.9 309.6C639.3 309.1 639.8 308.5 640.5 308.6C641.5 308.7 641.8 310 641.7 311.1C641.3 319.9 638.4 328.7 633.3 336Z" fill="#E8505B"/>
<path d="M636.1 337.9C646.7 340.7 658.8 338 667.6 331.5C662.4 328.9 656.2 328.1 650.5 329.4C644.8 330.7 639.6 333.3 636.1 337.9Z" fill="#E8505B"/>
<path d="M638.4 332.1C644.3 322.4 655.7 316.1 667 315.6C665.7 320.2 661.9 323.8 657.6 325.9C653.3 328.1 648.6 329 643.9 329.9C642.1 330.3 639.6 330.7 638.4 332.1Z" fill="#E8505B"/>
<path d="M633.9 304C635.5 298.5 637.1 293 637.6 287.2C638 281.5 637.2 275.5 634.3 270.6C628.8 281.3 628.2 293.8 633.8 304.5" fill="#E8505B"/>
<path d="M652.5 294.6C659 282.8 672.2 273.4 685.5 272.1C680.4 284.9 666.3 294.8 652.5 294.6Z" fill="#E8505B"/>
<path d="M648.4 296.9C658.1 298.4 666.3 304.5 675.3 308.3C677.2 309.1 679.3 309.7 681.4 309.5C683.5 309.2 685.5 307.8 686 305.8C686.4 304.1 685.6 302.3 684.4 301.1C683.2 299.9 681.6 299.1 680 298.4C670.2 294.3 659.6 294.2 649.3 296.7" fill="#E8505B"/>
<path d="M642.8 303.6C645 304.2 645.7 305.4 647.5 306.8C653.4 311.8 660.4 315.4 667.9 317.3C668.7 317.5 669.7 317.6 670.1 316.9C670.4 316.3 670 315.5 669.6 315C666.5 311.1 662 308.4 657.3 306.6C652.6 304.8 648.5 302.7 642.9 303.2" fill="#E8505B"/>
<path d="M636.5 262.7C644.3 270 655.4 273.8 666.1 272.8C666.6 272.8 667.1 272.7 667.4 272.3C668.1 271.5 667.3 270.2 666.4 269.6C657.8 262.8 647.2 260 636.5 262.7Z" fill="#E8505B"/>
<path d="M644 260C654.4 252.2 668.6 249.9 680.9 253.9C676.2 258.5 669.8 260.9 663.3 261.6C656.8 262.3 650.3 261.6 644 260Z" fill="#E8505B"/>
<path d="M641 241.2C640.1 232.5 640.7 225.7 640.1 216.9C640.1 216.2 639.9 215.4 639.3 215.1C638.4 214.8 637.6 215.9 637.3 216.8C634.7 224.8 636.1 234.1 641 241" fill="#E8505B"/>
<path d="M640.4 242.2C646.3 238.6 650.7 233.8 654.8 228.2C657.6 224.3 660 219.7 659.4 214.9C655.4 214.8 651.6 217 649 220.1C646.4 223.1 644.9 226.9 643.7 230.7C642.6 234.5 641.8 238.4 640.4 242.2Z" fill="#E8505B"/>
<path d="M654.5 238.3C667.4 233.5 679.5 226.4 689.9 217.4C685.7 215.7 680.8 216.7 676.6 218.4C666.9 222.3 659 228.9 654.3 238.2" fill="#E8505B"/>
<path d="M644.4 246.9C650.9 247.6 657.6 248.1 664.1 247C670.5 245.9 676.5 243.4 682.5 240.9C683 240.7 683.5 240.4 683.7 240C683.9 239.5 683.7 238.8 683.3 238.4C682.9 238 682.3 237.8 681.7 237.7C675.2 235.9 668.2 236.7 661.9 238.9C655.4 241 650.2 243.6 644.4 246.9Z" fill="#E8505B"/>
<path d="M607.1 263C602.6 254 602.9 243.5 606.8 234.2C609.5 238.3 609.8 243.6 609.3 248.5C608.8 253.4 607.3 258.5 607.2 263.4" fill="#E8505B"/>
<path d="M589.3 254.1C578.2 253.9 567 258.6 559.5 266.8C565.1 267.7 570.8 266.2 575.8 263.8C580.9 261.3 585.3 257.9 589.8 254.4" fill="#E8505B"/>
<path d="M577.3 250C571.9 249.6 566.6 248.9 561.4 250.5C556.2 252.1 551.4 255.7 549.3 260.8C554.4 261.4 559.6 260.1 564.2 258C568.8 255.9 573.1 253 577.3 250Z" fill="#E8505B"/>
<path d="M595 250.2C590.1 247 585.1 243.7 579.4 242.4C573.7 241.1 567.1 242.1 563.1 246.4C567.7 249.1 573.3 249.4 578.7 249.4C584.1 249.4 590.6 249.3 595.7 251.1" fill="#E8505B"/>
<path d="M595 250.5C586.6 242.3 583.4 227.5 586.8 216.3C593.4 226.3 596.4 238.6 595 250.5Z" fill="#E8505B"/>
<path d="M618.1 227.2C619.7 223.5 620.8 219.7 622.2 215.9C623.6 212.2 625.4 208.5 628.1 205.5C630.8 202.5 634.5 200.3 638.5 200.1C636 211.4 628.5 221.5 618.4 227.2" fill="#E8505B"/>
<path d="M613.9 232C611.3 228.4 608.3 223.5 604.7 220.8C601.1 218.1 596.5 216.5 592.2 217.5C596.6 225.5 604.9 231 613.9 232Z" fill="#E8505B"/>
<path d="M614.7 227.5C613 223.1 611.3 218.7 610.6 214.1C609.9 209.5 610.3 204.5 612.7 200.5C617.3 209.2 618.8 218.5 615 227.6" fill="#E8505B"/>
<path d="M618.1 200.5C620.7 191.9 628.6 185.5 637.1 182.6C638.2 182.2 639.3 181.9 640.4 182.1C641.5 182.3 642.6 183 642.9 184.2C643.2 185.7 642 187 640.9 188C634.2 193.6 626.4 197.9 618.1 200.5Z" fill="#E8505B"/>
<path d="M618.2 193.5C618.5 187.9 618.9 182.3 620.7 177C622.5 171.7 626 166.8 631.1 164.5C632 170.1 629.5 175.7 626.5 180.5C623.5 185.3 619.9 189.9 618.1 195.3" fill="#E8505B"/>
<path d="M618.1 197.3C615.9 191 615.7 183 612 177.6C609.4 173.8 605.2 171.2 602.9 167.1C601.4 170.9 601.9 175.2 603.4 179C605 182.8 607.6 186 610.4 189C613.1 191.9 615.5 194.1 618.1 197.3Z" fill="#E8505B"/>
<path d="M618.1 382.2C617.9 382.2 617.8 340.3 617.8 288.7C617.8 237 617.9 195.2 618.1 195.2C618.3 195.2 618.4 237.1 618.4 288.7C618.4 340.3 618.3 382.2 618.1 382.2Z" fill="#263238"/>
<path d="M654.7 256.7C654.7 256.7 654.2 256.9 653.1 257.3C652 257.7 650.5 258.2 648.8 258.8C645.1 260 640.1 261.8 634.7 264.1C629.3 266.4 624.2 268.3 621.3 270.8C619.9 272 619 273.4 618.6 274.4C618.2 275.4 618.1 276 618.1 276C618.1 276 618.1 275.8 618.1 275.6C618.1 275.3 618.2 274.9 618.4 274.4C618.8 273.4 619.6 271.9 621 270.6C622.5 269.3 624.5 268.1 626.8 267C629.1 265.9 631.7 264.8 634.4 263.7C639.9 261.5 644.9 259.7 648.6 258.6C650.4 258 652 257.6 653 257.3C654.1 256.8 654.7 256.7 654.7 256.7Z" fill="#263238"/>
<path d="M666.7 227.2C666.7 227.2 666.6 227.4 666.3 227.7C665.9 228 665.5 228.5 665 229C663.8 230.1 662.1 231.7 660 233.6C655.7 237.5 649.8 242.7 643.3 248.5C636.8 254.3 631.1 259.8 627.2 264C625.2 266.1 623.7 267.8 622.7 269C622.2 269.6 621.8 270 621.5 270.4C621.2 270.7 621.1 270.9 621 270.9C621 270.9 621.1 270.7 621.4 270.4C621.7 270.1 622 269.6 622.5 268.9C623.5 267.6 625 265.9 626.9 263.7C630.7 259.4 636.3 253.8 642.9 248C649.4 242.2 655.4 237 659.7 233.3C661.8 231.5 663.6 230 664.8 228.9C665.4 228.4 665.8 228 666.2 227.7C666.5 227.4 666.7 227.2 666.7 227.2Z" fill="#263238"/>
<path d="M636.2 254.3C636 254.2 637.4 251.1 638.7 247.1C640.1 243.1 640.7 239.8 640.9 239.8C641.1 239.8 640.7 243.3 639.3 247.3C638.6 249.3 637.9 251.1 637.3 252.3C636.7 253.6 636.2 254.3 636.2 254.3Z" fill="#263238"/>
<path d="M618.1 279.7C618.1 279.7 617.7 279.3 617.1 278.5C616.4 277.6 615.6 276.5 614.5 275.2C612.3 272.4 609.3 268.5 606 264.3C602.6 260.1 599.6 256.3 597.3 253.6C596.2 252.3 595.4 251.2 594.7 250.3C594.1 249.5 593.8 249.1 593.8 249.1C593.8 249.1 594.2 249.5 594.9 250.2C595.6 250.9 596.5 252 597.7 253.3C600 256 603.2 259.7 606.5 263.9C609.9 268.1 612.8 272 614.9 274.9C615.9 276.3 616.8 277.5 617.3 278.3C617.9 279.2 618.2 279.6 618.1 279.7Z" fill="#263238"/>
<path d="M610.1 269.4C610 269.5 607.9 267 606.7 263.1C605.9 260.4 605.8 257.9 605.9 256.8H606.2C606.1 257.3 606 257.5 605.9 257.5C605.9 257.5 605.8 257.2 605.9 256.7H606.2C606.3 257.8 606.5 260.2 607.3 262.9C608.4 266.6 610.3 269.3 610.1 269.4Z" fill="#263238"/>
<path d="M599.8 256.3C599.7 256.4 599 255.5 597.5 254.9C595.9 254.3 593.6 254.2 591 254.4C588.4 254.6 586.1 255.1 584.4 255.5C582.7 255.9 581.7 256.2 581.7 256.1C581.7 256 582.6 255.6 584.3 255C585.9 254.5 588.3 253.9 590.9 253.7C593.5 253.5 596 253.7 597.6 254.4C599.2 255.3 599.8 256.3 599.8 256.3Z" fill="#263238"/>
<path d="M597.3 253.2C597.3 253.3 595.9 252.7 593.7 251.9C591.5 251.1 588.3 250.3 584.7 250.1C581.1 249.8 577.9 250.1 575.5 250.6C573.2 251 571.8 251.4 571.7 251.3C571.7 251.3 572 251.1 572.7 250.9C573.3 250.7 574.3 250.4 575.4 250.1C577.7 249.6 581 249.2 584.7 249.5C588.3 249.8 591.6 250.7 593.8 251.5C594.9 251.9 595.8 252.3 596.4 252.7C597 252.9 597.3 253.1 597.3 253.2Z" fill="#263238"/>
<path d="M618.1 239.8C617.9 239.8 616.8 235.8 615.5 230.7C614.2 225.6 613.3 221.5 613.5 221.4C613.7 221.4 614.8 225.4 616.1 230.5C617.3 235.6 618.2 239.8 618.1 239.8Z" fill="#263238"/>
<path d="M618.2 239.8C618 239.9 617.3 237.1 615.3 234.3C613.4 231.5 610.9 230 611 229.9C611 229.8 611.7 230.1 612.7 230.8C613.6 231.5 614.8 232.6 615.8 234C617.9 236.9 618.4 239.8 618.2 239.8Z" fill="#263238"/>
<path d="M618.1 359.9C618 359.9 617.9 358.9 617.4 357.1C616.9 355.3 616.1 352.8 614.6 349.8C611.7 343.9 606.4 336.4 599.7 328.9C596.4 325.1 593.2 321.5 590.4 318.1C587.7 314.7 585.4 311.4 583.8 308.5C582.2 305.6 581.1 303.2 580.5 301.4C580.2 300.5 580 299.8 579.8 299.4C579.7 298.9 579.6 298.7 579.6 298.7C579.7 298.7 580 299.7 580.6 301.4C581.3 303.1 582.4 305.5 584.1 308.4C585.8 311.2 588 314.4 590.8 317.8C593.5 321.2 596.8 324.7 600.1 328.5C606.8 336 612.1 343.6 614.9 349.6C616.3 352.6 617.1 355.2 617.5 357C617.7 357.9 617.8 358.6 617.9 359.1C618.1 359.6 618.1 359.9 618.1 359.9Z" fill="#263238"/>
<path d="M651.2 322.5C651.2 322.5 650.6 322.9 649.5 323.5C648.4 324.1 646.8 325.1 645 326.5C643.2 327.9 641.2 329.7 639.1 331.9C637 334.1 634.9 336.6 632.7 339.4C628.3 344.9 624.3 349.7 621.8 353.6C620.6 355.5 619.7 357.1 619.1 358.3C618.5 359.4 618.2 360.1 618.1 360C618.1 360 618.1 359.8 618.3 359.5C618.4 359.2 618.6 358.7 618.9 358.1C619.4 356.9 620.3 355.3 621.5 353.3C623.9 349.3 627.9 344.4 632.3 339C634.5 336.3 636.6 333.7 638.8 331.5C640.9 329.3 643 327.5 644.9 326.2C646.8 324.8 648.4 323.9 649.5 323.4C650.1 323.1 650.5 322.9 650.9 322.8C651 322.5 651.2 322.5 651.2 322.5Z" fill="#263238"/>
<path d="M651.8 334.6C651.8 334.7 650.4 334.9 648.1 335.1C645.8 335.4 642.7 335.8 639.4 336.8C636.1 337.9 633.4 339.5 631.6 340.9C629.8 342.3 629 343.4 628.9 343.4C628.9 343.4 629 343.1 629.4 342.6C629.8 342.1 630.4 341.4 631.3 340.6C633 339.1 635.8 337.4 639.2 336.3C642.6 335.2 645.8 334.9 648 334.7C650.4 334.6 651.8 334.5 651.8 334.6Z" fill="#263238"/>
<path d="M630 342.1C629.8 342 631.5 339.5 632.7 336.1C633.9 332.7 634.2 329.7 634.4 329.7C634.5 329.7 634.5 330.5 634.3 331.7C634.2 332.9 633.9 334.6 633.2 336.3C632.6 338.1 631.7 339.5 631.1 340.5C630.6 341.5 630.1 342.1 630 342.1Z" fill="#263238"/>
<path d="M661.9 290C661.9 290 661.7 290.1 661.3 290.3C660.8 290.5 660.3 290.8 659.6 291.1C658.8 291.4 657.9 291.8 656.9 292.4C655.9 292.9 654.7 293.5 653.4 294.2C652.8 294.6 652.1 294.9 651.4 295.3C650.7 295.7 650 296.2 649.3 296.6C647.8 297.5 646.4 298.6 644.8 299.7C641.7 302 638.5 304.8 635.4 308C632.3 311.2 629.7 314.6 627.4 317.7C626.3 319.3 625.3 320.8 624.4 322.3C624 323 623.5 323.7 623.1 324.5C622.7 325.2 622.4 325.9 622 326.5C621.3 327.8 620.8 329 620.3 330.1C619.8 331.1 619.4 332.1 619.1 332.8C618.8 333.5 618.6 334.1 618.4 334.5C618.2 334.9 618.1 335.1 618.1 335.1C618.1 335.1 618.1 334.9 618.3 334.5C618.5 334 618.7 333.4 618.9 332.7C619.2 331.9 619.5 331 620 329.9C620.5 328.8 621 327.6 621.6 326.3C621.9 325.6 622.3 324.9 622.6 324.2C623 323.5 623.4 322.8 623.8 322C624.6 320.5 625.7 318.9 626.7 317.3C628.9 314.1 631.6 310.7 634.7 307.5C637.8 304.3 641.1 301.5 644.2 299.2C645.8 298.1 647.3 297 648.8 296.1C649.5 295.6 650.2 295.2 650.9 294.8C651.6 294.4 652.3 294 652.9 293.7C654.2 293 655.4 292.4 656.5 291.9C657.6 291.4 658.5 291 659.3 290.7C660 290.4 660.6 290.2 661.1 290C661.7 290 661.9 289.9 661.9 290Z" fill="#263238"/>
<path d="M635.7 307.5C635.6 307.5 635.9 306.5 637.1 305.4C638.3 304.3 640.4 303.2 642.9 303.2C645.4 303.1 647.5 303.8 649 304.4C650.5 305 651.3 305.5 651.3 305.5C651.3 305.6 650.3 305.3 648.9 304.8C647.4 304.3 645.3 303.7 643 303.8C640.7 303.9 638.6 304.8 637.5 305.7C636.2 306.6 635.8 307.6 635.7 307.5Z" fill="#263238"/>
<path d="M631.8 311.5C631.6 311.4 633.1 309.2 633.4 306.1C633.8 303 632.8 300.6 633 300.5C633.1 300.5 633.4 301 633.7 302.1C634 303.1 634.2 304.6 634 306.2C633.8 307.8 633.3 309.2 632.8 310.1C632.3 311.1 631.9 311.6 631.8 311.5Z" fill="#263238"/>
<path d="M589.2 365.9C590.1 381.9 594.9 398.2 602.3 414.6H634.6C641.7 398.3 646.2 382.1 647 365.9H589.2Z" fill="#455A64"/>
<path d="M641.7 391.8C641.7 392 631.1 392.1 618 392.1C604.9 392.1 594.3 392 594.3 391.8C594.3 391.6 604.9 391.5 618 391.5C631.1 391.5 641.7 391.6 641.7 391.8Z" fill="#FAFAFA"/>
<path d="M641 397.6C641 397.8 631 397.9 618.8 397.9C606.5 397.9 596.6 397.8 596.6 397.6C596.6 397.4 606.6 397.3 618.8 397.3C631 397.3 641 397.4 641 397.6Z" fill="#FAFAFA"/>
<path d="M555.3 390H401C398.8 390 397 388.2 397 386V319C397 316.8 398.8 315 401 315H555.4C557.6 315 559.4 316.8 559.4 319V386C559.4 388.2 557.6 390 555.3 390Z" fill="#263238"/>
<path d="M408.4 366.8V369.2H408.2V367H407.6V366.8H408.4Z" fill="#455A64"/>
<path d="M408.9 368C408.9 367.2 409.3 366.8 409.8 366.8C410.3 366.8 410.7 367.3 410.7 368C410.7 368.8 410.3 369.2 409.8 369.2C409.3 369.2 408.9 368.7 408.9 368ZM410.6 368C410.6 367.4 410.3 367 409.9 367C409.5 367 409.2 367.3 409.2 368C409.2 368.6 409.5 369 409.9 369C410.3 369 410.6 368.6 410.6 368Z" fill="#455A64"/>
<path d="M409.3 354.2V354.4H407.6V354.2L408.6 353.2C408.9 352.9 408.9 352.8 408.9 352.6C408.9 352.3 408.7 352.2 408.3 352.2C408 352.2 407.8 352.3 407.7 352.5L407.5 352.4C407.7 352.2 408 352.1 408.3 352.1C408.8 352.1 409.1 352.3 409.1 352.7C409.1 352.9 409 353.1 408.7 353.4L407.9 354.2H409.3Z" fill="#455A64"/>
<path d="M409.6 353.2C409.6 352.4 410 352 410.5 352C411 352 411.4 352.5 411.4 353.2C411.4 354 411 354.4 410.5 354.4C410 354.4 409.6 354 409.6 353.2ZM411.3 353.2C411.3 352.6 411 352.2 410.6 352.2C410.2 352.2 409.9 352.5 409.9 353.2C409.9 353.8 410.2 354.2 410.6 354.2C411 354.2 411.3 353.9 411.3 353.2Z" fill="#455A64"/>
<path d="M409.3 339C409.3 339.4 409 339.7 408.4 339.7C408.1 339.7 407.7 339.6 407.5 339.4L407.6 339.2C407.8 339.4 408 339.5 408.3 339.5C408.7 339.5 408.9 339.3 408.9 339C408.9 338.7 408.7 338.5 408.3 338.5H408.1V338.3L408.8 337.5H407.6V337.3H409.1V337.5L408.4 338.3C409 338.4 409.3 338.6 409.3 339Z" fill="#455A64"/>
<path d="M409.6 338.5C409.6 337.7 410 337.3 410.5 337.3C411 337.3 411.4 337.8 411.4 338.5C411.4 339.3 411 339.7 410.5 339.7C410 339.7 409.6 339.3 409.6 338.5ZM411.3 338.5C411.3 337.9 411 337.5 410.6 337.5C410.2 337.5 409.9 337.8 409.9 338.5C409.9 339.1 410.2 339.5 410.6 339.5C411 339.5 411.3 339.1 411.3 338.5Z" fill="#455A64"/>
<path d="M418.8 375.8C418.8 375 419.2 374.6 419.7 374.6C420.2 374.6 420.6 375.1 420.6 375.8C420.6 376.6 420.2 377 419.7 377C419.2 377 418.8 376.5 418.8 375.8ZM420.5 375.8C420.5 375.2 420.2 374.8 419.8 374.8C419.4 374.8 419.1 375.1 419.1 375.8C419.1 376.4 419.4 376.8 419.8 376.8C420.2 376.7 420.5 376.4 420.5 375.8Z" fill="#455A64"/>
<path d="M436.4 374.6V377H436.2V374.8H435.6V374.6H436.4Z" fill="#455A64"/>
<path d="M454.9 376.7V376.9H453.2V376.7L454.2 375.7C454.5 375.4 454.5 375.3 454.5 375.1C454.5 374.8 454.3 374.7 453.9 374.7C453.6 374.7 453.4 374.8 453.3 375L453.1 374.9C453.3 374.7 453.6 374.6 453.9 374.6C454.4 374.6 454.7 374.8 454.7 375.2C454.7 375.4 454.6 375.6 454.3 375.9L453.5 376.7H454.9Z" fill="#455A64"/>
<path d="M472.4 376.3C472.4 376.7 472.1 377 471.5 377C471.2 377 470.8 376.9 470.6 376.7L470.7 376.5C470.9 376.7 471.1 376.8 471.4 376.8C471.8 376.8 472 376.6 472 376.3C472 376 471.8 375.8 471.4 375.8H471.2V375.6L471.9 374.8H470.7V374.6H472.2V374.8L471.5 375.6C472.1 375.6 472.4 375.9 472.4 376.3Z" fill="#455A64"/>
<path d="M490.3 376.3H489.8V376.9H489.6V376.3H488.3V376.1L489.6 374.5H489.9L488.7 376H489.7V375.5H489.9V376H490.4V376.3H490.3Z" fill="#455A64"/>
<path d="M507.5 376.2C507.5 376.6 507.2 376.9 506.6 376.9C506.3 376.9 505.9 376.8 505.7 376.6L505.8 376.4C506 376.6 506.2 376.7 506.5 376.7C506.9 376.7 507.1 376.5 507.1 376.2C507.1 375.9 506.9 375.7 506.3 375.7H505.8L505.9 374.5H507.2V374.7H506.1L506 375.5H506.3C507.2 375.5 507.5 375.8 507.5 376.2Z" fill="#455A64"/>
<path d="M525.2 376.2C525.2 376.6 524.9 376.9 524.4 376.9C523.8 376.9 523.4 376.5 523.4 375.7C523.4 374.9 523.8 374.5 524.5 374.5C524.7 374.5 524.9 374.5 525.1 374.6L525 374.8C524.9 374.7 524.7 374.7 524.5 374.7C524 374.7 523.7 375 523.7 375.7C523.7 375.8 523.7 375.8 523.7 375.9C523.8 375.6 524.1 375.5 524.4 375.5C524.9 375.5 525.2 375.8 525.2 376.2ZM524.9 376.2C524.9 375.9 524.7 375.7 524.3 375.7C523.9 375.7 523.7 375.9 523.7 376.2C523.7 376.5 523.9 376.7 524.3 376.7C524.7 376.8 524.9 376.6 524.9 376.2Z" fill="#455A64"/>
<path d="M542.6 374.6V374.8L541.6 377H541.3L542.3 374.8H541.1V375.2H540.9V374.5H542.6V374.6Z" fill="#455A64"/>
<path d="M542.7 368.1C542.7 368.2 515.3 368.3 481.4 368.3C447.5 368.3 420.1 368.2 420.1 368.1C420.1 368 447.5 367.9 481.4 367.9C515.3 367.9 542.7 368 542.7 368.1Z" fill="#455A64"/>
<path d="M542.7 353.3C542.7 353.4 515.3 353.5 481.4 353.5C447.5 353.5 420.1 353.4 420.1 353.3C420.1 353.2 447.5 353.1 481.4 353.1C515.3 353 542.7 353.1 542.7 353.3Z" fill="#455A64"/>
<path d="M542.7 338.5C542.7 338.6 515.3 338.7 481.4 338.7C447.5 338.7 420.1 338.6 420.1 338.5C420.1 338.4 447.5 338.3 481.4 338.3C515.3 338.2 542.7 338.3 542.7 338.5Z" fill="#455A64"/>
<path d="M420.2 367.9C420.2 368.3 419.8 368.7 419.4 368.7C419 368.7 418.6 368.3 418.6 367.9C418.6 367.5 419 367.1 419.4 367.1C419.8 367.1 420.2 367.4 420.2 367.9Z" fill="#455A64"/>
<path d="M437.8 367.9C437.8 368.3 437.4 368.7 437 368.7C436.6 368.7 436.2 368.3 436.2 367.9C436.2 367.5 436.6 367.1 437 367.1C437.4 367.1 437.8 367.4 437.8 367.9Z" fill="#455A64"/>
<path d="M455.4 367.9C455.4 368.3 455 368.7 454.6 368.7C454.2 368.7 453.8 368.3 453.8 367.9C453.8 367.5 454.2 367.1 454.6 367.1C455.1 367.1 455.4 367.4 455.4 367.9Z" fill="#455A64"/>
<path d="M473 367.9C473 368.3 472.6 368.7 472.2 368.7C471.8 368.7 471.4 368.3 471.4 367.9C471.4 367.5 471.8 367.1 472.2 367.1C472.7 367.1 473 367.4 473 367.9Z" fill="#455A64"/>
<path d="M490.7 367.9C490.7 368.3 490.3 368.7 489.9 368.7C489.5 368.7 489.1 368.3 489.1 367.9C489.1 367.5 489.5 367.1 489.9 367.1C490.3 367.1 490.7 367.4 490.7 367.9Z" fill="#455A64"/>
<path d="M525.9 367.9C525.9 368.3 525.5 368.7 525.1 368.7C524.7 368.7 524.3 368.3 524.3 367.9C524.3 367.5 524.7 367.1 525.1 367.1C525.5 367.1 525.9 367.4 525.9 367.9Z" fill="#455A64"/>
<path d="M508.3 367.9C508.3 368.3 507.9 368.7 507.5 368.7C507.1 368.7 506.7 368.3 506.7 367.9C506.7 367.5 507.1 367.1 507.5 367.1C507.9 367.1 508.3 367.4 508.3 367.9Z" fill="#455A64"/>
<path d="M543.5 367.9C543.5 368.3 543.1 368.7 542.7 368.7C542.3 368.7 541.9 368.3 541.9 367.9C541.9 367.5 542.3 367.1 542.7 367.1C543.2 367.1 543.5 367.4 543.5 367.9Z" fill="#455A64"/>
<path d="M428.2 368.1C428.2 368.4 428 368.6 427.7 368.6C427.4 368.6 427.2 368.4 427.2 368.1C427.2 367.8 427.4 367.6 427.7 367.6C428 367.6 428.2 367.8 428.2 368.1Z" fill="#455A64"/>
<path d="M445.9 368.1C445.9 368.4 445.7 368.6 445.4 368.6C445.1 368.6 444.9 368.4 444.9 368.1C444.9 367.8 445.1 367.6 445.4 367.6C445.7 367.6 445.9 367.8 445.9 368.1Z" fill="#455A64"/>
<path d="M463.6 368.1C463.6 368.4 463.4 368.6 463.1 368.6C462.8 368.6 462.6 368.4 462.6 368.1C462.6 367.8 462.8 367.6 463.1 367.6C463.3 367.6 463.6 367.8 463.6 368.1Z" fill="#455A64"/>
<path d="M481.3 368.1C481.3 368.4 481.1 368.6 480.8 368.6C480.5 368.6 480.3 368.4 480.3 368.1C480.3 367.8 480.5 367.6 480.8 367.6C481 367.6 481.3 367.8 481.3 368.1Z" fill="#455A64"/>
<path d="M498.9 368.1C498.9 368.4 498.7 368.6 498.4 368.6C498.1 368.6 497.9 368.4 497.9 368.1C497.9 367.8 498.1 367.6 498.4 367.6C498.7 367.6 498.9 367.8 498.9 368.1Z" fill="#455A64"/>
<path d="M516.6 368.1C516.6 368.4 516.4 368.6 516.1 368.6C515.8 368.6 515.6 368.4 515.6 368.1C515.6 367.8 515.8 367.6 516.1 367.6C516.4 367.6 516.6 367.8 516.6 368.1Z" fill="#455A64"/>
<path d="M534.3 368.1C534.3 368.4 534.1 368.6 533.8 368.6C533.5 368.6 533.3 368.4 533.3 368.1C533.3 367.8 533.5 367.6 533.8 367.6C534.1 367.6 534.3 367.8 534.3 368.1Z" fill="#455A64"/>
<path d="M438.9 361.5C438.9 362.6 438 363.4 437 363.4C435.9 363.4 435.1 362.5 435.1 361.5C435.1 360.4 436 359.6 437 359.6C438.1 359.6 438.9 360.5 438.9 361.5Z" fill="#E8505B"/>
<path d="M454.3 352.5C454.3 353.6 453.4 354.4 452.4 354.4C451.3 354.4 450.5 353.5 450.5 352.5C450.5 351.4 451.4 350.6 452.4 350.6C453.4 350.5 454.3 351.4 454.3 352.5Z" fill="#E8505B"/>
<path d="M473.4 353.3C473.4 354.4 472.5 355.2 471.5 355.2C470.4 355.2 469.6 354.3 469.6 353.3C469.6 352.2 470.5 351.4 471.5 351.4C472.5 351.3 473.4 352.2 473.4 353.3Z" fill="#E8505B"/>
<path d="M492 336.8C492 337.9 491.1 338.7 490.1 338.7C489 338.7 488.2 337.8 488.2 336.8C488.2 335.7 489.1 334.9 490.1 334.9C491.2 334.9 492 335.7 492 336.8Z" fill="#E8505B"/>
<path d="M509.4 347.3C509.4 348.4 508.5 349.2 507.5 349.2C506.4 349.2 505.6 348.3 505.6 347.3C505.6 346.3 506.5 345.4 507.5 345.4C508.6 345.3 509.4 346.2 509.4 347.3Z" fill="#E8505B"/>
<path d="M527 350.1C527 351.2 526.1 352 525.1 352C524.1 352 523.2 351.1 523.2 350.1C523.2 349 524.1 348.2 525.1 348.2C526.1 348.2 527 349 527 350.1Z" fill="#E8505B"/>
<path d="M543.5 361.5C543.5 361.5 543.3 361.5 543 361.5C542.7 361.5 542.3 361.4 541.7 361.3C540.6 361.1 538.8 360.6 537.1 359.1C536.2 358.4 535.5 357.4 534.8 356.2C534.2 355 533.4 353.8 532.4 352.5C531.4 351.3 530.1 350.1 528.4 349.7C527.6 349.5 526.6 349.5 525.8 349.8C524.9 350.1 524.1 350.6 523.4 351.2C521.9 352.5 520.8 354.2 519.3 355.9C518.6 356.7 517.7 357.5 516.7 358C515.6 358.5 514.4 358.6 513.2 358.3C512 358 511.1 357 510.6 355.9C510.1 354.8 509.8 353.6 509.5 352.4C509.2 351.2 509 350 508.4 348.8C508.1 348.2 507.8 347.7 507.3 347.4C506.8 347.1 506.1 347.1 505.5 347.1C504.2 347.2 503 347.5 501.6 347.8C500.9 347.9 500.3 348 499.6 348C498.9 348 498.2 347.9 497.5 347.6C496.8 347.3 496.3 346.8 495.8 346.2C495.4 345.6 495.1 345 494.8 344.3C494.2 343 493.9 341.6 493.4 340.3C493.1 339.7 492.9 339 492.5 338.4C492.1 337.8 491.6 337.4 491 337.1C490.8 337.1 490.7 337 490.5 337H490C489.7 337 489.4 337 489.1 337.2C488.5 337.5 488.1 338.1 487.7 338.7C487 339.9 486.5 341.3 486.1 342.8C485.7 344.2 485.3 345.7 485 347.1C484.4 349.5 483.9 352 483.3 354.3C483 355.5 482.6 356.7 482.2 357.8C481.8 358.9 481.3 360.1 480.4 361C479.9 361.4 479.3 361.8 478.7 361.8C478.1 361.8 477.4 361.6 476.9 361.3C475.8 360.7 475.1 359.7 474.4 358.8C473.1 356.9 472.2 354.7 471.4 352.7C470.6 350.7 469.6 348.7 468 347.3C466.5 345.9 464.2 345.4 462.3 345.9C461.3 346.1 460.4 346.6 459.6 347.1C458.8 347.6 458 348.2 457.2 348.8C455.7 350 454.4 351.4 453.3 352.8C451.4 354.7 449.5 356.3 447.5 357.6C445.5 359 443.5 360.1 441.5 360.8C439.5 361.5 437.5 362 435.7 361.8C433.9 361.6 432.3 361.1 430.8 360.6C428 359.6 425.9 358.5 424.5 357.7C423.8 357.3 423.3 357 422.9 356.8C422.5 356.6 422.4 356.5 422.4 356.5C422.4 356.5 422.6 356.6 422.9 356.8C423.3 357 423.8 357.3 424.5 357.7C425.9 358.4 428 359.5 430.8 360.5C432.2 361 433.8 361.5 435.6 361.6C437.4 361.8 439.4 361.3 441.3 360.6C443.3 359.8 445.2 358.7 447.2 357.4C449.1 356 451.1 354.4 452.9 352.6C454.1 351.2 455.4 349.8 456.9 348.6C457.6 348 458.4 347.4 459.3 346.9C460.2 346.4 461.1 345.9 462.1 345.7C464.1 345.2 466.5 345.7 468.1 347.2C469.8 348.7 470.7 350.7 471.6 352.8C472.4 354.9 473.3 357 474.6 358.8C475.2 359.7 476 360.6 477 361.2C477.5 361.5 478 361.7 478.6 361.7C479.1 361.7 479.6 361.4 480 361.1C480.8 360.3 481.3 359.2 481.7 358.1C482.1 357 482.5 355.8 482.8 354.6C483.4 352.2 483.9 349.8 484.5 347.4C484.8 345.9 485.2 344.5 485.6 343C486 341.6 486.5 340.1 487.3 338.8C487.7 338.2 488.2 337.5 488.9 337.2C489.3 337 489.7 336.9 490.1 337L490.7 337.1C490.9 337.1 491.1 337.2 491.3 337.3C492 337.6 492.6 338.1 493 338.7C493.4 339.3 493.7 340 494 340.7C494.5 342 494.9 343.4 495.4 344.7C495.9 345.9 496.6 347.2 497.8 347.7C499 348.3 500.4 348.1 501.7 347.8C503 347.6 504.3 347.2 505.6 347.1C506.3 347.1 507 347.2 507.6 347.5C508.2 347.8 508.6 348.5 508.9 349C509.4 350.2 509.7 351.5 510 352.7C510.3 353.9 510.6 355.1 511.1 356.1C511.6 357.2 512.4 358 513.5 358.3C514.6 358.6 515.7 358.5 516.7 358C517.7 357.6 518.5 356.8 519.2 356C520.6 354.4 521.8 352.6 523.3 351.3C524.1 350.7 524.9 350.1 525.9 349.9C526.8 349.6 527.8 349.6 528.7 349.8C530.5 350.2 531.8 351.5 532.8 352.7C533.8 353.9 534.5 355.2 535.2 356.4C535.8 357.6 536.5 358.6 537.4 359.3C539.1 360.8 540.8 361.3 541.9 361.5C542.5 361.6 542.9 361.7 543.2 361.7C543.4 361.5 543.5 361.5 543.5 361.5Z" fill="#E8505B"/>
<path d="M439.1 328.3C439.1 328.4 432.3 328.5 423.8 328.5C415.4 328.5 408.5 328.4 408.5 328.3C408.5 328.2 415.3 328.1 423.8 328.1C432.3 328.1 439.1 328.2 439.1 328.3Z" fill="#263238"/>
<path d="M529.4 303.2H199.4C194.2 303.2 190 299 190 293.8V9.4C190 4.2 194.2 0 199.4 0H529.4C534.6 0 538.8 4.2 538.8 9.4V293.8C538.8 299 534.6 303.2 529.4 303.2Z" fill="#263238"/>
<path d="M538.8 19.8C538.8 19.9 460.7 20 364.5 20C268.2 20 190.1 19.9 190.1 19.8C190.1 19.7 268.1 19.6 364.5 19.6C460.7 19.6 538.8 19.7 538.8 19.8Z" fill="#455A64"/>
<path d="M209.3 11.8C210.46 11.8 211.4 10.8151 211.4 9.60002C211.4 8.385 210.46 7.40002 209.3 7.40002C208.14 7.40002 207.2 8.385 207.2 9.60002C207.2 10.8151 208.14 11.8 209.3 11.8Z" fill="#455A64"/>
<path d="M216.6 11.8C217.76 11.8 218.7 10.8151 218.7 9.60002C218.7 8.385 217.76 7.40002 216.6 7.40002C215.44 7.40002 214.5 8.385 214.5 9.60002C214.5 10.8151 215.44 11.8 216.6 11.8Z" fill="#455A64"/>
<path d="M226 9.60002C226 10.8 225.1 11.8 223.9 11.8C222.7 11.8 221.8 10.8 221.8 9.60002C221.8 8.40002 222.7 7.40002 223.9 7.40002C225.1 7.40002 226 8.40002 226 9.60002Z" fill="#455A64"/>
<path d="M452.3 151.1C447.5 150.5 442.6 152.2 437.9 151C427.4 148.5 421.7 133.1 411 131.2C403.5 129.9 396.6 135.8 390.7 141.5C384.8 147.2 378 153.2 370.5 152.1C358.4 150.3 352.1 131.3 340 130C336.8 129.7 333.6 130.7 330.4 130.5C320.1 130.1 312.9 118.6 308.6 107.8C306.5 102.5 304.7 96.9 301.6 92.2C298.6 87.5 294 83.7 289 83.7C284.6 83.6 280.5 86.4 277.5 90.1C274.5 93.8 272.5 98.4 270.7 103C262.6 123.2 254.6 147.9 248.8 169.1L463.9 168.9C462.6 162 457.1 151.8 452.3 151.1Z" fill="#455A64"/>
<path d="M233.9 274.3C233.9 275.1 233.3 275.7 232.5 275.7C231.7 275.7 231.1 275.1 231.1 274.3C231.1 273.5 231.7 272.9 232.5 272.9C233.3 273 233.9 273.6 233.9 274.3Z" fill="#E8505B"/>
<path d="M247.2 274.5C247.2 274.6 244.8 274.8 241.9 274.8C239 274.8 236.6 274.7 236.6 274.5C236.6 274.4 239 274.2 241.9 274.2C244.8 274.3 247.2 274.4 247.2 274.5Z" fill="#E8505B"/>
<path d="M266.2 274.3C266.2 275.1 265.6 275.7 264.8 275.7C264 275.7 263.4 275.1 263.4 274.3C263.4 273.5 264 272.9 264.8 272.9C265.6 273 266.2 273.6 266.2 274.3Z" fill="#455A64"/>
<path d="M279.5 274.5C279.5 274.6 277.1 274.8 274.2 274.8C271.3 274.8 268.9 274.7 268.9 274.5C268.9 274.4 271.3 274.2 274.2 274.2C277.1 274.3 279.5 274.4 279.5 274.5Z" fill="#455A64"/>
<path d="M231.6 73.8999C232.594 73.8999 233.4 73.094 233.4 72.0999C233.4 71.1058 232.594 70.2999 231.6 70.2999C230.606 70.2999 229.8 71.1058 229.8 72.0999C229.8 73.094 230.606 73.8999 231.6 73.8999Z" fill="#E8505B"/>
<path d="M250.6 72.2999C250.6 72.3999 247.5 72.5999 243.7 72.5999C239.9 72.5999 236.8 72.4999 236.8 72.2999C236.8 72.1999 239.9 71.9999 243.7 71.9999C247.5 72.0999 250.6 72.1999 250.6 72.2999Z" fill="#E8505B"/>
<path d="M268 73.8999C268.994 73.8999 269.8 73.094 269.8 72.0999C269.8 71.1058 268.994 70.2999 268 70.2999C267.006 70.2999 266.2 71.1058 266.2 72.0999C266.2 73.094 267.006 73.8999 268 73.8999Z" fill="#455A64"/>
<path d="M286.9 72.2999C286.9 72.3999 283.8 72.5999 280 72.5999C276.2 72.5999 273.1 72.4999 273.1 72.2999C273.1 72.1999 276.2 71.9999 280 71.9999C283.9 72.0999 286.9 72.1999 286.9 72.2999Z" fill="#455A64"/>
<path d="M234.1 56.9H231.2L230.6 58.2H229.1L232 52H233.4L236.2 58.2H234.7L234.1 56.9ZM233.7 55.8L232.7 53.4L231.7 55.8H233.7Z" fill="#E0E0E0"/>
<path d="M241.7 55.4999V58.1999H240.3V55.6999C240.3 54.8999 239.9 54.5999 239.3 54.5999C238.6 54.5999 238.2 54.9999 238.2 55.8999V58.2999H236.8V53.4999H238.1V53.9999C238.5 53.5999 239 53.3999 239.7 53.3999C240.8 53.3999 241.7 54.0999 241.7 55.4999Z" fill="#E0E0E0"/>
<path d="M247.2 55.4999V58.1999H245.9V57.5999C245.6 57.9999 245.1 58.2999 244.4 58.2999C243.3 58.2999 242.6 57.6999 242.6 56.7999C242.6 55.9999 243.2 55.3999 244.7 55.3999H245.8C245.8 54.7999 245.4 54.4999 244.7 54.4999C244.2 54.4999 243.7 54.6999 243.3 54.8999L242.8 53.8999C243.3 53.4999 244.1 53.2999 244.9 53.2999C246.3 53.3999 247.2 54.0999 247.2 55.4999ZM245.8 56.7999V56.2999H244.8C244.1 56.2999 243.9 56.4999 243.9 56.8999C243.9 57.1999 244.2 57.4999 244.7 57.4999C245.2 57.3999 245.6 57.1999 245.8 56.7999Z" fill="#E0E0E0"/>
<path d="M248.4 51.7H249.8V58.2999H248.4V51.7Z" fill="#E0E0E0"/>
<path d="M255.9 53.5L253.7 58.6C253.2 59.8 252.6 60.1 251.7 60.1C251.2 60.1 250.7 59.9 250.4 59.7L250.9 58.7C251.1 58.9 251.4 59 251.7 59C252.1 59 252.3 58.8 252.5 58.4L250.4 53.6H251.8L253.1 56.9L254.5 53.6H255.9V53.5Z" fill="#E0E0E0"/>
<path d="M259.6 57.9999C259.3 58.1999 258.9 58.2999 258.5 58.2999C257.4 58.2999 256.7 57.6999 256.7 56.5999V54.5999H256V53.4999H256.7V52.2999H258.1V53.4999H259.3V54.5999H258.1V56.5999C258.1 56.9999 258.3 57.1999 258.7 57.1999C258.9 57.1999 259.1 57.0999 259.3 56.9999L259.6 57.9999Z" fill="#E0E0E0"/>
<path d="M260.3 52C260.3 51.6 260.6 51.2 261.2 51.2C261.7 51.2 262.1 51.5 262.1 51.9C262.1 52.4 261.8 52.7 261.2 52.7C260.6 52.8 260.3 52.5 260.3 52ZM260.4 53.5H261.8V58.2999H260.4V53.5Z" fill="#E0E0E0"/>
<path d="M262.8 55.8999C262.8 54.4999 263.9 53.3999 265.5 53.3999C266.5 53.3999 267.3 53.7999 267.6 54.5999L266.5 55.1999C266.2 54.6999 265.9 54.4999 265.4 54.4999C264.7 54.4999 264.1 54.9999 264.1 55.7999C264.1 56.5999 264.7 57.0999 265.4 57.0999C265.8 57.0999 266.2 56.8999 266.5 56.3999L267.6 56.9999C267.3 57.7999 266.5 58.1999 265.5 58.1999C263.9 58.2999 262.8 57.2999 262.8 55.8999Z" fill="#E0E0E0"/>
<path d="M267.9 57.7999L268.4 56.7999C268.8 57.0999 269.5 57.2999 270.1 57.2999C270.7 57.2999 271 57.0999 271 56.8999C271 56.0999 268.1 56.8999 268.1 54.9999C268.1 54.0999 268.9 53.3999 270.3 53.3999C271 53.3999 271.7 53.5999 272.1 53.7999L271.6 54.7999C271.1 54.4999 270.7 54.3999 270.2 54.3999C269.6 54.3999 269.3 54.5999 269.3 54.7999C269.3 55.5999 272.2 54.7999 272.2 56.6999C272.2 57.5999 271.4 58.1999 269.9 58.1999C269.2 58.2999 268.4 58.0999 267.9 57.7999Z" fill="#E0E0E0"/>
<path d="M232.4 93.6999V94.3999H229.5V93.7999L231 92.3999C231.3 92.0999 231.4 91.8999 231.4 91.6999C231.4 91.3999 231.2 91.1999 230.8 91.1999C230.5 91.1999 230.2 91.2999 230 91.5999L229.3 91.1999C229.6 90.7999 230.1 90.4999 230.8 90.4999C231.7 90.4999 232.2 90.8999 232.2 91.5999C232.2 91.9999 232.1 92.2999 231.6 92.7999L230.7 93.5999H232.4V93.6999Z" fill="#455A64"/>
<path d="M232.8 92.4999C232.8 91.1999 233.5 90.4999 234.5 90.4999C235.5 90.4999 236.2 91.1999 236.2 92.4999C236.2 93.7999 235.5 94.4999 234.5 94.4999C233.5 94.4999 232.8 93.6999 232.8 92.4999ZM235.2 92.4999C235.2 91.5999 234.9 91.1999 234.4 91.1999C234 91.1999 233.6 91.5999 233.6 92.4999C233.6 93.3999 233.9 93.6999 234.4 93.6999C234.9 93.6999 235.2 93.2999 235.2 92.4999Z" fill="#455A64"/>
<path d="M238 93.1999L237.6 93.5999V94.3999H236.7V90.2999H237.6V92.5999L238.9 91.3999H239.9L238.7 92.6999L240.1 94.3999H239.1L238 93.1999Z" fill="#455A64"/>
<path d="M231 109.1V113H230.1V109.8H229.3V109.1H231Z" fill="#455A64"/>
<path d="M234.6 111.8C234.6 112.5 234.1 113.1 233 113.1C232.5 113.1 231.9 113 231.5 112.7L231.9 112C232.2 112.2 232.6 112.4 233 112.4C233.5 112.4 233.7 112.2 233.7 111.9C233.7 111.6 233.5 111.4 232.8 111.4H231.8L232 109.2H234.4V109.9H232.8L232.7 110.6H233C234.2 110.6 234.6 111.1 234.6 111.8Z" fill="#455A64"/>
<path d="M236.5 111.8L236.1 112.2V113H235.2V108.9H236.1V111.2L237.4 110H238.4L237.2 111.3L238.6 113H237.6L236.5 111.8Z" fill="#455A64"/>
<path d="M231 127.8V131.7H230.1V128.5H229.3V127.8H231Z" fill="#455A64"/>
<path d="M231.7 129.7C231.7 128.4 232.4 127.7 233.4 127.7C234.4 127.7 235.1 128.4 235.1 129.7C235.1 131 234.4 131.7 233.4 131.7C232.4 131.7 231.7 131 231.7 129.7ZM234.1 129.7C234.1 128.8 233.8 128.4 233.3 128.4C232.9 128.4 232.5 128.8 232.5 129.7C232.5 130.6 232.8 130.9 233.3 130.9C233.8 130.9 234.1 130.6 234.1 129.7Z" fill="#455A64"/>
<path d="M236.9 130.5L236.5 130.9V131.7H235.6V127.6H236.5V129.9L237.8 128.7H238.8L237.6 130L239 131.7H238L236.9 130.5Z" fill="#455A64"/>
<path d="M232.5 149C232.5 149.7 232 150.3 230.9 150.3C230.4 150.3 229.8 150.2 229.4 149.9L229.8 149.2C230.1 149.4 230.5 149.6 230.9 149.6C231.4 149.6 231.6 149.4 231.6 149.1C231.6 148.8 231.4 148.6 230.7 148.6H229.7L229.9 146.4H232.3V147.1H230.7L230.6 147.8H230.9C232 147.8 232.5 148.3 232.5 149Z" fill="#455A64"/>
<path d="M234.3 149.1L233.9 149.5V150.3H233V146.2H233.9V148.5L235.2 147.3H236.2L235 148.6L236.4 150.3H235.4L234.3 149.1Z" fill="#455A64"/>
<path d="M229.5 166.9C229.5 165.6 230.2 164.9 231.2 164.9C232.2 164.9 232.9 165.6 232.9 166.9C232.9 168.2 232.2 168.9 231.2 168.9C230.2 168.9 229.5 168.2 229.5 166.9ZM231.9 166.9C231.9 166 231.6 165.6 231.1 165.6C230.7 165.6 230.3 166 230.3 166.9C230.3 167.8 230.6 168.1 231.1 168.1C231.6 168.2 231.9 167.8 231.9 166.9Z" fill="#455A64"/>
<path d="M234.8 167.7L234.4 168.1V168.9H233.5V164.8H234.4V167.1L235.7 165.9H236.7L235.5 167.2L236.9 168.9H235.9L234.8 167.7Z" fill="#455A64"/>
<path d="M506.1 93.1999C506.1 93.2999 446.6 93.4999 373.2 93.4999C299.8 93.4999 240.2 93.3999 240.2 93.1999C240.2 92.9999 299.7 92.8999 373.2 92.8999C446.6 92.8999 506.1 93.0999 506.1 93.1999Z" fill="#455A64"/>
<path d="M506.1 112.2C506.1 112.3 446.6 112.5 373.2 112.5C299.8 112.5 240.2 112.4 240.2 112.2C240.2 112 299.7 111.9 373.2 111.9C446.6 111.9 506.1 112 506.1 112.2Z" fill="#455A64"/>
<path d="M506.1 131.2C506.1 131.3 446.6 131.5 373.2 131.5C299.8 131.5 240.2 131.4 240.2 131.2C240.2 131.1 299.7 130.9 373.2 130.9C446.6 130.9 506.1 131 506.1 131.2Z" fill="#455A64"/>
<path d="M506.1 150.2C506.1 150.3 446.6 150.5 373.2 150.5C299.8 150.5 240.2 150.4 240.2 150.2C240.2 150 299.7 149.9 373.2 149.9C446.6 149.9 506.1 150 506.1 150.2Z" fill="#455A64"/>
<path d="M506.1 169.2C506.1 169.3 446.6 169.5 373.2 169.5C299.8 169.5 240.2 169.4 240.2 169.2C240.2 169.1 299.7 168.9 373.2 168.9C446.6 168.9 506.1 169 506.1 169.2Z" fill="#455A64"/>
<path d="M241.5 169.2C255.1 167.4 266.9 161.9 277.1 156.1C287.3 150.3 296.1 143.6 305.7 137.5C309.5 135.1 314 132.6 319.4 132.7C324.9 132.8 329.4 135.6 332.1 138.5C334.8 141.4 336.4 144.8 339.8 147.4C341.7 148.9 344.5 150.3 347.6 150.3C352.2 150.3 355.8 147.3 360.4 147.4C366.4 147.5 369.2 152.2 374.8 153.5C379.3 154.6 384.5 153.2 388.2 151.4C392 149.5 395.2 147.2 399.5 145.8C406.3 143.6 414.8 144.4 421.6 146.5C428.4 148.6 432.5 153.6 437.8 157C444.9 161.4 453.4 168 460.9 169.2H241.5Z" fill="#E8505B"/>
<path d="M252.7 257.5C239.1 257.5 228.1 246.5 228.1 232.9C228.1 219.3 239.1 208.3 252.7 208.3C266.3 208.3 277.3 219.3 277.3 232.9C277.3 246.4 266.2 257.5 252.7 257.5ZM252.7 213.3C241.9 213.3 233.1 222.1 233.1 232.9C233.1 243.7 241.9 252.5 252.7 252.5C263.5 252.5 272.3 243.7 272.3 232.9C272.3 222.1 263.5 213.3 252.7 213.3Z" fill="#455A64"/>
<path d="M252.6 258.5C250 258.5 247.4 258.1 244.9 257.3C242.8 256.6 241.6 254.4 242.3 252.3C243 250.2 245.2 249 247.3 249.7C256.8 252.7 267 247.3 270 237.8C271.4 233.2 271 228.3 268.7 224C266.4 219.7 262.7 216.6 258 215.1C255.9 214.4 254.7 212.2 255.4 210.1C256.1 208 258.3 206.8 260.4 207.5C267.1 209.6 272.5 214.1 275.8 220.3C279 226.5 279.7 233.5 277.6 240.2C274.1 251.3 263.8 258.5 252.6 258.5Z" fill="#E8505B"/>
<path d="M247.9 235.4H246.6V237.1H244.7V235.4H240.3V234.1L244.2 228.9H246.2L242.6 233.8H244.8V232.3H246.6V233.8H247.9V235.4Z" fill="#E0E0E0"/>
<path d="M254.6 234.6C254.6 236.1 253.5 237.3 251.2 237.3C250.1 237.3 248.9 237 248.1 236.4L248.9 234.9C249.5 235.4 250.4 235.6 251.2 235.6C252.1 235.6 252.7 235.2 252.7 234.5C252.7 233.9 252.3 233.4 250.8 233.4H248.7L249.1 228.8H254.1V230.3H250.7L250.6 231.9H251.3C253.6 232 254.6 233.1 254.6 234.6Z" fill="#E0E0E0"/>
<path d="M255.1 231.1C255.1 229.7 255.9 228.8 257.1 228.8C258.3 228.8 259.1 229.7 259.1 231.1C259.1 232.5 258.3 233.4 257.1 233.4C256 233.4 255.1 232.5 255.1 231.1ZM258 231.1C258 230.2 257.7 229.8 257.1 229.8C256.6 229.8 256.2 230.2 256.2 231.1C256.2 232 256.6 232.4 257.1 232.4C257.7 232.4 258 232 258 231.1ZM262 229H263.4L257.8 237.2H256.4L262 229ZM260.7 235C260.7 233.6 261.5 232.7 262.7 232.7C263.9 232.7 264.7 233.6 264.7 235C264.7 236.4 263.9 237.3 262.7 237.3C261.5 237.3 260.7 236.4 260.7 235ZM263.6 235C263.6 234.1 263.3 233.7 262.7 233.7C262.2 233.7 261.8 234.1 261.8 235C261.8 235.9 262.2 236.3 262.7 236.3C263.2 236.3 263.6 235.9 263.6 235Z" fill="#E0E0E0"/>
<path d="M327.7 211.3V211.9H325.4V211.4L326.6 210.3C326.9 210 326.9 209.9 326.9 209.7C326.9 209.5 326.7 209.3 326.4 209.3C326.1 209.3 325.9 209.4 325.8 209.6L325.3 209.3C325.5 209 326 208.7 326.5 208.7C327.2 208.7 327.6 209 327.6 209.6C327.6 209.9 327.5 210.2 327.1 210.5L326.4 211.2H327.7V211.3Z" fill="#455A64"/>
<path d="M328 210.4C328 209.4 328.5 208.8 329.3 208.8C330 208.8 330.6 209.4 330.6 210.4C330.6 211.4 330.1 212 329.3 212C328.5 211.9 328 211.3 328 210.4ZM329.9 210.4C329.9 209.7 329.7 209.4 329.3 209.4C329 209.4 328.7 209.7 328.7 210.4C328.7 211.1 328.9 211.4 329.3 211.4C329.6 211.3 329.9 211 329.9 210.4Z" fill="#455A64"/>
<path d="M332 210.9L331.7 211.2V211.8H331V208.6H331.7V210.4L332.7 209.5H333.5L332.5 210.5L333.5 211.8H332.7L332 210.9Z" fill="#455A64"/>
<path d="M326.6 223.2V226.2H325.9V223.8H325.3V223.2H326.6Z" fill="#455A64"/>
<path d="M329.4 225.3C329.4 225.8 329 226.3 328.2 226.3C327.8 226.3 327.3 226.2 327.1 226L327.4 225.5C327.6 225.7 327.9 225.8 328.3 225.8C328.6 225.8 328.9 225.7 328.9 225.4C328.9 225.2 328.7 225 328.2 225H327.4L327.6 223.3H329.4V223.9H328V224.5H328.2C329.1 224.4 329.4 224.8 329.4 225.3Z" fill="#455A64"/>
<path d="M330.8 225.3L330.5 225.6V226.2H329.8V223H330.5V224.8L331.5 223.9H332.3L331.3 224.9L332.3 226.2H331.5L330.8 225.3Z" fill="#455A64"/>
<path d="M326.6 237.6V240.6H325.9V238.2H325.3V237.6H326.6Z" fill="#455A64"/>
<path d="M327.1 239.1C327.1 238.1 327.6 237.5 328.4 237.5C329.1 237.5 329.7 238.1 329.7 239.1C329.7 240.1 329.2 240.7 328.4 240.7C327.7 240.7 327.1 240.1 327.1 239.1ZM329 239.1C329 238.4 328.8 238.1 328.4 238.1C328.1 238.1 327.8 238.4 327.8 239.1C327.8 239.8 328 240.1 328.4 240.1C328.8 240.1 329 239.8 329 239.1Z" fill="#455A64"/>
<path d="M331.2 239.7L330.9 240V240.6H330.2V237.4H330.9V239.2L331.9 238.3H332.7L331.7 239.3L332.7 240.6H331.9L331.2 239.7Z" fill="#455A64"/>
<path d="M327.7 254.1C327.7 254.6 327.3 255.1 326.5 255.1C326.1 255.1 325.6 255 325.4 254.8L325.7 254.3C325.9 254.5 326.2 254.6 326.6 254.6C326.9 254.6 327.2 254.5 327.2 254.2C327.2 254 327 253.8 326.5 253.8H325.7L325.9 252.1H327.7V252.7H326.4V253.3H326.6C327.4 253.1 327.7 253.5 327.7 254.1Z" fill="#455A64"/>
<path d="M329.1 254.1L328.8 254.4V255H328.1V251.8H328.8V253.6L329.8 252.7H330.6L329.6 253.7L330.6 255H329.8L329.1 254.1Z" fill="#455A64"/>
<path d="M325.5 267.9C325.5 266.9 326 266.3 326.8 266.3C327.5 266.3 328.1 266.9 328.1 267.9C328.1 268.9 327.6 269.5 326.8 269.5C326 269.4 325.5 268.9 325.5 267.9ZM327.3 267.9C327.3 267.2 327.1 266.9 326.7 266.9C326.4 266.9 326.1 267.2 326.1 267.9C326.1 268.6 326.3 268.9 326.7 268.9C327.1 268.9 327.3 268.6 327.3 267.9Z" fill="#455A64"/>
<path d="M329.5 268.5L329.2 268.8V269.4H328.5V266.2H329.2V268L330.2 267.1H331L330 268.1L331 269.4H330.2L329.5 268.5Z" fill="#455A64"/>
<path d="M507.5 210.9C507.5 211 468.6 211.2 420.6 211.2C372.6 211.2 333.7 211.1 333.7 210.9C333.7 210.7 372.6 210.6 420.6 210.6C468.6 210.7 507.5 210.8 507.5 210.9Z" fill="#455A64"/>
<path d="M507.5 225.6C507.5 225.7 468.6 225.9 420.6 225.9C372.6 225.9 333.7 225.8 333.7 225.6C333.7 225.4 372.6 225.3 420.6 225.3C468.6 225.3 507.5 225.5 507.5 225.6Z" fill="#455A64"/>
<path d="M507.5 240.3C507.5 240.4 468.6 240.6 420.6 240.6C372.6 240.6 333.7 240.5 333.7 240.3C333.7 240.2 372.6 240 420.6 240C468.6 240 507.5 240.1 507.5 240.3Z" fill="#455A64"/>
<path d="M507.5 254.9C507.5 255 468.6 255.2 420.6 255.2C372.6 255.2 333.7 255.1 333.7 254.9C333.7 254.8 372.6 254.6 420.6 254.6C468.6 254.7 507.5 254.8 507.5 254.9Z" fill="#455A64"/>
<path d="M507.5 269.6C507.5 269.7 468.6 269.9 420.6 269.9C372.6 269.9 333.7 269.8 333.7 269.6C333.7 269.5 372.6 269.3 420.6 269.3C468.6 269.4 507.5 269.5 507.5 269.6Z" fill="#455A64"/>
<path d="M341.2 262.3C340.5 262.3 339.9 261.7 339.9 261V220.5C339.9 219.8 340.5 219.2 341.2 219.2C341.9 219.2 342.5 219.8 342.5 220.5V261C342.5 261.7 341.9 262.3 341.2 262.3Z" fill="#E8505B"/>
<path d="M349.3 256.6C348.6 256.6 348 256 348 255.3V234.2C348 233.5 348.6 232.9 349.3 232.9C350 232.9 350.6 233.5 350.6 234.2V255.3C350.6 256 350 256.6 349.3 256.6Z" fill="#E0E0E0"/>
<path d="M366.4 256.6C365.7 256.6 365.1 256 365.1 255.3V224.4C365.1 223.7 365.7 223.1 366.4 223.1C367.1 223.1 367.7 223.7 367.7 224.4V255.3C367.7 256 367.1 256.6 366.4 256.6Z" fill="#E0E0E0"/>
<path d="M383.7 260.7C383 260.7 382.4 260.1 382.4 259.4V228.5C382.4 227.8 383 227.2 383.7 227.2C384.4 227.2 385 227.8 385 228.5V259.4C385 260.1 384.4 260.7 383.7 260.7Z" fill="#E0E0E0"/>
<path d="M401.2 260.7C400.5 260.7 399.9 260.1 399.9 259.4V228.5C399.9 227.8 400.5 227.2 401.2 227.2C401.9 227.2 402.5 227.8 402.5 228.5V259.4C402.5 260.1 401.9 260.7 401.2 260.7Z" fill="#E0E0E0"/>
<path d="M417.6 265.9C416.9 265.9 416.3 265.3 416.3 264.6V224.9C416.3 224.2 416.9 223.6 417.6 223.6C418.3 223.6 418.9 224.2 418.9 224.9V264.6C418.9 265.3 418.3 265.9 417.6 265.9Z" fill="#E0E0E0"/>
<path d="M459.8 259.4C459.1 259.4 458.5 258.8 458.5 258.1V218.4C458.5 217.7 459.1 217.1 459.8 217.1C460.5 217.1 461.1 217.7 461.1 218.4V258.1C461.2 258.8 460.6 259.4 459.8 259.4Z" fill="#E8505B"/>
<path d="M469.4 262.8C468.7 262.8 468.1 262.2 468.1 261.5V221.8C468.1 221.1 468.7 220.5 469.4 220.5C470.1 220.5 470.7 221.1 470.7 221.8V261.5C470.7 262.2 470.1 262.8 469.4 262.8Z" fill="#E0E0E0"/>
<path d="M442.7 259.4C442 259.4 441.4 258.8 441.4 258.1V218.4C441.4 217.7 442 217.1 442.7 217.1C443.4 217.1 444 217.7 444 218.4V258.1C444 258.8 443.4 259.4 442.7 259.4Z" fill="#E8505B"/>
<path d="M374.9 253.3C374.2 253.3 373.6 252.7 373.6 252V212.6C373.6 211.9 374.2 211.3 374.9 211.3C375.6 211.3 376.2 211.9 376.2 212.6V252C376.3 252.7 375.7 253.3 374.9 253.3Z" fill="#E8505B"/>
<path d="M358.2 261C357.5 261 356.9 260.4 356.9 259.7V238.6C356.9 237.9 357.5 237.3 358.2 237.3C358.9 237.3 359.5 237.9 359.5 238.6V259.7C359.5 260.4 358.9 261 358.2 261Z" fill="#E8505B"/>
<path d="M392.2 256C391.5 256 390.9 255.4 390.9 254.7V238.3C390.9 237.6 391.5 237 392.2 237C392.9 237 393.5 237.6 393.5 238.3V254.7C393.6 255.4 393 256 392.2 256Z" fill="#E8505B"/>
<path d="M450.4 251.2C449.7 251.2 449.1 250.6 449.1 249.9V233.5C449.1 232.8 449.7 232.2 450.4 232.2C451.1 232.2 451.7 232.8 451.7 233.5V249.9C451.8 250.6 451.2 251.2 450.4 251.2Z" fill="#E0E0E0"/>
<path d="M478.2 255.8C477.5 255.8 476.9 255.2 476.9 254.5V238.1C476.9 237.4 477.5 236.8 478.2 236.8C478.9 236.8 479.5 237.4 479.5 238.1V254.5C479.5 255.2 478.9 255.8 478.2 255.8Z" fill="#E8505B"/>
<path d="M486.1 260.7C485.4 260.7 484.8 260.1 484.8 259.4V243C484.8 242.3 485.4 241.7 486.1 241.7C486.8 241.7 487.4 242.3 487.4 243V259.4C487.4 260.1 486.8 260.7 486.1 260.7Z" fill="#E0E0E0"/>
<path d="M495.2 243.7C494.5 243.7 493.9 243.1 493.9 242.4V226C493.9 225.3 494.5 224.7 495.2 224.7C495.9 224.7 496.5 225.3 496.5 226V242.4C496.5 243.1 495.9 243.7 495.2 243.7Z" fill="#E8505B"/>
<path d="M434.9 256C434.2 256 433.6 255.4 433.6 254.7V238.3C433.6 237.6 434.2 237 434.9 237C435.6 237 436.2 237.6 436.2 238.3V254.7C436.2 255.4 435.6 256 434.9 256Z" fill="#E0E0E0"/>
<path d="M408.5 252.2C407.8 252.2 407.2 251.6 407.2 250.9V234.5C407.2 233.8 407.8 233.2 408.5 233.2C409.2 233.2 409.8 233.8 409.8 234.5V250.9C409.8 251.6 409.2 252.2 408.5 252.2Z" fill="#E8505B"/>
<path d="M426 256.3C425.3 256.3 424.7 255.7 424.7 255V228.4C424.7 227.7 425.3 227.1 426 227.1C426.7 227.1 427.3 227.7 427.3 228.4V255C427.3 255.7 426.8 256.3 426 256.3Z" fill="#E8505B"/>
<path d="M517.7 287.9C517.7 287.9 517.8 287.9 518.1 287.9C518.4 287.9 518.8 287.9 519.3 287.8C520.3 287.6 521.8 287.2 523.4 285.9C524.2 285.3 524.9 284.4 525.5 283.3C526.1 282.2 526.5 280.9 526.5 279.4C526.5 276.4 526.5 273 526.5 269.2C526.5 253.9 526.5 231.7 526.4 204.3C526.4 203.4 526.4 202.6 526.4 201.7C526.4 200.8 526.4 200 526.3 199.1C526 197.4 525.2 195.8 523.9 194.5C522.7 193.3 521 192.4 519.3 192.1C518.4 191.9 517.5 192 516.6 192C515.7 192 514.7 192 513.8 192C506.3 192 498.5 192 490.5 192C474.4 192 457.2 192 439 192C402.8 192 362.9 192 321.1 192C318.6 192 316.1 193.2 314.4 195.1C313.6 196.1 313 197.2 312.7 198.4C312.4 199.6 312.4 200.9 312.4 202.2C312.4 207.4 312.4 212.5 312.4 217.6C312.4 227.8 312.4 237.8 312.4 247.7C312.4 257.6 312.4 267.3 312.4 276.7C312.4 277.9 312.3 279.1 312.5 280.2C312.7 281.3 313.1 282.4 313.6 283.4C314.8 285.4 316.7 286.8 318.9 287.3C320 287.6 321.1 287.6 322.3 287.6C323.5 287.6 324.6 287.6 325.8 287.6C328.1 287.6 330.4 287.6 332.6 287.6C368.9 287.6 401.5 287.6 428.9 287.7C456.3 287.7 478.5 287.8 493.8 287.8C501.5 287.8 507.4 287.8 511.5 287.8C513.5 287.8 515 287.8 516.1 287.8C517.2 287.9 517.7 287.9 517.7 287.9C517.7 287.9 517.2 287.9 516.1 287.9C515.1 287.9 513.5 287.9 511.5 287.9C507.5 287.9 501.5 287.9 493.8 287.9C478.5 287.9 456.3 287.9 428.9 288C401.5 288 368.8 288 332.6 288.1C330.3 288.1 328.1 288.1 325.8 288.1C324.7 288.1 323.5 288.1 322.3 288.1C321.2 288.1 320 288.1 318.8 287.8C316.5 287.2 314.4 285.7 313.2 283.6C312.6 282.6 312.2 281.4 312 280.2C311.8 279 311.9 277.8 311.9 276.6C311.9 267.1 311.9 257.4 311.9 247.6C311.9 237.7 311.9 227.7 311.9 217.5C311.9 212.4 311.9 207.3 311.9 202.1C311.9 200.8 311.8 199.5 312.2 198.2C312.5 196.9 313.2 195.7 314 194.7C315.7 192.6 318.4 191.4 321.1 191.4C362.9 191.4 402.8 191.4 439 191.4C457.1 191.4 474.3 191.4 490.5 191.4C498.6 191.4 506.3 191.4 513.8 191.4C514.7 191.4 515.7 191.4 516.6 191.4C517.5 191.4 518.5 191.4 519.4 191.6C521.2 191.9 522.9 192.9 524.2 194.2C525.5 195.5 526.3 197.2 526.7 199C526.9 199.9 526.8 200.8 526.8 201.6C526.8 202.5 526.8 203.3 526.8 204.2C526.8 231.6 526.7 253.8 526.7 269.1C526.7 272.9 526.7 276.3 526.7 279.3C526.6 280.8 526.2 282.1 525.6 283.2C525 284.3 524.2 285.2 523.4 285.8C521.8 287.1 520.3 287.5 519.3 287.7C518.8 287.8 518.4 287.8 518.1 287.8C517.8 287.9 517.7 287.9 517.7 287.9Z" fill="#455A64"/>
<path d="M296.2 287.9C296.2 287.9 296.5 287.9 297.2 287.8C297.8 287.7 298.8 287.5 299.8 286.8C300.8 286.2 302 285 302.6 283.4C302.9 282.6 303.1 281.6 303 280.6C303 279.6 303 278.4 303 277.3C303 267.9 303 254.2 302.9 237.4C302.9 229 302.9 219.7 302.9 209.8C302.9 207.3 302.9 204.8 302.9 202.2C302.9 200.9 302.9 199.6 302.9 198.3C302.8 197 302.4 195.8 301.6 194.8C300.9 193.8 299.8 192.9 298.6 192.5C298 192.3 297.4 192.1 296.7 192.1C296.1 192.1 295.4 192.1 294.7 192.1C292 192.1 289.2 192.1 286.4 192.1C264.1 192.1 239.6 192.1 213.9 192.1C212.3 192.1 210.8 192.7 209.6 193.6C208.4 194.6 207.6 196 207.3 197.5C207.1 198.2 207.2 199 207.2 199.8V202.2C207.2 203.8 207.2 205.4 207.2 206.9C207.2 213.2 207.2 219.3 207.2 225.4C207.2 237.5 207.2 249.2 207.2 260.4C207.2 266 207.2 271.4 207.2 276.7C207.2 278 207.2 279.3 207.2 280.6C207.2 281.9 207.4 283.1 208 284.2C209.2 286.4 211.6 287.8 214 287.7C223.9 287.7 233.2 287.7 241.6 287.7C258.5 287.7 272.1 287.8 281.5 287.8C286.2 287.8 289.9 287.8 292.4 287.8C293.6 287.8 294.6 287.8 295.2 287.8C295.9 287.9 296.2 287.9 296.2 287.9C296.2 287.9 295.9 287.9 295.2 287.9C294.6 287.9 293.6 287.9 292.4 287.9C289.9 287.9 286.2 287.9 281.5 287.9C272.1 287.9 258.4 287.9 241.6 288C233.2 288 223.9 288 214 288C211.4 288.1 208.8 286.6 207.6 284.3C207 283.1 206.7 281.8 206.7 280.5C206.7 279.2 206.7 277.9 206.7 276.6C206.7 271.3 206.7 265.9 206.7 260.3C206.7 249.1 206.7 237.4 206.7 225.3C206.7 219.2 206.7 213.1 206.7 206.8C206.7 205.2 206.7 203.7 206.7 202.1V199.7C206.7 198.9 206.7 198.1 206.8 197.3C207.1 195.7 208 194.2 209.3 193.1C210.6 192 212.2 191.4 213.9 191.4C239.6 191.4 264.1 191.4 286.4 191.4C289.2 191.4 291.9 191.4 294.7 191.4C295.4 191.4 296 191.4 296.7 191.4C297.4 191.5 298.1 191.6 298.7 191.9C300 192.4 301.1 193.3 301.9 194.4C302.7 195.5 303.2 196.8 303.2 198.2C303.2 199.5 303.2 200.8 303.2 202.1C303.2 204.7 303.2 207.2 303.2 209.7C303.2 219.6 303.2 228.9 303.2 237.3C303.2 254.2 303.1 267.8 303.1 277.2C303.1 278.4 303.1 279.5 303.1 280.5C303.1 281.5 303 282.5 302.6 283.4C301.9 285.1 300.7 286.3 299.7 286.9C298.6 287.5 297.7 287.8 297 287.8C296.6 287.9 296.2 287.9 296.2 287.9Z" fill="#455A64"/>
<path d="M512.1 34C512.1 34 512.3 34 512.7 34C513.1 34 513.7 34 514.5 34.2C516 34.5 518.4 35.1 520.8 37C522 37.9 523.2 39.1999 524.2 40.7999C525.2 42.4 525.9 44.3999 526.2 46.5999C526.3 47.6999 526.3 48.8999 526.3 50.0999C526.3 51.2999 526.3 52.5 526.3 53.7999C526.3 56.4 526.3 59.1 526.3 62C526.3 85.2 526.3 118.8 526.4 160.3C526.4 162.9 526.4 165.5 526.4 168.2C526.4 169.5 526.4 170.9 526.3 172.2C526.2 173.5 525.9 174.9 525.4 176.2C524.4 178.8 522.6 181 520.3 182.7C519.1 183.5 517.9 184.2 516.5 184.6C515.1 185 513.7 185.3 512.3 185.3C501 185.3 489.2 185.3 477 185.3C452.6 185.3 426.5 185.3 399.1 185.3C344.3 185.3 284 185.3 220.7 185.3C216.7 185.3 212.7 183.5 210 180.5C208.7 179 207.6 177.2 207 175.3C206.8 174.8 206.7 174.3 206.6 173.9C206.5 173.4 206.4 172.9 206.4 172.4L206.3 170.9V169.4C206.3 161.6 206.3 153.8 206.3 146.1C206.3 130.7 206.3 115.5 206.3 100.6C206.3 85.6999 206.3 71 206.3 56.7C206.3 54.9 206.3 53.0999 206.3 51.2999C206.3 49.4999 206.2 47.7 206.5 45.9C207 42.3 209 38.9999 211.8 36.7999C213.2 35.6999 214.8 34.7999 216.5 34.2999C218.2 33.6999 220 33.7 221.7 33.7C225.2 33.7 228.6 33.7 232 33.7C286.9 33.7 336.3 33.6999 377.7 33.7999C419.2 33.7999 452.7 33.9 476 33.9C487.6 33.9 496.6 33.9 502.7 33.9C505.7 33.9 508.1 33.9 509.6 33.9C511.3 34 512.1 34 512.1 34C512.1 34 511.3 34 509.7 34C508.1 34 505.8 34 502.8 34C496.7 34 487.7 34 476.1 34C452.9 34 419.3 33.9999 377.8 34.0999C336.3 34.0999 286.9 34.1 232.1 34.2C228.7 34.2 225.2 34.2 221.8 34.2C220.1 34.2 218.4 34.2999 216.7 34.7999C215.1 35.2999 213.5 36.1 212.2 37.2C209.5 39.3 207.6 42.5 207.1 46C206.8 47.7 207 49.4999 206.9 51.2999C206.9 53.0999 206.9 54.9 206.9 56.7C206.9 71.1 206.9 85.6999 206.9 100.6C206.9 115.5 206.9 130.7 206.9 146.1C206.9 153.8 206.9 161.6 206.9 169.4V170.9L207 172.3C207.1 172.8 207.1 173.3 207.2 173.7C207.3 174.2 207.4 174.6 207.6 175.1C208.2 176.9 209.2 178.6 210.5 180.1C213.1 183 216.9 184.7 220.8 184.7C284.1 184.7 344.4 184.7 399.2 184.7C426.6 184.7 452.7 184.7 477.1 184.7C489.3 184.7 501.1 184.7 512.4 184.7C513.8 184.7 515.2 184.4 516.5 184C517.8 183.6 519 182.9 520.2 182.2C522.4 180.6 524.2 178.4 525.1 175.9C525.6 174.7 525.9 173.3 526 172C526.1 170.7 526 169.3 526.1 168C526.1 165.3 526.1 162.7 526.1 160.1C526.1 118.6 526.2 85 526.2 61.7999C526.2 58.9 526.2 56.1999 526.2 53.5999C526.2 52.2999 526.2 51.1 526.2 49.9C526.2 48.7 526.2 47.5 526.1 46.4C525.9 44.2 525.1 42.1999 524.1 40.5999C523.1 38.9999 521.9 37.6999 520.7 36.7999C518.3 34.8999 516 34.3 514.4 34C513.6 33.9 513 33.7999 512.6 33.7999C512.3 33.9999 512.1 34 512.1 34Z" fill="#455A64"/>
<path d="M67.9999 378.4L61.4999 404.3L50.3999 423.3C49.5999 424.7 50.0999 426.4 51.4999 427.1C52.2999 427.5 53.1999 427.5 53.9999 427.1L78.9999 411.6L86.1999 385.8L67.9999 378.4Z" fill="#455A64"/>
<path d="M148.9 384.1L147.6 404.3C147.6 404.3 167.7 411 167.8 414.7L128.5 415L129.3 383.4L148.9 384.1Z" fill="#455A64"/>
<path d="M147.1 210.2L85.5 207.1L60 400.7L84.4 403.8L116.5 243.7L125.9 397.6L126.2 403.2L151.7 403.8L147.1 210.2Z" fill="#263238"/>
<path d="M142 399.2C141.9 399.2 139.6 364.1 136.9 320.7C134.2 277.4 132.2 242.2 132.3 242.2C132.4 242.2 134.7 277.3 137.4 320.7C140.1 364.1 142.1 399.2 142 399.2Z" fill="#455A64"/>
<path d="M99.7002 240.9C99.8002 240.9 93.8002 276.3 86.3002 319.9C78.7002 363.5 72.5002 398.8 72.4002 398.8C72.3002 398.8 78.3002 363.4 85.8002 319.8C93.3002 276.2 99.6002 240.9 99.7002 240.9Z" fill="#455A64"/>
<path d="M34.3001 138.7L23.1001 122.3C20.9001 118.6 20.2001 116.9 20.9001 116.5C21.9001 116 21.5001 116.2 26.5001 122.3C26.5001 122.3 19.4001 113.5 22.5001 114.2C23.0001 114.3 24.3001 115.6 25.6001 117C23.9001 114.6 23.6001 113.2 24.2001 112.7C25.2001 111.9 29.6001 116.9 31.6001 119.3C30.0001 117.3 26.8001 113.4 26.4001 112.4C25.8001 110.9 27.6001 111.5 29.0001 112.4C30.6001 113.4 38.8001 120.6 41.3001 122.5C43.0001 123.8 44.1001 122.3 44.1001 122.3C46.2001 118.2 50.0001 116.2 51.3001 116.1C52.6001 116 53.1001 117.8 52.0001 118.7C51.1001 119.4 49.9001 121.1 49.1001 122.4C48.4001 123.5 47.9001 124.6 47.7001 125.8C47.5001 126.6 47.4001 127.3 47.2001 128L51.7001 136.1L37.0001 145.6L34.3001 138.7Z" fill="#FFBE9D"/>
<path d="M28.9001 126C28.7001 126.1 27.1001 124.3 25.3001 121.9C23.5001 119.5 22.1001 117.5 22.3001 117.4C22.5001 117.3 24.1001 119.1 25.9001 121.5C27.7001 123.8 29.1001 125.8 28.9001 126Z" fill="#EB996E"/>
<path d="M32.4 124.5C32.3 124.6 30.4 122.8 28.3 120.4C26.2 118 24.6 115.9 24.7 115.8C24.8 115.7 26.7 117.5 28.8 119.9C31 122.3 32.6 124.4 32.4 124.5Z" fill="#EB996E"/>
<path d="M35.3001 123.2C35.2001 123.3 33.4001 121.6 31.4001 119.4C29.4001 117.2 27.8001 115.2 28.0001 115.1C28.1001 115 29.9001 116.7 31.9001 118.9C33.9001 121.1 35.4001 123 35.3001 123.2Z" fill="#EB996E"/>
<path d="M35.3 131.9C35.3 131.9 35.7 131.5 36.6 131.3C37.5 131.1 38.9 131.2 40 132.3L39.6 132.5C39.5 132 39.4001 131.4 39.4001 130.8C39.3001 128.9 39.9 127.3 40.5 126.2C41.1 125.1 41.7001 124.6 41.7001 124.7C41.8001 124.8 41.3 125.3 40.8 126.4C40.3 127.5 39.9001 129 39.9001 130.8C39.9001 131.4 40 131.9 40.1 132.4L40.3 133.2L39.7001 132.6C38.7001 131.7 37.5001 131.5 36.7001 131.6C35.8001 131.7 35.3 132 35.3 131.9Z" fill="#EB996E"/>
<path d="M97.8002 62.9999L101.8 108.9L112.6 115.3L124.6 109.5C124.7 106.8 124.8 94 124.8 94C124.8 94 134.4 92.5 134.5 82.9C134.6 78.3 133.9 68.6999 133.2 59.9999C132.4 50.3999 124.1 43.2 114.5 43.7C104.5 44.4 97.0002 53.0999 97.8002 62.9999Z" fill="#FFBE9D"/>
<path d="M124.7 93.8999C124.7 93.8999 118.7 94.3999 112.2 90.3999C112.2 90.3999 115.1 97.2999 124.7 96.3999V93.8999Z" fill="#EB996E"/>
<path d="M129.7 66.9999C129.7 67.6999 129.1 68.2999 128.4 68.3999C127.6 68.3999 127 67.8999 127 67.1999C127 66.4999 127.6 65.8999 128.3 65.7999C129.1 65.6999 129.7 66.1999 129.7 66.9999Z" fill="#263238"/>
<path d="M131.1 64.8999C130.9 65.0999 129.9 64.2999 128.4 64.2999C126.9 64.2999 125.9 64.9999 125.7 64.8999C125.6 64.7999 125.8 64.4999 126.3 64.1999C126.8 63.8999 127.6 63.4999 128.5 63.4999C129.4 63.4999 130.2 63.7999 130.6 64.1999C131 64.4999 131.1 64.7999 131.1 64.8999Z" fill="#263238"/>
<path d="M115.4 66.9999C115.4 67.6999 114.8 68.2999 114.1 68.3999C113.3 68.3999 112.7 67.8999 112.7 67.1999C112.7 66.4999 113.3 65.8999 114 65.7999C114.7 65.6999 115.3 66.1999 115.4 66.9999Z" fill="#263238"/>
<path d="M116.6 65.1999C116.4 65.3999 115.4 64.5999 113.9 64.5999C112.4 64.5999 111.4 65.2999 111.2 65.1999C111.1 65.0999 111.3 64.7999 111.8 64.4999C112.3 64.1999 113.1 63.7999 114 63.7999C114.9 63.7999 115.7 64.0999 116.1 64.4999C116.5 64.7999 116.7 65.0999 116.6 65.1999Z" fill="#263238"/>
<path d="M121.9 76.0998C121.9 75.9998 122.8 75.8998 124.3 75.6998C124.7 75.6998 125 75.5998 125.1 75.2998C125.2 74.9998 125 74.5998 124.8 74.1998C124.4 73.2998 124.1 72.2998 123.7 71.2998C122.2 67.1998 121 63.8998 121.2 63.7998C121.4 63.6998 122.7 66.9998 124.3 71.0998C124.7 72.0998 125 73.0998 125.4 73.9998C125.5 74.3998 125.8 74.8998 125.6 75.4998C125.5 75.7998 125.2 75.9998 125 75.9998C124.8 76.0998 124.5 76.0998 124.4 76.0998C122.9 76.0998 121.9 76.0998 121.9 76.0998Z" fill="#263238"/>
<path d="M117.6 77.0999C117.8 77.0999 117.8 78.6999 119.2 79.7999C120.6 80.8999 122.3 80.7999 122.3 80.9999C122.3 81.0999 121.9 81.2999 121.2 81.2999C120.5 81.2999 119.5 81.0999 118.6 80.3999C117.8 79.6999 117.4 78.7999 117.4 78.0999C117.3 77.4999 117.5 77.0999 117.6 77.0999Z" fill="#263238"/>
<path d="M117 59.3999C116.9 59.7999 115.4 59.5999 113.7 59.7999C112 59.9999 110.6 60.4999 110.4 60.0999C110.3 59.8999 110.5 59.5999 111.1 59.1999C111.7 58.7999 112.5 58.3999 113.6 58.2999C114.6 58.1999 115.6 58.3999 116.2 58.5999C116.7 58.8999 117 59.1999 117 59.3999Z" fill="#263238"/>
<path d="M130.5 60.5999C130.2 60.8999 129.2 60.5999 128 60.5999C126.8 60.4999 125.8 60.7999 125.5 60.4999C125.4 60.2999 125.6 59.9999 126 59.6999C126.4 59.3999 127.2 59.0999 128 59.1999C128.8 59.1999 129.6 59.4999 130 59.8999C130.5 60.0999 130.6 60.4999 130.5 60.5999Z" fill="#263238"/>
<path d="M91.1001 50.7999C91.0001 48.9999 92.3001 47.0999 94.1001 46.9999C93.4001 45.2999 93.8001 43.0999 95.2001 41.8999C96.6001 40.6999 98.8001 40.4999 100.4 41.3999C100.9 39.2999 102.7 37.5999 104.8 37.1999C106.9 36.7999 109.2 37.5999 110.5 39.2999C111.8 37.6999 114 36.8999 116.1 37.1999C118.2 37.4999 120 38.9999 120.8 40.8999C122.6 39.3999 125.1 38.9999 127.3 39.6999C128.7 40.1999 129.9 41.0999 130.7 42.2999C131.8 41.9999 132.9 41.6999 134 41.7999C135.4 41.8999 136.9 42.6999 137.4 43.9999C137.8 45.0999 137.4 46.4999 136.4 47.0999C138.1 46.6999 140.2 47.8999 140.5 49.6999C140.7 51.2999 139.4 52.8999 137.9 53.2999C138.5 53.5999 139 54.2999 138.9 54.9999C138.8 56.1999 137.7 56.9999 136.7 57.4999C134 58.6999 130.8 58.2999 128 57.3999C125.2 56.3999 122.6 54.9999 119.8 53.8999C117 52.8999 112.3 50.9999 109.5 51.9999C109.1 52.0999 108.7 52.3999 108.4 52.5999C106.9 53.7999 105.9 55.4999 105.6 57.4999C105.6 57.5999 105.6 57.5999 105.6 57.6999C105.2 60.3999 105.3 63.1999 104.9 65.8999C104.5 68.5999 103.6 71.3999 101.5 73.2999C100.7 74.0999 99.2001 74.5999 98.5001 73.6999C98.2001 73.2999 98.2001 72.8999 98.2001 72.3999C97.8001 67.5999 96.8001 63.2999 96.3001 58.5999C95.7001 57.3999 94.6001 56.3999 93.7001 55.3999C92.2001 54.0999 91.1001 52.4999 91.1001 50.7999Z" fill="#263238"/>
<path d="M119.6 45.8999C119.6 45.8999 119.8 45.4999 119.7 44.5999C119.6 43.7999 119.3 42.4999 118.2 41.4999C117.1 40.4999 115.1 39.7999 113.2 40.4999C112.3 40.7999 111.3 41.4999 110.8 42.5999C110.6 43.1999 110.6 43.7999 110.7 44.3999C110.9 44.9999 111.3 45.4999 111.9 45.7999C112.5 45.9999 113.2 45.9999 113.8 45.5999C114.4 45.1999 114.5 44.4999 114.5 43.8999C114.4 43.2999 114.1 42.6999 113.7 42.3999C113.3 41.9999 112.8 41.7999 112.3 41.5999C110.3 40.9999 108.4 41.4999 107.2 42.3999C106.6 42.8999 106.2 43.3999 106 43.9999C105.8 44.5999 105.8 45.0999 105.9 45.4999C106.1 46.2999 106.6 46.5999 106.6 46.5999C106.7 46.5999 106.3 46.2999 106.1 45.4999C106 45.0999 106.1 44.5999 106.3 44.0999C106.5 43.5999 106.9 43.0999 107.5 42.6999C108.6 41.8999 110.4 41.4999 112.2 42.0999C113 42.3999 113.9 42.9999 114 43.8999C114 44.2999 113.9 44.7999 113.6 44.9999C113.3 45.2999 112.7 45.2999 112.3 45.0999C111.4 44.7999 111.1 43.5999 111.5 42.6999C111.8 41.7999 112.7 41.1999 113.5 40.8999C115.2 40.2999 117 40.7999 118.1 41.6999C119.2 42.5999 119.6 43.7999 119.7 44.4999C119.6 45.4999 119.5 45.8999 119.6 45.8999Z" fill="#455A64"/>
<path d="M108 39.8C108 39.8 107.7 39.7 107.1 39.6C106.5 39.6 105.7 39.5 104.7 39.7C103.7 39.9 102.5 40.3 101.5 41.3C100.5 42.3 100.1 44.1999 101 45.5999C101.1 45.7999 101.3 46 101.5 46.2L101.8 45.7C101 45.4 100.1 45.6 99.5 46C98.9 46.4 98.4 47.1 98.3 47.7C98 49 98.5 50.2 99 51C99.6 51.8 100.2 52.2 100.6 52.5C101 52.8 101.3 52.9 101.3 52.9C101.3 52.9 101.1 52.7 100.7 52.3C100.3 52 99.8 51.5 99.3 50.7C98.8 50 98.4 48.9 98.7 47.8C98.8 47.3 99.2 46.8 99.7 46.4C100.2 46.1 100.9 45.9 101.4 46.2L103 46.8L101.7 45.7C101.6 45.6 101.4 45.4 101.3 45.2C100.9 44.6 100.8 43.9 100.9 43.3C101 42.6 101.3 42.1 101.7 41.6C102.5 40.7 103.6 40.2 104.6 40C106.7 39.8 108 40 108 39.8Z" fill="#455A64"/>
<path d="M94.1001 50C94.0001 50 93.9001 50.3 93.9001 50.9C93.9001 51.5 94.1001 52.3 94.7001 53C95.3001 53.7 96.1001 54 96.7001 54.1C97.3001 54.2 97.6001 54 97.6001 54C97.6001 53.8 96.2001 53.9 95.1001 52.7C94.1001 51.4 94.3001 50 94.1001 50Z" fill="#455A64"/>
<path d="M135 45C135 45 134.7 44.7 134.1 44.3C133.5 43.9 132.4 43.5 131 43.5C129.7 43.5 128 43.9 126.7 45.3C126.1 45.9 125.5 46.9 125.6 47.9C125.7 49 126.6 50 127.9 50C128.5 49.9 129.1 49.5 129.3 49C129.5 48.5 129.5 47.9 129.4 47.4C129.1 46.3 128.2 45.7 127.3 45.4C126.4 45.1 125.5 45.2 124.7 45.4C123.9 45.7 123.3 46.1 122.8 46.6C121.8 47.5 121.3 48.5 120.9 49.1C120.6 49.8 120.4 50.1 120.4 50.1C120.4 50.1 120.7 49.8 121.1 49.2C121.5 48.6 122.1 47.7 123.1 46.9C124 46.1 125.6 45.4 127.1 45.9C127.8 46.2 128.6 46.7 128.8 47.5C129 48.3 128.7 49.3 127.9 49.4C127.1 49.5 126.3 48.7 126.3 47.9C126.2 47.1 126.7 46.3 127.2 45.7C128.3 44.5 129.9 44 131.1 44C132.4 43.9 133.4 44.3 134 44.6C134.6 44.8 134.9 45 135 45Z" fill="#455A64"/>
<path d="M101 67.2999C100.8 67.1999 94.4 65.3999 94.6 71.8999C94.8 78.3999 101.3 76.8999 101.3 76.6999C101.4 76.4999 101 67.2999 101 67.2999Z" fill="#FFBE9D"/>
<path d="M99.3 74.2999C99.3 74.2999 99.2 74.3999 99 74.4999C98.8 74.5999 98.5 74.6999 98.1 74.4999C97.4 74.2999 96.8 73.1999 96.7 71.9999C96.7 71.3999 96.8 70.7999 97 70.3999C97.2 69.8999 97.5 69.5999 97.8 69.4999C98.1 69.3999 98.4 69.5999 98.5 69.7999C98.6 69.9999 98.6 70.0999 98.6 70.0999C98.6 70.0999 98.7 69.9999 98.7 69.6999C98.7 69.5999 98.6 69.3999 98.4 69.2999C98.2 69.1999 98 69.0999 97.8 69.1999C97.3 69.2999 96.9 69.6999 96.6 70.2999C96.4 70.7999 96.2 71.4999 96.3 72.0999C96.4 73.3999 97.1 74.5999 98.1 74.8999C98.6 74.9999 98.9 74.8999 99.1 74.6999C99.3 74.4999 99.4 74.2999 99.3 74.2999Z" fill="#EB996E"/>
<path d="M81.6001 151.1C81.6001 152.7 86.3001 184.3 86.3001 184.3L76.9001 235.8L113.4 237.7L117.7 206.1L122.5 237.7L154.1 234.6L146.9 194.6L147 148.8L146.6 112L133.1 107.4L126.1 99.2L114.8 106.2L101 98L96.6001 104L77.0001 114.2C75.1001 117.5 81.6001 151.1 81.6001 151.1Z" fill="#E8505B"/>
<path d="M101 98L100.5 108L119.7 159.1L127.5 108.9L125 99.3L114.9 106.4L101 98Z" fill="white"/>
<path d="M119.3 160.9C119.3 160.9 119.1 160.7 118.8 160.3C118.5 159.9 118.1 159.3 117.6 158.7C116.5 157.2 115 155.1 113.1 152.6C109.3 147.4 104.2 140.2 98.6 132.3C97.8 131.2 97 130 96.2 128.9L96.1 128.7L96.2 128.5C97.5 126.6 98.8 124.8 100 123L100.1 123.4C97 121.1 94.1 119 91.6 117.1L91.5 117L91.6 116.8C93.1 112.9 94.3 109.7 95.2 107.3C95.6 106.2 96 105.4 96.2 104.7C96.4 104.1 96.6 103.8 96.6 103.8C96.6 103.8 96.5 104.1 96.3 104.7C96.1 105.4 95.8 106.2 95.4 107.3C94.6 109.6 93.4 112.9 91.9 116.8L91.8 116.5C94.3 118.4 97.2 120.5 100.3 122.7L100.5 122.9L100.4 123.1C99.2 124.9 97.9 126.7 96.6 128.6V128.3C97.4 129.4 98.2 130.5 99 131.7C104.6 139.6 109.7 146.8 113.4 152.1C115.2 154.7 116.7 156.8 117.7 158.3C118.2 159 118.6 159.6 118.9 160C119.1 160.7 119.3 160.9 119.3 160.9Z" fill="#263238"/>
<path d="M117.6 214.2C117.6 214.2 117.6 214 117.6 213.6C117.6 213.2 117.6 212.6 117.6 212C117.6 210.5 117.7 208.6 117.8 206.2C118 201.2 118.2 194.4 118.4 186.9C118.6 179.4 118.8 172.6 119 167.6C119.1 165.2 119.1 163.2 119.2 161.8C119.2 161.2 119.2 160.6 119.3 160.2C119.3 159.8 119.3 159.6 119.4 159.6C119.4 159.6 119.4 159.8 119.5 160.2C119.5 160.6 119.5 161.2 119.5 161.8C119.5 163.2 119.5 165.2 119.5 167.6C119.5 172.5 119.3 179.3 119.1 186.9C118.8 194.4 118.5 201.2 118.3 206.2C118.2 208.6 118 210.6 118 212C118 212.6 117.9 213.2 117.9 213.6C117.6 214 117.6 214.2 117.6 214.2Z" fill="#263238"/>
<path d="M120.1 159.4C120.1 159.4 120.1 159.2 120.3 158.8C120.5 158.4 120.7 157.8 120.9 157.2C121.5 155.7 122.3 153.7 123.3 151.3C125.4 146.2 128.3 139.4 131.5 131.8C132.2 130.2 132.8 128.7 133.5 127.2V127.5C131.9 125.6 130.4 123.8 129 122.2L128.9 122L129.1 121.8C131.5 119.3 133.7 117 135.6 115.1V115.3C134.7 112.8 134 110.8 133.5 109.3C133.3 108.6 133.1 108.1 133 107.7C132.9 107.3 132.8 107.1 132.8 107.1C132.8 107.1 132.9 107.3 133.1 107.6C133.3 108 133.5 108.6 133.7 109.2C134.3 110.7 135 112.7 135.9 115.2V115.3L135.8 115.4C134 117.3 131.8 119.6 129.4 122.2V121.9C130.8 123.6 132.3 125.4 133.9 127.2L134 127.3L133.9 127.5C133.3 129 132.6 130.5 131.9 132.1C128.7 139.7 125.7 146.5 123.5 151.6C122.4 154 121.6 156 120.9 157.5C120.6 158.1 120.4 158.7 120.2 159.1C120.2 159.3 120.1 159.5 120.1 159.4Z" fill="#263238"/>
<g opacity="0.3">
<g opacity="0.3">
<path opacity="0.3" d="M91.7002 117L97.4002 123.3L93.4002 130.3L117.6 159L96.4002 128.8L100.2 123.3L91.7002 117Z" fill="black"/>
</g>
</g>
<g opacity="0.3">
<g opacity="0.3">
<path opacity="0.3" d="M120.6 158.1L134.1 131.7L133.7 127.2L120.6 158.1Z" fill="black"/>
</g>
</g>
<path d="M78.3001 117.6C78.3001 117.6 78.6001 117.7 79.0001 118.1C79.5001 118.4 80.1001 119 80.8001 119.7C82.2001 121.1 83.9001 123.4 85.2001 126.2C86.4001 129 86.9001 131.8 87.0001 133.8C87.0001 134.8 87.0001 135.6 86.9001 136.2C86.8001 136.8 86.8001 137.1 86.7001 137.1C86.6001 137.1 86.7001 135.9 86.5001 133.9C86.3001 131.9 85.8001 129.2 84.6001 126.5C83.4001 123.7 81.8001 121.5 80.4001 120.1C79.2001 118.4 78.2001 117.7 78.3001 117.6Z" fill="#263238"/>
<path d="M148.8 143.3C148.6 143.3 148.1 137.5 147.6 130.3C147.1 123.1 146.8 117.3 147 117.3C147.2 117.3 147.7 123.1 148.2 130.3C148.7 137.5 148.9 143.3 148.8 143.3Z" fill="#263238"/>
<path d="M127.4 109C127.4 109 127.2 109.2 126.8 109.6C126.4 110 125.8 110.6 125.1 111.3C123.6 112.7 121.4 114.8 118.4 116.8L118 117V116.6C117.9 114.8 117.9 112.8 117.1 110.9C116.8 109.9 116.3 109 115.7 108.1C115.4 107.6 115.1 107.2 114.8 106.7L114.7 106.5L114.6 106.4C114.3 106.3 115 106.5 114.9 106.5C114.8 106.6 114.7 106.7 114.7 106.8C114.5 107 114.4 107.2 114.3 107.5C113.5 109 113.3 110.8 113 112.4C112.7 114 112.4 115.6 112.2 117.1L112.1 117.5L111.8 117.2C108.5 114.6 105.7 112.4 103.7 110.7C102.8 109.9 102 109.3 101.4 108.8C100.9 108.4 100.6 108.1 100.6 108.1C100.6 108.1 100.9 108.3 101.5 108.7C102.1 109.2 102.9 109.7 103.9 110.5C106 112.1 108.8 114.3 112.2 116.8L111.8 117C112 115.5 112.2 113.9 112.5 112.3C112.8 110.7 113.1 108.9 113.9 107.3C114 107 114.2 106.8 114.4 106.5C114.5 106.4 114.6 106.3 114.7 106.1H114.8C114.7 106.1 115.5 106.2 115.2 106.2L115.3 106.3L115.4 106.5C115.7 107 116.1 107.4 116.4 107.9C117 108.9 117.5 109.8 117.8 110.8C118.5 112.8 118.6 114.9 118.6 116.6L118.2 116.4C121.2 114.5 123.4 112.5 125 111.1C125.7 110.5 126.3 109.9 126.8 109.5C127.1 109.2 127.4 109 127.4 109Z" fill="#263238"/>
<path d="M119.2 158.5C119 158.5 117.9 146.9 116.7 132.6C115.5 118.3 114.6 106.6 114.8 106.6C115 106.6 116.1 118.2 117.3 132.5C118.5 146.9 119.4 158.5 119.2 158.5Z" fill="#263238"/>
<g opacity="0.3">
<g opacity="0.3">
<path opacity="0.3" d="M85.5001 147.1C85.5001 147.1 84.6001 172.2 84.6001 172.3C84.6001 172.4 82.4001 157.4 82.4001 157.4L85.5001 147.1Z" fill="black"/>
</g>
</g>
<path d="M189.3 149.4L177.8 140.8L180.8 135.2L187.5 125.5C188 124.7 188.8 124.2 189.8 124.1L195.7 123.2L196 125C196 125 198.2 123.5 199 125.4C199.8 127.3 197.1 129.1 197.1 129.1C197.1 129.1 199.4 128.5 199.8 130.8C200.2 133.1 198.1 133.4 198.1 133.4C199.8 135.7 198.1 137.1 198.1 137.1C200.1 139.4 197.3 141.6 197.3 141.6L189.7 149.3L189.3 149.4Z" fill="#FFBE9D"/>
<path d="M216.4 64.6L217.2 65.3L189.9 145.4L187.2 144.1L216.4 64.6Z" fill="#E8505B"/>
<path d="M198.6 140C197.7 141.7 196.4 142.7 194.8 143.8C194.4 144.1 193.9 144.4 193.4 144.5C192.9 144.6 192.3 144.5 192 144.1C191.8 143.8 191.7 143.4 191.7 143C191.7 142.2 192.1 141.5 192.7 140.9C193.2 140.3 193.9 139.9 194.5 139.4" fill="#FFBE9D"/>
<path d="M194.5 139.4C194.6 139.5 193.9 139.9 193 140.8C192.6 141.3 192.1 141.9 192 142.7C191.9 143.1 192 143.5 192.2 143.8C192.4 144.1 192.8 144.2 193.2 144.2C194.1 144.1 194.8 143.4 195.5 142.9C196.2 142.4 196.8 141.9 197.2 141.5C198.1 140.6 198.5 139.9 198.6 139.9C198.7 139.9 198.4 140.7 197.5 141.7C197.1 142.2 196.5 142.7 195.8 143.3C195.5 143.6 195.1 143.8 194.7 144.1C194.3 144.4 193.8 144.6 193.3 144.7C192.7 144.7 192.1 144.6 191.8 144.1C191.5 143.6 191.5 143.1 191.6 142.6C191.8 141.7 192.3 141 192.8 140.6C193.7 139.7 194.5 139.4 194.5 139.4Z" fill="#EB996E"/>
<path d="M146.6 112C149.6 113 154.3 121.8 154.3 121.8L166.6 158.1C166.6 158.1 177.6 140.3 177.6 140C177.6 139.7 191.8 150.4 191.8 150.4L182.5 168.6L182 173.3L173 187.9C170.7 190.4 166.7 190.9 163.3 190.7C159 190.5 155.3 187.8 153.7 183.9L147.1 165.5L146.6 112Z" fill="#E8505B"/>
<path d="M71.8 121.5L61.6 154.1L50.8 132.7L34.5 143L49.7 176.6C51.9 181.7 58.3 186.9 62.9 186.9C69.7 186.9 75.7 182.7 78.1 176.3L88.9 149.9L76.9 114.2C74.5 116 72.7 118.6 71.8 121.5Z" fill="#E8505B"/>
<path d="M61.6001 173.1C61.5001 173.1 61.4001 168.7 61.4001 163.4C61.4001 158 61.6001 153.7 61.7001 153.7C61.8001 153.7 61.9001 158.1 61.9001 163.5C61.9001 168.7 61.7001 173.1 61.6001 173.1Z" fill="#263238"/>
<path d="M66.5002 167.4C66.4002 167.4 66.2002 166.6 65.8002 165.2C65.4002 163.9 64.9002 162 64.4002 160C63.8002 158 63.3002 156.1 62.8002 154.8C62.6002 154.2 62.1002 153.9 61.7002 153.9C61.3002 153.9 61.2002 154.1 61.2002 154.1C61.2002 154.1 61.3002 153.8 61.7002 153.7C61.9002 153.7 62.2002 153.7 62.5002 153.8C62.8002 154 63.0002 154.2 63.2002 154.6C63.7002 155.9 64.3002 157.7 64.9002 159.8C65.5002 161.8 65.9002 163.7 66.2002 165.1C66.4002 166.5 66.5002 167.4 66.5002 167.4Z" fill="#263238"/>
<path d="M49.3 175.3C49.3 175.3 49.4 175.5 49.6 175.9C49.8 176.3 50.1 176.8 50.5 177.5C51.3 178.9 52.6 180.8 54.6 182.7C55.6 183.6 56.8 184.6 58.3 185.4C59.8 186.1 61.5 186.6 63.3 186.7C65.1 186.8 67.1001 186.5 68.9001 185.7C70.7001 184.9 72.5 183.7 74 182.2C74.9 181.3 75.8001 180.2 76.4001 179.2C79.3001 172 82 165.8 84.1 161.3C85.1 159.1 85.9001 157.3 86.5 156C86.8 155.4 87 155 87.2 154.6C87.4 154.3 87.5 154.1 87.5 154.1C87.5 154.1 87.5001 154.3 87.3001 154.6C87.1001 155 86.9 155.5 86.7 156C86.1 157.3 85.4001 159.1 84.4001 161.3C82.5 165.8 79.8001 172.1 76.9001 179.3C76.2001 180.4 75.4001 181.4 74.4001 182.4C72.9001 184 71.1 185.2 69.1 186C67.2 186.8 65.2 187.1 63.3 187C61.4 186.9 59.6 186.4 58.1 185.6C56.6 184.8 55.4 183.8 54.3 182.8C52.3 180.8 51.1 178.8 50.3 177.4C49.9 176.7 49.7 176.1 49.5 175.8C49.4 175.5 49.3 175.3 49.3 175.3Z" fill="#263238"/>
<path d="M189.7 124.1L195.6 123.2C195.6 123.2 196.7 124.9 192.3 127.3L189.5 129C189.5 129 191.5 132.8 188.4 138.4" fill="#FFBE9D"/>
<path d="M188.5 138.3C188.4 138.3 188.9 137.3 189.5 135.7C189.7 134.9 190 133.9 190 132.7C190 131.6 189.9 130.2 189.4 129L189.3 128.8L189.5 128.7C190.2 128.3 190.9 127.8 191.7 127.4C192.7 126.8 193.7 126.3 194.5 125.6C194.9 125.3 195.2 124.9 195.4 124.5C195.6 124.1 195.7 123.6 195.5 123.3L195.7 123.4C193.9 123.7 192.4 123.9 191.4 124C190.4 124.1 189.8 124.2 189.8 124.1C189.8 124.1 190.4 123.9 191.4 123.7C192.4 123.5 193.9 123.2 195.7 122.9H195.9L196 123C196.3 123.6 196.1 124.1 195.9 124.6C195.7 125.1 195.3 125.5 194.9 125.9C194.1 126.7 193.1 127.2 192.1 127.8C191.3 128.2 190.6 128.7 189.9 129.1L190 128.8C190.6 130.2 190.7 131.5 190.6 132.7C190.5 133.9 190.2 134.9 190 135.8C189.9 136.2 189.7 136.6 189.5 136.9C189.4 137.2 189.2 137.5 189.1 137.7C188.7 138.1 188.5 138.3 188.5 138.3Z" fill="#EB996E"/>
<path d="M190.8 149.8C190.8 149.8 190.4 149.6 189.8 149.1C189.1 148.6 188.2 147.9 187 147.1C184.6 145.3 181.3 142.9 177.4 140L177.7 139.9C175.8 143.1 173.6 146.7 171.3 150.6C170.3 152.3 169.3 154 168.3 155.6C167.3 157.2 166.3 158.7 165.6 160.3C164.1 163.4 163.5 166.5 163.2 169.1C163 171.7 163.2 173.8 163.3 175.3C163.5 176.7 163.7 177.5 163.6 177.5C163.6 177.5 163.5 177.3 163.4 176.9C163.3 176.5 163.2 176 163 175.2C162.7 173.8 162.5 171.6 162.7 169C162.9 166.4 163.5 163.2 165 160.1C165.7 158.5 166.7 157 167.7 155.3C168.7 153.7 169.7 152 170.7 150.3C173 146.5 175.2 142.9 177.2 139.7L177.3 139.5L177.5 139.7C181.4 142.6 184.6 145.1 187 146.9C188.1 147.8 189 148.5 189.7 149C190.5 149.6 190.8 149.8 190.8 149.8Z" fill="#263238"/>
<path d="M166.6 158.3C166.7 158.4 163.8 160 161.7 163.3C159.5 166.6 159.2 169.9 159 169.8C158.9 169.8 158.9 169 159.2 167.7C159.5 166.4 160.1 164.7 161.2 163C162.3 161.3 163.7 160.1 164.7 159.3C165.8 158.5 166.6 158.2 166.6 158.3Z" fill="#263238"/>
<path d="M147 127.3C147 127.3 147 127.5 147.1 128C147.1 128.5 147.2 129.2 147.2 130C147.3 131.7 147.3 134.2 147.4 137.2C147.5 143.3 147.5 151.7 147.5 161C147.5 170.3 147.4 178.7 147.3 184.8C147.2 187.8 147.2 190.3 147.2 192C147.2 192.8 147.2 193.5 147.1 194C147.1 194.4 147.1 194.7 147 194.7C147 194.7 147 194.5 147 194C147 193.5 147 192.8 147 192C147 190.2 147 187.8 147 184.8C147 178.7 147 170.3 147.1 161C147.1 151.7 147.2 143.3 147.2 137.2C147.2 134.2 147.2 131.7 147.2 130C147.2 129.2 147.2 128.5 147.2 128C147 127.6 147 127.3 147 127.3Z" fill="#263238"/>
<path d="M197.2 124.5C196.1 125 190.9 128.4 190.4 129.5C190.2 129.9 190.1 130.2 190.1 130.6C190.1 131 190.3 131.4 190.6 131.6C191.1 131.9 191.7 131.8 192.3 131.5C194.6 130.5 196.5 129.5 198.3 127.8C198.8 127.3 199.1 126.7 199.1 126C199.1 125.3 198.8 124.6 198.1 124.4" fill="#FFBE9D"/>
<path d="M198.2 124.5C198.2 124.5 198.6 124.5 199 125C199.4 125.5 199.5 126.6 198.8 127.5C198.5 128 198 128.3 197.5 128.8C197 129.2 196.5 129.6 195.8 130C195.2 130.4 194.5 130.7 193.8 131.1C193.4 131.3 193.1 131.4 192.7 131.6C192.3 131.8 192 132 191.5 132C191.1 132.1 190.5 132 190.2 131.6C189.9 131.2 189.7 130.7 189.8 130.3C189.9 129.9 190 129.5 190.2 129.1C190.4 128.7 190.7 128.5 191 128.3C192.1 127.4 193.2 126.7 194.1 126.1C195.9 124.9 197.1 124.4 197.2 124.4C197.2 124.4 196.9 124.6 196.4 124.9C195.9 125.2 195.2 125.7 194.3 126.3C193.4 126.9 192.4 127.7 191.3 128.6C191 128.8 190.8 129.1 190.6 129.3C190.4 129.6 190.3 129.9 190.3 130.3C190.3 130.6 190.4 131 190.6 131.2C190.8 131.4 191.1 131.5 191.5 131.4C194.4 130.4 197.1 128.7 198.4 127.2C199 126.4 199 125.4 198.7 125C198.6 124.6 198.2 124.5 198.2 124.5Z" fill="#EB996E"/>
<path d="M194.2 135.2C193.5 135.6 192.7 135.9 192 136.4C191.3 136.9 190.8 137.5 190.4 138.3C190.2 138.8 190.1 139.5 190.5 139.9C190.7 140.2 191.1 140.3 191.5 140.3C191.9 140.3 192.3 140.2 192.6 140.1C194 139.7 195.4 139 196.6 138.2C197.1 137.9 197.6 137.5 198 137C198.4 136.5 198.6 135.9 198.6 135.2C198.6 134.6 198.5 133.9 197.9 133.7" fill="#FFBE9D"/>
<path d="M198 133.7C198 133.7 198.4 133.7 198.6 134.2C198.7 134.4 198.8 134.7 198.8 135.1C198.9 135.4 198.9 135.9 198.7 136.3C198.4 137.2 197.6 138 196.6 138.6C195.6 139.2 194.5 139.8 193.2 140.2C192.6 140.4 191.9 140.7 191.2 140.6C190.9 140.5 190.5 140.4 190.3 140.1C190.1 139.8 190 139.5 190 139.1C190.1 137.8 190.9 137 191.6 136.4C192.3 135.9 193 135.6 193.4 135.4C193.8 135.2 194.1 135.1 194.1 135.2C194.1 135.2 193.9 135.4 193.5 135.6C193.1 135.8 192.5 136.2 191.8 136.7C191.5 137 191.2 137.3 190.9 137.7C190.6 138.1 190.4 138.6 190.4 139.1C190.4 139.6 190.7 140 191.3 140.1C191.8 140.2 192.4 139.9 193 139.7C194.2 139.3 195.3 138.7 196.3 138.1C197.3 137.5 198 136.9 198.3 136.1C198.5 135.7 198.5 135.4 198.5 135C198.5 134.7 198.4 134.4 198.4 134.2C198.3 133.8 198 133.7 198 133.7Z" fill="#EB996E"/>
<path d="M199.7 130.7C199.1 128.5 196.7 129.3 196.7 129.3C195.1 130.2 193.6 130.8 192.2 131.9C191.7 132.2 191.4 132.8 191.2 133.3C191 133.8 191 134.5 191.4 134.9C191.8 135.4 192.4 135.5 193 135.5C193.6 135.5 194.1 135.2 194.6 135L198.2 133.5C199.2 133.1 199.9 132 199.7 130.9C199.7 130.9 199.7 130.9 199.7 130.8" fill="#FFBE9D"/>
<path d="M199.8 130.9C199.8 130.9 200 131.2 199.9 131.8C199.8 132.4 199.3 133.3 198.3 133.7C197.3 134.1 196.2 134.6 195 135.2C194.4 135.5 193.7 135.8 192.8 135.8C192.4 135.8 191.9 135.7 191.6 135.4C191.2 135.1 191 134.7 191 134.2C191 133.8 191.1 133.3 191.2 133C191.4 132.6 191.6 132.3 191.9 132C192.5 131.5 193.1 131.1 193.7 130.8C194.9 130.1 195.9 129.6 196.9 129.2C197.5 129 198.1 129 198.5 129.2C199 129.3 199.3 129.6 199.5 129.9C199.7 130.2 199.8 130.4 199.8 130.6C199.8 130.8 199.9 130.9 199.8 130.9C199.7 130.9 199.7 130.5 199.3 130.1C199.1 129.9 198.8 129.7 198.4 129.6C198 129.5 197.5 129.5 197 129.7C196.1 130.2 195 130.7 193.9 131.4C193.4 131.7 192.7 132.1 192.3 132.6C191.9 133.1 191.5 133.7 191.6 134.4C191.6 135.1 192.3 135.5 192.9 135.5C193.6 135.5 194.2 135.2 194.9 135C196.1 134.5 197.3 134 198.3 133.6C199.2 133.3 199.7 132.5 199.8 132C199.8 131.2 199.7 130.9 199.8 130.9Z" fill="#EB996E"/>
<path d="M66.1003 69.6C69.7003 64.8 71.7003 58.8 71.4003 52.4C70.7003 37.6 58.1003 26.1 43.3003 26.8C28.5003 27.5 17.0003 40.1 17.7003 54.9C18.4003 69.7 31.0003 81.2 45.8003 80.5C50.9003 80.3 55.5003 78.6 59.5003 76L69.1003 79.7L66.1003 69.6Z" fill="white"/>
<path d="M51.7002 53.8C51.7002 55.1 52.7002 56.1 54.0002 56.1C55.3002 56.1 56.3002 55.1 56.3002 53.8C56.3002 52.5 55.3002 51.5 54.0002 51.5C52.8002 51.5 51.7002 52.5 51.7002 53.8Z" fill="#263238"/>
<path d="M42.5002 53.8C42.5002 55.1 43.5002 56.1 44.8002 56.1C46.1002 56.1 47.1002 55.1 47.1002 53.8C47.1002 52.5 46.1002 51.5 44.8002 51.5C43.6002 51.5 42.5002 52.5 42.5002 53.8Z" fill="#263238"/>
<path d="M33.4002 52.6C32.8002 53.7 33.1002 55.1 34.2002 55.7C35.3002 56.3 36.7002 56 37.3002 54.9C37.9002 53.8 37.6002 52.4 36.5002 51.8C35.4002 51.2 34.0002 51.5 33.4002 52.6Z" fill="#263238"/>
<path d="M44.7002 26.9C44.7002 26.9 44.5002 26.9 44.2002 26.9C43.9002 26.9 43.4002 26.9 42.8002 26.9C42.5002 26.9 42.2002 26.9 41.8002 26.9C41.4002 27 41.0002 27 40.6002 27.1C40.2002 27.2 39.7002 27.2 39.2002 27.3C38.7002 27.4 38.2002 27.6001 37.6002 27.7001C35.4002 28.3001 32.7002 29.2 30.0002 31C27.3002 32.8 24.4002 35.3001 22.1002 38.7001C19.8002 42.1 18.1002 46.4001 17.6002 51.2001C17.6002 52.4001 17.4002 53.6001 17.5002 54.9001C17.5002 55.5001 17.5002 56.2 17.6002 56.8C17.7002 57.4 17.8002 58.1 17.9002 58.7001C18.4002 61.2001 19.2002 63.8 20.5002 66.2C21.8002 68.6 23.4002 70.9001 25.4002 72.9001C27.4002 74.9001 29.8002 76.6 32.5002 78C35.1002 79.3 38.1002 80.3 41.1002 80.6C41.9002 80.7 42.6002 80.7001 43.4002 80.8001C44.2002 80.9001 44.9002 80.9001 45.7002 80.8001C47.3002 80.7001 48.8002 80.5 50.3002 80.2C53.6002 79.5 56.8002 78.1001 59.5002 76.3001H59.2002C62.4002 77.6001 65.6002 78.8 68.6002 80.1L69.2002 80.3001L69.0002 79.7C68.0002 76.2 67.1002 72.9 66.2002 69.6V69.8001C68.8002 66.3001 70.5002 62.3 71.2002 58.3C71.6002 56.3 71.7002 54.3001 71.6002 52.4001C71.6002 51.4001 71.5002 50.5 71.3002 49.6C71.2002 49.1 71.2002 48.7001 71.1002 48.2001C71.0002 47.7001 70.9002 47.3001 70.8002 46.9001C69.0002 39.8001 64.6002 34.6 60.3002 31.6C58.1002 30.1 56.0002 29 54.0002 28.3C53.5002 28.1 53.0002 28 52.6002 27.8C52.1002 27.7 51.7002 27.6 51.3002 27.5C50.9002 27.4 50.5002 27.3001 50.1002 27.2001C49.7002 27.1001 49.3002 27.1 49.0002 27C48.3002 26.9 47.7002 26.8 47.1002 26.8C46.6002 26.8 46.1002 26.8 45.7002 26.8C45.3002 26.8 45.1002 26.8 44.9002 26.8C44.8002 26.9 44.7002 26.9 44.7002 26.9C44.7002 26.9 44.8002 26.9 45.0002 26.9C45.2002 26.9 45.5002 26.9 45.8002 27C46.2002 27 46.6002 27.1 47.2002 27.1C47.7002 27.1 48.4002 27.3 49.1002 27.4C51.9002 27.9 56.0002 29 60.3002 32.1C64.5002 35.1 68.8002 40.3 70.5002 47.3C70.6002 47.7 70.7002 48.2 70.8002 48.6C70.9002 49 70.9002 49.5 71.0002 50C71.2002 50.9 71.2002 51.8 71.2002 52.8C71.3002 54.7 71.2002 56.6 70.8002 58.6C70.1002 62.5 68.4002 66.4001 65.8002 69.9001L65.7002 70V70.1C66.6002 73.4 67.5002 76.7 68.4002 80.2L68.8002 79.8001C65.7002 78.6001 62.6002 77.3 59.4002 76L59.3002 75.9001V76C56.6002 77.8 53.5002 79.1001 50.3002 79.8001C48.8002 80.1001 47.3002 80.3001 45.8002 80.4001C45.0002 80.4001 44.3002 80.4001 43.5002 80.4001C42.7002 80.4001 42.0002 80.4 41.3002 80.2C38.3002 79.8 35.5002 78.9 32.9002 77.6C30.3002 76.3 28.0002 74.6 26.0002 72.7C24.0002 70.7 22.4002 68.5 21.2002 66.1C19.9002 63.8 19.2002 61.2001 18.7002 58.8C18.6002 58.2 18.5002 57.6001 18.4002 56.9001C18.3002 56.3001 18.3002 55.7 18.3002 55.1C18.2002 53.9 18.3002 52.7001 18.4002 51.5C18.8002 46.8 20.5002 42.5001 22.7002 39.2001C24.9002 35.8001 27.7002 33.3 30.4002 31.6C33.1002 29.8001 35.7002 28.8001 37.9002 28.2001C38.4002 28.1001 39.0002 27.9 39.5002 27.8C40.0002 27.7 40.5002 27.6 40.9002 27.6C41.3002 27.5 41.7002 27.5 42.1002 27.4C42.5002 27.4 42.8002 27.4 43.1002 27.3C43.7002 27.3 44.1002 27.2001 44.5002 27.2001C44.5002 26.9001 44.7002 26.9 44.7002 26.9Z" fill="#263238"/>
</g>
<defs>
<clipPath id="clip0_3_1454">
<rect width="689.9" height="427.3" fill="white"/>
</clipPath>
</defs>
</svg>
