<svg width="405" height="239" viewBox="0 0 405 239" fill="none" xmlns="http://www.w3.org/2000/svg">
<path d="M385.46 235.762H19.8308C9.75084 235.762 1.57788 227.575 1.57788 217.478V20.0681C1.57788 9.9706 9.75084 1.78345 19.8308 1.78345H385.46C395.54 1.78345 403.713 9.9706 403.713 20.0681V217.478C403.737 227.575 395.564 235.762 385.46 235.762Z" fill="#E7E6FF"/>
<path fill-rule="evenodd" clip-rule="evenodd" d="M41.4248 126.024C41.1848 126.101 40.9671 126.281 40.8658 126.486C40.8299 126.559 40.7911 126.574 40.643 126.574C40.2259 126.574 39.8856 126.778 39.7138 127.131C39.625 127.314 39.6124 127.407 39.5484 128.368C39.4084 130.463 39.308 132.633 39.2638 134.516L39.2383 135.6H39.1181C39.052 135.6 38.9197 135.589 38.824 135.576L38.65 135.551V134.385V133.219L38.5556 133.154C38.4672 133.094 38.4244 133.095 37.8899 133.176C37.1927 133.281 37.0517 133.317 37.0226 133.396C37.0102 133.43 37 134.122 37 134.935C37 136.26 37.0063 136.417 37.062 136.465C37.1104 136.507 37.3508 136.521 38.1682 136.53L39.2125 136.542V136.7C39.2125 136.821 39.183 136.895 39.0856 137.02C38.7205 137.489 38.5008 138.302 38.5002 139.187C38.4998 139.91 38.6819 140.453 39.048 140.82L39.25 141.022V141.335C39.25 141.579 39.2363 141.659 39.1878 141.701C39.0773 141.797 38.9892 142.058 38.9883 142.292L38.9875 142.517H40.1313H41.275V142.986V143.455H40.1313H38.9875L38.9883 143.621C38.99 143.957 39.2117 144.262 39.5125 144.343L39.6438 144.378L39.6625 145.131C39.6796 145.818 39.6876 145.889 39.754 145.939C39.8606 146.02 41.6019 146.02 41.7085 145.939C41.775 145.889 41.7829 145.818 41.8 145.128L41.8188 144.373H46H50.1813L50.2 145.128C50.2171 145.818 50.2251 145.889 50.2915 145.939C50.3981 146.02 52.1394 146.02 52.246 145.939C52.3124 145.889 52.3204 145.818 52.3375 145.131L52.3563 144.378L52.4875 144.343C52.7883 144.262 53.01 143.957 53.0117 143.621L53.0125 143.455H51.8688H50.725V142.986V142.517H51.8688H53.0125L53.0117 142.292C53.0108 142.058 52.9227 141.797 52.8122 141.701C52.7637 141.659 52.75 141.579 52.75 141.335V141.022L52.952 140.82C53.3181 140.453 53.5002 139.91 53.4998 139.187C53.4993 138.302 53.2795 137.489 52.9144 137.02C52.817 136.895 52.7875 136.821 52.7875 136.7V136.542L53.8318 136.53C54.6492 136.521 54.8896 136.507 54.9381 136.465C54.9937 136.417 55 136.26 55 134.935C55 134.122 54.9898 133.43 54.9774 133.396C54.9483 133.317 54.8073 133.281 54.1101 133.176C53.5756 133.095 53.5328 133.094 53.4444 133.154L53.35 133.219V134.385V135.551L53.176 135.576C53.0803 135.589 52.948 135.6 52.8819 135.6H52.7617L52.7362 134.516C52.692 132.633 52.5916 130.463 52.4517 128.368C52.3876 127.407 52.375 127.314 52.2862 127.131C52.1144 126.778 51.7741 126.574 51.3567 126.574C51.1987 126.574 51.1704 126.561 51.1231 126.467C51.0547 126.33 50.8936 126.174 50.725 126.08C50.5992 126.011 50.4048 126.007 46.0563 126.001C43.5606 125.997 41.4765 126.008 41.4248 126.024ZM42.9625 127.981V128.332H42.3063H41.65V127.981V127.629H42.3063H42.9625V127.981ZM50.35 127.981V128.332H49.6938H49.0375V127.981V127.629H49.6938H50.35V127.981ZM51.269 129.671C51.3036 129.773 51.5117 133.399 51.5122 133.91L51.5125 134.155H46H40.4875L40.4878 133.91C40.4883 133.399 40.6964 129.773 40.731 129.671C40.7554 129.599 51.2446 129.599 51.269 129.671ZM40.291 138.795L40.2813 140.348L40.0959 140.36C39.7339 140.384 39.4775 140.204 39.3578 139.84C39.2812 139.608 39.2922 138.667 39.3756 138.316C39.4573 137.973 39.5992 137.646 39.7303 137.5C39.8443 137.374 40.0888 137.244 40.216 137.243L40.3009 137.242L40.291 138.795ZM51.9918 137.302C52.2829 137.429 52.4675 137.713 52.608 138.252C52.7052 138.624 52.726 139.586 52.6422 139.84C52.5225 140.204 52.2661 140.384 51.9041 140.36L51.7188 140.348L51.709 138.795C51.6992 137.253 51.6997 137.242 51.7758 137.242C51.8179 137.242 51.9151 137.269 51.9918 137.302ZM49.3515 137.388C49.3129 137.554 49.1889 137.714 49.0519 137.774C48.8673 137.854 43.1327 137.854 42.9481 137.774C42.8111 137.714 42.6871 137.554 42.6485 137.388L42.6236 137.281H46H49.3764L49.3515 137.388ZM49.975 138.708C49.975 138.926 49.7412 139.201 49.4957 139.272C49.3036 139.327 42.6964 139.327 42.5043 139.272C42.3255 139.22 42.1414 139.058 42.0761 138.896C41.9679 138.626 41.6071 138.648 46 138.648C49.5454 138.648 49.975 138.655 49.975 138.708ZM49.3569 140.212C49.37 140.235 49.3447 140.33 49.3006 140.425C49.2416 140.552 49.1785 140.619 49.0609 140.678C48.904 140.757 48.8529 140.758 46 140.758C43.1471 140.758 43.096 140.757 42.9391 140.678C42.8215 140.619 42.7584 140.552 42.6994 140.425C42.6553 140.33 42.63 140.235 42.6431 140.212C42.6591 140.185 43.7592 140.172 46 140.172C48.2409 140.172 49.3409 140.185 49.3569 140.212ZM48.6696 141.813C48.6554 141.933 48.5605 142.075 48.4231 142.182C48.3217 142.261 48.2738 142.263 46.1379 142.275C44.938 142.281 43.8838 142.276 43.7953 142.262C43.6 142.233 43.3888 142.053 43.3431 141.878C43.3255 141.81 43.318 141.742 43.3266 141.725C43.3352 141.709 44.5435 141.7 46.0117 141.706L48.6813 141.716L48.6696 141.813Z" fill="#91A6F2"/>
<path fill-rule="evenodd" clip-rule="evenodd" d="M43.471 102.035C43.4612 102.045 43.4531 102.348 43.4531 102.707V103.36H44.0117H44.5703V106.665V109.97L49.7157 109.958L54.8612 109.946L55.1915 106.163C55.3732 104.083 55.5231 102.295 55.5246 102.19L55.5273 102L49.5082 102.008C46.1976 102.012 43.4809 102.024 43.471 102.035ZM36.2514 104.063C36.178 104.097 36.0797 104.184 36.0329 104.255C35.9861 104.327 35.5724 105.37 35.1136 106.574L34.2793 108.761L34.2665 109.958L34.2538 111.154H34.1269H34V112.431V113.707H34.6472H35.2943L35.2618 113.923C35.2087 114.277 35.2301 114.81 35.3089 115.1C35.6293 116.277 36.7087 117.075 37.8423 116.973C38.8247 116.885 39.6377 116.198 39.9547 115.188C40.0608 114.85 40.0675 114.783 40.0469 114.265L40.0247 113.707H44.5373H49.0498L49.0207 113.855C48.8454 114.747 49.0882 115.632 49.6803 116.258C50.1547 116.76 50.7491 117.01 51.4453 117C52.5352 116.984 53.4759 116.179 53.7483 115.031C53.8181 114.736 53.8153 114.05 53.7433 113.809L53.7126 113.707H54.8563H56V112.431V111.154H49.6414H43.2829L43.2713 107.785C43.2599 104.458 43.2586 104.414 43.1708 104.287C43.1218 104.216 43.0155 104.122 42.9344 104.078C42.798 104.004 42.5507 103.999 39.5859 104C36.9944 104.002 36.3594 104.014 36.2514 104.063ZM42.0679 106.927L42.0792 108.556H38.8769H35.6746L35.7425 108.385C35.7798 108.291 36.0526 107.579 36.3486 106.801C36.6447 106.024 36.897 105.363 36.9092 105.331C36.9267 105.286 37.4674 105.276 39.494 105.286L42.0566 105.297L42.0679 106.927ZM38.0255 113.22C38.2673 113.315 38.5434 113.556 38.6689 113.783C38.7772 113.978 38.791 114.047 38.791 114.39C38.791 114.841 38.7187 115.04 38.4564 115.31C37.8905 115.892 36.9449 115.713 36.5964 114.957C36.2961 114.306 36.6063 113.471 37.2366 113.235C37.4522 113.153 37.8369 113.147 38.0255 113.22ZM51.9828 113.363C53.0159 114.005 52.5752 115.683 51.3753 115.675C50.4364 115.669 49.8957 114.574 50.4185 113.737C50.7476 113.21 51.4619 113.039 51.9828 113.363Z" fill="#91A6F2"/>
<path fill-rule="evenodd" clip-rule="evenodd" d="M40.0804 77.0391C39.6886 77.1033 39.321 77.3576 39.1118 77.709C39.0613 77.7938 38.7562 78.5827 38.4338 79.4621C38.1113 80.3416 37.8311 81.1042 37.8111 81.157C37.7775 81.2455 37.7698 81.2361 37.7102 81.0343C37.5977 80.6531 37.6095 80.6565 36.4266 80.6565C35.3382 80.6565 35.2455 80.671 35.1547 80.8556C34.958 81.2551 34.9481 81.7901 35.1292 82.2383C35.232 82.4926 35.2932 82.506 36.3519 82.506C36.8703 82.506 37.2944 82.5205 37.2944 82.5383C37.2944 82.5561 37.2513 82.59 37.1987 82.6136C37.0193 82.6941 36.7911 82.9332 36.7197 83.1153C36.6535 83.2842 36.649 83.501 36.649 86.4938C36.649 89.4806 36.6535 89.6984 36.7177 89.7914C36.8582 89.995 36.8945 90 38.2332 90C39.5718 90 39.6081 89.995 39.7486 89.7914C39.8096 89.703 39.8187 89.5627 39.8297 88.5455L39.8421 87.3992H45H50.1579L50.1703 88.5455C50.1813 89.5627 50.1904 89.703 50.2514 89.7914C50.3919 89.995 50.4282 90 51.7668 90C53.1055 90 53.1418 89.995 53.2823 89.7914C53.3465 89.6984 53.351 89.4806 53.351 86.4938C53.351 83.501 53.3465 83.2842 53.2803 83.1153C53.2089 82.9332 52.9807 82.6941 52.8013 82.6136C52.7487 82.59 52.7056 82.5561 52.7056 82.5383C52.7056 82.5205 53.1297 82.506 53.6481 82.506C54.7068 82.506 54.768 82.4926 54.8708 82.2383C55.0519 81.7901 55.042 81.2551 54.8453 80.8556C54.7545 80.671 54.6618 80.6565 53.5734 80.6565C52.3904 80.6565 52.4023 80.653 52.2895 81.0348L52.2248 81.2538L52.1759 81.1189C51.5677 79.4398 50.9593 77.8288 50.8881 77.709C50.6765 77.353 50.3285 77.1144 49.9099 77.0382C49.6272 76.9867 40.3946 76.9876 40.0804 77.0391ZM50.1899 80.5217C50.5638 81.5389 50.8798 82.4101 50.8922 82.4578L50.9148 82.5445H45.0042C41.3329 82.5445 39.0937 82.5307 39.0937 82.5082C39.0937 82.4796 40.2878 79.1999 40.4589 78.7588L40.5 78.6527L45.005 78.6625L49.5101 78.6723L50.1899 80.5217ZM41.1341 83.9281C41.3738 84.09 41.4601 84.255 41.4601 84.5513C41.4601 84.7839 41.4476 84.8258 41.3386 84.9587C41.0906 85.261 41.0911 85.2608 39.8369 85.2608C39.2237 85.2608 38.674 85.2476 38.6152 85.2314C38.4492 85.1856 38.2449 84.9856 38.1719 84.7971C38.0337 84.4407 38.1823 84.0869 38.5483 83.9012C38.7194 83.8144 38.7401 83.8132 39.8594 83.8241C40.9883 83.8352 40.9977 83.8359 41.1341 83.9281ZM51.4531 83.9027C51.8172 84.0859 51.9661 84.4412 51.8281 84.7971C51.7551 84.9856 51.5508 85.1856 51.3848 85.2314C51.326 85.2476 50.7763 85.2608 50.1631 85.2608C48.9089 85.2608 48.9094 85.261 48.6614 84.9587C48.5524 84.8258 48.5399 84.7839 48.5399 84.5513C48.5399 84.3391 48.5573 84.2669 48.6359 84.154C48.7298 84.0189 48.8922 83.8987 49.0484 83.8487C49.0914 83.8349 49.6113 83.822 50.2037 83.8198C51.2476 83.8161 51.2862 83.8187 51.4531 83.9027Z" fill="#91A6F2"/>
<path opacity="0.25" d="M333.527 129C307.274 129 286 150.311 286 176.61C286 202.908 307.274 224.219 333.527 224.219C359.78 224.219 381.054 202.908 381.054 176.61C381.054 150.311 359.78 129 333.527 129ZM333.527 212.757C313.615 212.757 297.467 196.581 297.467 176.634C297.467 156.687 313.615 140.512 333.527 140.512C353.439 140.512 369.587 156.687 369.587 176.634C369.587 196.581 353.439 212.757 333.527 212.757Z" fill="#91A6F2"/>
<path opacity="0.25" d="M348.82 191.945C357.273 183.477 357.273 169.748 348.82 161.28C340.367 152.812 326.662 152.812 318.208 161.28C309.755 169.748 309.755 183.477 318.208 191.945C326.662 200.412 340.367 200.413 348.82 191.945Z" fill="#91A6F2"/>
<path d="M286 90.5911L286 69.3991C286 68.6262 287.566 68 289.5 68C291.434 68 293 68.6262 293 69.3991L293 90.6009C293 91.3738 291.434 92 289.5 92C287.566 91.9902 286 91.364 286 90.5911Z" fill="#91A6F2"/>
<path d="M308 90.5911L308 69.3991C308 68.6262 309.566 68 311.5 68C313.434 68 315 68.6262 315 69.3991L315 90.6009C315 91.3738 313.434 92 311.5 92C309.566 91.9902 308 91.364 308 90.5911Z" fill="#91A6F2"/>
<path d="M340 90.5911L340 69.3991C340 68.6262 341.566 68 343.5 68C345.434 68 347 68.6262 347 69.3991L347 90.6009C347 91.3738 345.434 92 343.5 92C341.566 91.9902 340 91.364 340 90.5911Z" fill="#91A6F2"/>
<path d="M317 90.5911L317 69.3991C317 68.6262 318.566 68 320.5 68C322.434 68 324 68.6262 324 69.3991L324 90.6009C324 91.3738 322.434 92 320.5 92C318.566 91.9902 317 91.364 317 90.5911Z" fill="#91A6F2"/>
<path d="M295 90.5911L295 69.3991C295 68.6262 295.671 68 296.5 68C297.329 68 298 68.6262 298 69.3991L298 90.6009C298 91.3738 297.329 92 296.5 92C295.671 91.9902 295 91.364 295 90.5911Z" fill="#91A6F2"/>
<path d="M299 90.5911L299 69.3991C299 68.6262 299.671 68 300.5 68C301.329 68 302 68.6262 302 69.3991L302 90.6009C302 91.3738 301.329 92 300.5 92C299.671 91.9902 299 91.364 299 90.5911Z" fill="#91A6F2"/>
<path d="M303 90.5911L303 69.3991C303 68.6262 303.671 68 304.5 68C305.329 68 306 68.6262 306 69.3991L306 90.6009C306 91.3738 305.329 92 304.5 92C303.671 91.9902 303 91.364 303 90.5911Z" fill="#91A6F2"/>
<path d="M348 90.5911L348 69.3991C348 68.6262 348.671 68 349.5 68C350.329 68 351 68.6262 351 69.3991L351 90.6009C351 91.3738 350.329 92 349.5 92C348.671 91.9902 348 91.364 348 90.5911Z" fill="#91A6F2"/>
<path d="M352 90.5911L352 69.3991C352 68.6262 352.671 68 353.5 68C354.329 68 355 68.6262 355 69.3991L355 90.6009C355 91.3738 354.329 92 353.5 92C352.671 91.9902 352 91.364 352 90.5911Z" fill="#91A6F2"/>
<path d="M325 90.5911L325 69.3991C325 68.6262 325.448 68 326 68C326.552 68 327 68.6262 327 69.3991L327 90.6009C327 91.3738 326.552 92 326 92C325.448 91.9902 325 91.364 325 90.5911Z" fill="#91A6F2"/>
<path d="M328 90.5911L328 69.3991C328 68.6262 328.448 68 329 68C329.552 68 330 68.6262 330 69.3991L330 90.6009C330 91.3738 329.552 92 329 92C328.448 91.9902 328 91.364 328 90.5911Z" fill="#91A6F2"/>
<path d="M331 90.5911L331 69.3991C331 68.6262 331.448 68 332 68C332.552 68 333 68.6262 333 69.3991L333 90.6009C333 91.3738 332.552 92 332 92C331.448 91.9902 331 91.364 331 90.5911Z" fill="#91A6F2"/>
<path d="M334 90.5911L334 69.3991C334 68.6262 334.448 68 335 68C335.552 68 336 68.6262 336 69.3991L336 90.6009C336 91.3738 335.552 92 335 92C334.448 91.9902 334 91.364 334 90.5911Z" fill="#91A6F2"/>
<path d="M337 90.5911L337 69.3991C337 68.6262 337.448 68 338 68C338.552 68 339 68.6262 339 69.3991L339 90.6009C339 91.3738 338.552 92 338 92C337.448 91.9902 337 91.364 337 90.5911Z" fill="#91A6F2"/>
<path d="M337.363 23.5663L314.479 55.8435H403.737V23.5663H337.363Z" fill="#FFB445"/>
<path d="M84.3229 23.5663H1.57788V55.8435H61.4139L84.3229 23.5663Z" fill="#FFB445"/>
<path d="M106.563 39.8165C106.563 41.305 106.316 42.6696 105.82 43.9349C105.325 45.1753 104.632 46.267 103.74 47.1601C102.848 48.0532 101.759 48.7479 100.496 49.2441C99.2325 49.7403 97.8208 49.9884 96.2853 49.9884H88.5581V29.6445H96.2853C97.8208 29.6445 99.2325 29.8926 100.496 30.3888C101.759 30.885 102.848 31.5797 103.74 32.4728C104.632 33.366 105.325 34.4328 105.82 35.6981C106.316 36.9634 106.563 38.3279 106.563 39.8165ZM102.675 39.8165C102.675 38.7 102.526 37.7077 102.229 36.8145C101.932 35.9214 101.511 35.1771 100.941 34.5568C100.397 33.9366 99.7031 33.4652 98.9105 33.1427C98.118 32.8202 97.2264 32.6465 96.2357 32.6465H92.2979V46.9616H96.2357C97.2264 46.9616 98.118 46.788 98.9105 46.4654C99.7031 46.1429 100.372 45.6715 100.941 45.0513C101.486 44.431 101.932 43.6868 102.229 42.7936C102.551 41.9253 102.675 40.9329 102.675 39.8165Z" fill="#FA3C32"/>
<path d="M125.733 49.9884H122.315C121.671 49.9884 121.201 49.7403 120.903 49.2193L116.668 42.7192C116.52 42.4711 116.322 42.2974 116.148 42.1982C115.95 42.0989 115.678 42.0493 115.306 42.0493H113.696V49.9884H109.907V29.6445H116.099C117.486 29.6445 118.65 29.7934 119.64 30.0663C120.631 30.364 121.448 30.761 122.067 31.2572C122.711 31.7782 123.157 32.3984 123.454 33.1179C123.751 33.8374 123.9 34.6313 123.9 35.4996C123.9 36.1943 123.801 36.8393 123.603 37.4347C123.405 38.055 123.108 38.6008 122.736 39.097C122.365 39.5932 121.894 40.0398 121.324 40.4119C120.755 40.784 120.136 41.0817 119.417 41.305C119.665 41.4539 119.888 41.6027 120.086 41.8012C120.284 41.9997 120.482 42.223 120.656 42.4711L125.733 49.9884ZM116.024 39.3203C116.743 39.3203 117.362 39.221 117.882 39.0474C118.402 38.8737 118.848 38.6256 119.194 38.3031C119.541 37.9806 119.789 37.6084 119.962 37.1866C120.136 36.7649 120.21 36.2935 120.21 35.7725C120.21 34.7305 119.863 33.9366 119.194 33.3908C118.526 32.845 117.486 32.5721 116.074 32.5721H113.647V39.3203H116.024Z" fill="#FA3C32"/>
<path d="M131.751 49.9884H127.962V29.6445H131.751V49.9884Z" fill="#FA3C32"/>
<path d="M153.669 29.6445L145.472 49.9884H142.054L133.856 29.6445H136.878C137.2 29.6445 137.472 29.719 137.67 29.8926C137.868 30.0415 138.042 30.2648 138.141 30.5129L142.921 42.9177C143.069 43.3146 143.243 43.7612 143.367 44.2574C143.515 44.7288 143.639 45.2498 143.788 45.7708C143.911 45.2498 144.01 44.7536 144.159 44.2574C144.283 43.786 144.432 43.3394 144.605 42.9177L149.36 30.5129C149.434 30.2896 149.583 30.0911 149.806 29.9174C150.029 29.7438 150.301 29.6445 150.623 29.6445H153.669Z" fill="#FA3C32"/>
<path d="M159.564 32.6465V38.2783H166.672V41.181H159.564V46.9368H168.579V49.9636H155.774V29.6198H168.579V32.6217H159.564V32.6465Z" fill="#FA3C32"/>
<path d="M187.773 49.9884H184.355C183.711 49.9884 183.241 49.7403 182.944 49.2193L178.684 42.7192C178.535 42.4711 178.337 42.2974 178.164 42.1982C177.965 42.0989 177.693 42.0493 177.321 42.0493H175.712V49.9884H171.922V29.6445H178.114C179.501 29.6445 180.665 29.7934 181.656 30.0663C182.646 30.364 183.464 30.761 184.083 31.2572C184.727 31.7782 185.173 32.3984 185.47 33.1179C185.767 33.8374 185.916 34.6313 185.916 35.4996C185.916 36.1943 185.816 36.8393 185.618 37.4347C185.42 38.055 185.123 38.6008 184.751 39.097C184.38 39.5932 183.909 40.0398 183.34 40.4119C182.795 40.784 182.151 41.0817 181.433 41.305C181.68 41.4539 181.903 41.6027 182.101 41.8012C182.3 41.9997 182.498 42.223 182.671 42.4711L187.773 49.9884ZM178.064 39.3203C178.783 39.3203 179.402 39.221 179.922 39.0474C180.442 38.8737 180.888 38.6256 181.235 38.3031C181.581 37.9806 181.829 37.6084 182.002 37.1866C182.176 36.7649 182.25 36.2935 182.25 35.7725C182.25 34.7305 181.903 33.9366 181.235 33.3908C180.566 32.845 179.526 32.5721 178.114 32.5721H175.687V39.3203H178.064Z" fill="#FA3C32"/>
<path d="M215.536 46.8624V49.9884H203.648V29.6445H207.438V46.8624H215.536Z" fill="#FA3C32"/>
<path d="M222.025 49.9884H218.236V29.6445H222.025V49.9884Z" fill="#FA3C32"/>
<path d="M240.501 45.1753C240.699 45.1753 240.897 45.2497 241.046 45.4234L242.532 47.036C241.714 48.0532 240.699 48.8471 239.485 49.3929C238.272 49.9387 236.835 50.2116 235.151 50.2116C233.641 50.2116 232.278 49.9636 231.09 49.4425C229.876 48.9215 228.861 48.2021 228.019 47.2841C227.176 46.3662 226.508 45.2745 226.062 43.9844C225.616 42.7192 225.393 41.305 225.393 39.8164C225.393 38.2782 225.641 36.8889 226.112 35.6236C226.607 34.3583 227.276 33.2667 228.167 32.3488C229.059 31.4308 230.099 30.7113 231.337 30.2151C232.576 29.6941 233.913 29.446 235.399 29.446C236.885 29.446 238.198 29.6941 239.337 30.1655C240.476 30.6617 241.467 31.282 242.259 32.0759L240.996 33.8373C240.922 33.9614 240.823 34.0606 240.699 34.135C240.575 34.2095 240.427 34.2591 240.204 34.2591C240.055 34.2591 239.907 34.2095 239.758 34.135C239.609 34.0606 239.436 33.9614 239.263 33.8373C239.089 33.7133 238.891 33.5892 238.643 33.4404C238.421 33.2915 238.148 33.1675 237.826 33.0434C237.529 32.9194 237.157 32.8201 236.761 32.7457C236.365 32.6713 235.894 32.6217 235.349 32.6217C234.433 32.6217 233.616 32.7953 232.848 33.1179C232.105 33.4404 231.436 33.9118 230.891 34.532C230.347 35.1522 229.926 35.8965 229.628 36.7897C229.331 37.6828 229.183 38.6752 229.183 39.8164C229.183 40.9577 229.356 41.9749 229.678 42.868C230 43.7612 230.446 44.5054 230.991 45.1257C231.535 45.7459 232.204 46.1925 232.947 46.515C233.69 46.8375 234.507 47.0112 235.374 47.0112C235.894 47.0112 236.365 46.9864 236.761 46.9368C237.182 46.8872 237.554 46.7879 237.9 46.6639C238.247 46.5398 238.594 46.391 238.891 46.1925C239.213 45.994 239.51 45.7707 239.832 45.473C239.931 45.3986 240.03 45.3242 240.129 45.2745C240.278 45.2249 240.377 45.1753 240.501 45.1753Z" fill="#FA3C32"/>
<path d="M248.922 32.6465V38.2783H256.03V41.181H248.922V46.9368H257.937V49.9636H245.132V29.6198H257.937V32.6217H248.922V32.6465Z" fill="#FA3C32"/>
<path d="M278.394 29.6446V49.9884H276.462C276.165 49.9884 275.917 49.9388 275.719 49.8396C275.521 49.7403 275.323 49.5667 275.125 49.3434L264.524 35.7725C264.574 36.3928 264.599 36.9634 264.599 37.4844V49.9636H261.28V29.6198H263.261C263.41 29.6198 263.559 29.6197 263.682 29.6446C263.806 29.6694 263.905 29.6942 263.98 29.719C264.079 29.7686 264.153 29.8182 264.227 29.8927C264.302 29.9671 264.401 30.0663 264.5 30.2152L275.149 43.8356C275.125 43.5131 275.1 43.1906 275.075 42.8681C275.05 42.5455 275.05 42.2478 275.05 41.9749V29.6198H278.394V29.6446Z" fill="#FA3C32"/>
<path d="M293.724 33.3412C293.601 33.5397 293.501 33.6885 293.378 33.7629C293.254 33.8622 293.105 33.887 292.907 33.887C292.709 33.887 292.486 33.8126 292.263 33.6637C292.04 33.5148 291.768 33.366 291.446 33.1675C291.124 32.9938 290.752 32.8202 290.331 32.6713C289.91 32.5225 289.39 32.448 288.821 32.448C288.3 32.448 287.83 32.5225 287.434 32.6465C287.037 32.7706 286.715 32.9442 286.443 33.1675C286.171 33.3908 285.972 33.6637 285.849 33.9862C285.725 34.3087 285.65 34.6561 285.65 35.0282C285.65 35.4996 285.774 35.8966 286.047 36.2191C286.319 36.5416 286.666 36.8145 287.112 37.0378C287.557 37.2611 288.053 37.4596 288.622 37.6332C289.192 37.8069 289.762 38.0054 290.356 38.2038C290.95 38.4023 291.52 38.6504 292.09 38.8985C292.659 39.1714 293.155 39.4939 293.601 39.9157C294.046 40.3127 294.393 40.8337 294.665 41.4043C294.938 41.9997 295.062 42.7192 295.062 43.5627C295.062 44.4807 294.913 45.349 294.591 46.1429C294.269 46.9368 293.823 47.6315 293.204 48.2269C292.61 48.8223 291.867 49.2937 291 49.641C290.133 49.9884 289.143 50.162 288.003 50.162C287.359 50.162 286.715 50.0876 286.096 49.9636C285.477 49.8395 284.858 49.6658 284.288 49.4178C283.719 49.1945 283.174 48.8968 282.678 48.5742C282.183 48.2517 281.713 47.8796 281.341 47.4826L282.456 45.6715C282.555 45.5475 282.678 45.4234 282.827 45.349C282.976 45.2498 283.124 45.2249 283.298 45.2249C283.521 45.2249 283.793 45.3242 284.065 45.5227C284.338 45.7211 284.66 45.9196 285.031 46.1677C285.403 46.391 285.849 46.6143 286.344 46.8128C286.839 47.0112 287.434 47.1105 288.152 47.1105C289.217 47.1105 290.059 46.8624 290.653 46.3414C291.248 45.8204 291.545 45.1009 291.545 44.1333C291.545 43.5875 291.421 43.1657 291.149 42.8184C290.876 42.4711 290.529 42.1982 290.084 41.9749C289.638 41.7516 289.143 41.5531 288.573 41.3795C288.003 41.2306 287.434 41.0569 286.864 40.8585C286.294 40.66 285.725 40.4367 285.155 40.1886C284.585 39.9157 284.09 39.5932 283.644 39.1714C283.199 38.7497 282.852 38.2286 282.579 37.5836C282.307 36.9386 282.183 36.1695 282.183 35.2515C282.183 34.5072 282.332 33.7877 282.629 33.0931C282.926 32.3984 283.347 31.7782 283.917 31.2324C284.486 30.6866 285.18 30.2648 285.997 29.9175C286.814 29.5949 287.756 29.4213 288.845 29.4213C290.034 29.4213 291.149 29.6197 292.164 29.9919C293.179 30.364 294.046 30.885 294.74 31.5797L293.724 33.3412Z" fill="#FA3C32"/>
<path d="M302.12 32.6465V38.2783H309.228V41.181H302.12V46.9368H311.135V49.9636H298.331V29.6198H311.135V32.6217H302.12V32.6465Z" fill="#FA3C32"/>
<path d="M105.87 214.327H38.6781C36.7215 214.327 35.1365 212.739 35.1365 210.779C35.1365 208.819 36.7215 207.231 38.6781 207.231H105.87C107.826 207.231 109.411 208.819 109.411 210.779C109.411 212.739 107.826 214.327 105.87 214.327Z" fill="#91A6F2"/>
<path d="M370.55 191.428H330.131V215.245H370.55V191.428Z" fill="#91A6F2"/>
<path d="M309.575 236.755H269.998C269.453 236.755 269.007 236.308 269.007 235.762C269.007 235.217 269.453 234.77 269.998 234.77H309.575C310.12 234.77 310.565 235.217 310.565 235.762C310.565 236.308 310.12 236.755 309.575 236.755Z" fill="#C4968F"/>
<path d="M385.534 236.755H332.608C332.063 236.755 331.617 236.308 331.617 235.762C331.617 235.217 332.063 234.77 332.608 234.77H385.41C386.648 234.621 402.747 232.314 402.747 217.478V67.7025C402.747 67.1567 403.193 66.7101 403.737 66.7101C404.282 66.7101 404.728 67.1567 404.728 67.7025V217.478C404.728 234.348 385.782 236.73 385.608 236.755H385.534Z" fill="#C4968F"/>
<path d="M403.737 31.6541C403.193 31.6541 402.747 31.2075 402.747 30.6617V20.068C402.747 19.3734 402.301 2.77578 385.484 2.77578H265.713C265.168 2.77578 264.723 2.32921 264.723 1.7834C264.723 1.23759 265.168 0.791016 265.713 0.791016H385.484C404.257 0.791016 404.728 19.8696 404.728 20.0432V30.6369C404.703 31.2075 404.282 31.6541 403.737 31.6541Z" fill="#C4968F"/>
<path d="M242.135 2.77578H187.525C186.98 2.77578 186.534 2.32921 186.534 1.7834C186.534 1.23759 186.98 0.791016 187.525 0.791016H242.135C242.68 0.791016 243.126 1.23759 243.126 1.7834C243.101 2.32921 242.68 2.77578 242.135 2.77578Z" fill="#C4968F"/>
<path d="M159.539 2.77578H147.156C146.611 2.77578 146.165 2.32921 146.165 1.7834C146.165 1.23759 146.611 0.791016 147.156 0.791016H159.539C160.084 0.791016 160.53 1.23759 160.53 1.7834C160.53 2.32921 160.084 2.77578 159.539 2.77578Z" fill="#C4968F"/>
<path d="M1.57782 112.856C1.03296 112.856 0.587158 112.409 0.587158 111.863V23.5662C0.587158 15.7512 2.69232 9.77213 6.87786 5.77779C12.3265 0.592595 19.2859 0.76626 19.8555 0.791069H112.978C113.523 0.791069 113.968 1.23764 113.968 1.78345C113.968 2.32926 113.523 2.77583 112.978 2.77583H19.7812C19.7069 2.77583 13.1438 2.52774 8.21526 7.24155C4.47551 10.8141 2.56848 16.3218 2.56848 23.5662V111.863C2.56848 112.434 2.12268 112.856 1.57782 112.856Z" fill="#C4968F"/>
<path d="M1.57782 147.713C1.03296 147.713 0.587158 147.267 0.587158 146.721V130.322C0.587158 129.776 1.03296 129.329 1.57782 129.329C2.12269 129.329 2.56849 129.776 2.56849 130.322V146.721C2.56849 147.267 2.12269 147.713 1.57782 147.713Z" fill="#C4968F"/>
<path d="M84.1247 238.367C51.4824 238.367 25.1308 237.97 19.6078 236.73C2.8904 233.009 1.42917 223.333 1.37964 222.911V222.787V172.672C1.37964 172.126 1.82544 171.679 2.3703 171.679C2.91517 171.679 3.36096 172.126 3.36096 172.672V222.713C3.50956 223.506 5.26799 231.52 20.0536 234.82C35.9785 238.367 236.538 234.82 238.569 234.795C239.114 234.795 239.56 235.217 239.56 235.762C239.56 236.308 239.139 236.755 238.594 236.755C233.145 236.854 146.982 238.367 84.1247 238.367Z" fill="#C4968F"/>
<path fill-rule="evenodd" clip-rule="evenodd" d="M51.3347 156.186C51.3615 156.288 51.517 156.87 51.6804 157.479C51.8438 158.088 51.9775 158.595 51.9775 158.606C51.9775 158.618 52.3451 158.627 52.7945 158.627H53.6115V159.305V159.984H52.988C52.6451 159.984 52.3648 159.999 52.3652 160.017C52.3655 160.035 52.411 160.217 52.4662 160.422L52.5666 160.794L53.5728 160.819C54.6022 160.845 54.889 160.884 55.5391 161.084C55.8476 161.18 56.7045 161.594 56.8775 161.731L56.983 161.815L56.6242 162.366C56.4269 162.669 56.2607 162.917 56.2548 162.917C56.2489 162.917 56.1125 162.839 55.9517 162.743C55.2781 162.343 54.576 162.173 53.5898 162.173H52.9326L52.9864 162.359L53.0402 162.545L53.5301 162.572C54.0861 162.603 54.3132 162.654 54.774 162.851C56.5653 163.614 57.4551 165.732 56.7679 167.596C56.439 168.488 55.6648 169.314 54.8109 169.685C53.4963 170.255 52.0726 170.038 50.9568 169.098C50.4905 168.705 49.9784 167.874 49.8052 167.23C49.7653 167.081 49.7253 166.719 49.7132 166.398C49.6939 165.887 49.7029 165.785 49.8021 165.394C50.0496 164.419 50.6558 163.579 51.4681 163.086L51.7543 162.912L51.6292 162.444C51.5603 162.187 51.4523 161.782 51.3892 161.544C51.2994 161.206 51.2643 161.126 51.2277 161.177C51.202 161.213 50.4953 162.525 49.6573 164.093L48.1335 166.945H45.1981H42.2626L42.2155 167.131C42.0785 167.673 41.8776 168.1 41.5493 168.547C40.8514 169.498 39.6168 170.074 38.4491 169.992C37.4887 169.925 36.6747 169.538 36.0138 168.834C35.301 168.074 34.949 167.116 35.006 166.091C35.1005 164.392 36.279 162.982 37.8967 162.633C38.2843 162.549 39.0319 162.549 39.4216 162.633C40.0616 162.77 40.6826 163.109 41.176 163.59C41.6627 164.064 41.9466 164.534 42.1521 165.205L42.2694 165.588H42.8898H43.5102L43.4829 165.424C43.3689 164.738 42.9914 163.857 42.5639 163.28C42.1025 162.656 41.5222 162.167 40.8187 161.81C40.0303 161.409 39.4667 161.297 38.2331 161.297H37.3572V160.619V159.94L41.41 159.94L45.4628 159.94L45.5909 159.688C45.8342 159.21 46.3054 158.832 46.8389 158.686C47.0018 158.642 47.484 158.628 48.8285 158.627L50.6031 158.627L50.5736 158.506C50.5574 158.44 50.4829 158.159 50.408 157.883L50.272 157.379L49.1252 157.367L47.9784 157.356V156.678V156H49.6323H51.2862L51.3347 156.186ZM45.9402 163.182C45.7543 163.31 45.5703 163.657 45.5703 163.88C45.5703 164.094 45.7297 164.395 45.9291 164.557C46.0794 164.678 46.1228 164.69 46.4089 164.69C46.6949 164.69 46.7383 164.678 46.8886 164.557C47.0839 164.398 47.2474 164.095 47.2474 163.892C47.2474 163.593 47.022 163.236 46.7529 163.108C46.5508 163.013 46.1303 163.051 45.9402 163.182ZM38.1097 163.976C37.5309 164.1 36.8618 164.632 36.5859 165.188C36.087 166.195 36.3366 167.397 37.1928 168.112C38.3556 169.083 40.1343 168.66 40.7609 167.263C40.8282 167.114 40.8832 166.981 40.8832 166.968C40.8832 166.955 40.235 166.945 39.4427 166.945H38.0022V166.267V165.588H39.4408H40.8794L40.8195 165.415C40.733 165.166 40.4905 164.796 40.2745 164.584C39.6874 164.009 38.9387 163.799 38.1097 163.976ZM53.4603 164.132C53.5698 164.517 53.9496 165.959 53.9634 166.042C53.9752 166.113 53.8929 166.148 53.3596 166.296C53.02 166.391 52.7317 166.458 52.719 166.445C52.7063 166.432 52.573 165.963 52.4229 165.403C52.2728 164.842 52.1402 164.358 52.1284 164.326C52.0861 164.213 51.6473 164.609 51.3952 164.989C51.0646 165.486 50.9345 166.331 51.1 166.904C51.2579 167.451 51.7035 168.048 52.1564 168.318C53.6547 169.212 55.5551 168.183 55.6621 166.42C55.7049 165.715 55.4845 165.132 54.981 164.617C54.5781 164.204 54.037 163.938 53.5816 163.928L53.4011 163.924L53.4603 164.132Z" fill="#91A6F2"/>
<rect x="66" y="157" width="194" height="14" rx="7" fill="#91A6F2"/>
<rect x="66" y="129" width="194" height="14" rx="7" fill="#91A6F2"/>
<rect x="66" y="101" width="194" height="14" rx="7" fill="#91A6F2"/>
<rect x="66" y="75" width="194" height="14" rx="7" fill="#91A6F2"/>
</svg>
