<svg width="405" height="239" viewBox="0 0 405 239" fill="none" xmlns="http://www.w3.org/2000/svg">
<path d="M385.46 235.762H19.8308C9.75078 235.762 1.57782 227.575 1.57782 217.478V20.0681C1.57782 9.9706 9.75078 1.78345 19.8308 1.78345H385.46C395.54 1.78345 403.712 9.9706 403.712 20.0681V217.478C403.737 227.575 395.564 235.762 385.46 235.762Z" fill="#E7E6FF"/>
<path opacity="0.25" d="M265.713 112.633C239.461 112.633 218.186 133.944 218.186 160.242C218.186 186.54 239.461 207.852 265.713 207.852C291.966 207.852 313.24 186.54 313.24 160.242C313.24 133.944 291.966 112.633 265.713 112.633ZM265.713 196.39C245.801 196.39 229.653 180.214 229.653 160.267C229.653 140.32 245.801 124.144 265.713 124.144C285.626 124.144 301.773 140.32 301.773 160.267C301.773 180.214 285.626 196.39 265.713 196.39Z" fill="#91A6F2"/>
<path opacity="0.25" d="M281.006 175.577C289.46 167.109 289.46 153.38 281.006 144.912C272.553 136.444 258.848 136.444 250.395 144.912C241.941 153.38 241.941 167.109 250.395 175.577C258.848 184.045 272.553 184.045 281.006 175.577Z" fill="#91A6F2"/>
<path d="M119.764 74.3018H27.1617V200.508H119.764V74.3018Z" fill="#D0B5B7"/>
<path d="M119.764 200.508H27.1617V175.178C27.1617 167.933 32.3874 161.78 39.5202 160.614L73.4504 155.082L107.381 160.614C114.513 161.78 119.739 167.933 119.739 175.178V200.508H119.764Z" fill="#A07666"/>
<path d="M366.216 95.911H165.21C160.852 95.911 157.335 92.388 157.335 88.0215C157.335 83.655 160.852 80.1321 165.21 80.1321H366.216C370.575 80.1321 374.092 83.655 374.092 88.0215C374.092 92.388 370.575 95.911 366.216 95.911Z" fill="#FB5B16"/>
<path d="M218.855 127.667H165.21C163.254 127.667 161.669 126.079 161.669 124.119C161.669 122.159 163.254 120.572 165.21 120.572H218.88C220.836 120.572 222.421 122.159 222.421 124.119C222.396 126.079 220.811 127.667 218.855 127.667Z" fill="#91A6F2"/>
<path d="M366.216 132.009H298.975C294.616 132.009 291.099 128.486 291.099 124.119C291.099 119.753 294.616 116.23 298.975 116.23H366.216C370.575 116.23 374.092 119.753 374.092 124.119C374.092 128.486 370.575 132.009 366.216 132.009Z" fill="#91A6F2"/>
<path d="M237.182 142.106H165.211C163.254 142.106 161.669 140.518 161.669 138.559C161.669 136.599 163.254 135.011 165.211 135.011H237.182C239.139 135.011 240.724 136.599 240.724 138.559C240.724 140.518 239.139 142.106 237.182 142.106Z" fill="#91A6F2"/>
<path d="M264.921 156.545H165.21C163.254 156.545 161.669 154.958 161.669 152.998C161.669 151.038 163.254 149.45 165.21 149.45H264.945C266.902 149.45 268.487 151.038 268.487 152.998C268.462 154.958 266.877 156.545 264.921 156.545Z" fill="#91A6F2"/>
<path d="M264.921 170.985H165.21C163.254 170.985 161.669 169.397 161.669 167.437C161.669 165.477 163.254 163.889 165.21 163.889H264.945C266.902 163.889 268.487 165.477 268.487 167.437C268.462 169.397 266.877 170.985 264.921 170.985Z" fill="#91A6F2"/>
<path d="M218.855 185.424H165.21C163.254 185.424 161.669 183.836 161.669 181.876C161.669 179.916 163.254 178.328 165.21 178.328H218.88C220.836 178.328 222.421 179.916 222.421 181.876C222.396 183.836 220.811 185.424 218.855 185.424Z" fill="#91A6F2"/>
<path d="M198.67 214.327H176.355C174.399 214.327 172.814 212.739 172.814 210.779C172.814 208.819 174.399 207.231 176.355 207.231H198.67C200.627 207.231 202.212 208.819 202.212 210.779C202.212 212.739 200.627 214.327 198.67 214.327Z" fill="#91A6F2"/>
<path d="M264.921 214.327H228.984C227.028 214.327 225.443 212.739 225.443 210.779C225.443 208.819 227.028 207.231 228.984 207.231H264.921C266.877 207.231 268.462 208.819 268.462 210.779C268.462 212.739 266.877 214.327 264.921 214.327Z" fill="#FFB445"/>
<path d="M198.67 199.888H176.355C174.399 199.888 172.814 198.3 172.814 196.34C172.814 194.38 174.399 192.792 176.355 192.792H198.67C200.627 192.792 202.212 194.38 202.212 196.34C202.212 198.275 200.627 199.888 198.67 199.888Z" fill="#91A6F2"/>
<path d="M337.363 23.5663L314.479 55.8435H403.737V23.5663H337.363Z" fill="#FFB445"/>
<path d="M84.3229 23.5663H1.57782V55.8435H61.4138L84.3229 23.5663Z" fill="#FFB445"/>
<path d="M106.563 39.8165C106.563 41.305 106.316 42.6696 105.82 43.9349C105.325 45.1753 104.632 46.267 103.74 47.1601C102.848 48.0532 101.759 48.7479 100.495 49.2441C99.2324 49.7403 97.8207 49.9884 96.2852 49.9884H88.558V29.6445H96.2852C97.8207 29.6445 99.2324 29.8926 100.495 30.3888C101.759 30.885 102.848 31.5797 103.74 32.4728C104.632 33.366 105.325 34.4328 105.82 35.6981C106.316 36.9634 106.563 38.3279 106.563 39.8165ZM102.675 39.8165C102.675 38.7 102.526 37.7077 102.229 36.8145C101.932 35.9214 101.511 35.1771 100.941 34.5568C100.396 33.9366 99.703 33.4652 98.9104 33.1427C98.1179 32.8202 97.2263 32.6465 96.2356 32.6465H92.2977V46.9616H96.2356C97.2263 46.9616 98.1179 46.788 98.9104 46.4654C99.703 46.1429 100.372 45.6715 100.941 45.0513C101.486 44.431 101.932 43.6868 102.229 42.7936C102.551 41.9253 102.675 40.9329 102.675 39.8165Z" fill="#FA3C32"/>
<path d="M125.733 49.9884H122.315C121.671 49.9884 121.2 49.7403 120.903 49.2193L116.668 42.7192C116.519 42.4711 116.321 42.2974 116.148 42.1982C115.95 42.0989 115.677 42.0493 115.306 42.0493H113.696V49.9884H109.907V29.6445H116.098C117.485 29.6445 118.649 29.7934 119.64 30.0663C120.631 30.364 121.448 30.761 122.067 31.2572C122.711 31.7782 123.157 32.3984 123.454 33.1179C123.751 33.8374 123.9 34.6313 123.9 35.4996C123.9 36.1943 123.801 36.8393 123.603 37.4347C123.405 38.055 123.107 38.6008 122.736 39.097C122.364 39.5932 121.894 40.0398 121.324 40.4119C120.754 40.784 120.135 41.0817 119.417 41.305C119.665 41.4539 119.888 41.6027 120.086 41.8012C120.284 41.9997 120.482 42.223 120.655 42.4711L125.733 49.9884ZM116.024 39.3203C116.742 39.3203 117.361 39.221 117.882 39.0474C118.402 38.8737 118.847 38.6256 119.194 38.3031C119.541 37.9806 119.789 37.6084 119.962 37.1866C120.135 36.7649 120.21 36.2935 120.21 35.7725C120.21 34.7305 119.863 33.9366 119.194 33.3908C118.526 32.845 117.485 32.5721 116.074 32.5721H113.646V39.3203H116.024Z" fill="#FA3C32"/>
<path d="M131.751 49.9884H127.962V29.6445H131.751V49.9884Z" fill="#FA3C32"/>
<path d="M153.669 29.6445L145.471 49.9884H142.054L133.856 29.6445H136.877C137.199 29.6445 137.472 29.719 137.67 29.8926C137.868 30.0415 138.041 30.2648 138.141 30.5129L142.921 42.9177C143.069 43.3146 143.242 43.7612 143.366 44.2574C143.515 44.7288 143.639 45.2498 143.787 45.7708C143.911 45.2498 144.01 44.7536 144.159 44.2574C144.283 43.786 144.431 43.3394 144.605 42.9177L149.36 30.5129C149.434 30.2896 149.583 30.0911 149.806 29.9174C150.029 29.7438 150.301 29.6445 150.623 29.6445H153.669Z" fill="#FA3C32"/>
<path d="M159.564 32.6465V38.2783H166.672V41.181H159.564V46.9368H168.579V49.9636H155.774V29.6198H168.579V32.6217H159.564V32.6465Z" fill="#FA3C32"/>
<path d="M187.773 49.9884H184.355C183.711 49.9884 183.241 49.7403 182.943 49.2193L178.683 42.7192C178.535 42.4711 178.337 42.2974 178.163 42.1982C177.965 42.0989 177.693 42.0493 177.321 42.0493H175.711V49.9884H171.922V29.6445H178.114C179.501 29.6445 180.665 29.7934 181.655 30.0663C182.646 30.364 183.463 30.761 184.083 31.2572C184.727 31.7782 185.172 32.3984 185.47 33.1179C185.767 33.8374 185.915 34.6313 185.915 35.4996C185.915 36.1943 185.816 36.8393 185.618 37.4347C185.42 38.055 185.123 38.6008 184.751 39.097C184.38 39.5932 183.909 40.0398 183.34 40.4119C182.795 40.784 182.151 41.0817 181.433 41.305C181.68 41.4539 181.903 41.6027 182.101 41.8012C182.299 41.9997 182.498 42.223 182.671 42.4711L187.773 49.9884ZM178.064 39.3203C178.783 39.3203 179.402 39.221 179.922 39.0474C180.442 38.8737 180.888 38.6256 181.234 38.3031C181.581 37.9806 181.829 37.6084 182.002 37.1866C182.176 36.7649 182.25 36.2935 182.25 35.7725C182.25 34.7305 181.903 33.9366 181.234 33.3908C180.566 32.845 179.526 32.5721 178.114 32.5721H175.687V39.3203H178.064Z" fill="#FA3C32"/>
<path d="M215.536 46.8624V49.9884H203.648V29.6445H207.437V46.8624H215.536Z" fill="#FA3C32"/>
<path d="M222.025 49.9884H218.236V29.6445H222.025V49.9884Z" fill="#FA3C32"/>
<path d="M240.501 45.1753C240.699 45.1753 240.897 45.2497 241.046 45.4234L242.532 47.036C241.714 48.0532 240.699 48.8471 239.485 49.3929C238.272 49.9387 236.835 50.2116 235.151 50.2116C233.641 50.2116 232.278 49.9636 231.09 49.4425C229.876 48.9215 228.861 48.2021 228.018 47.2841C227.176 46.3662 226.508 45.2745 226.062 43.9844C225.616 42.7192 225.393 41.305 225.393 39.8164C225.393 38.2782 225.641 36.8889 226.111 35.6236C226.607 34.3583 227.275 33.2667 228.167 32.3488C229.059 31.4308 230.099 30.7113 231.337 30.2151C232.576 29.6941 233.913 29.446 235.399 29.446C236.885 29.446 238.198 29.6941 239.337 30.1655C240.476 30.6617 241.467 31.282 242.259 32.0759L240.996 33.8373C240.922 33.9614 240.823 34.0606 240.699 34.135C240.575 34.2095 240.427 34.2591 240.204 34.2591C240.055 34.2591 239.906 34.2095 239.758 34.135C239.609 34.0606 239.436 33.9614 239.263 33.8373C239.089 33.7133 238.891 33.5892 238.643 33.4404C238.42 33.2915 238.148 33.1675 237.826 33.0434C237.529 32.9194 237.157 32.8201 236.761 32.7457C236.365 32.6713 235.894 32.6217 235.349 32.6217C234.433 32.6217 233.616 32.7953 232.848 33.1179C232.105 33.4404 231.436 33.9118 230.891 34.532C230.347 35.1522 229.926 35.8965 229.628 36.7897C229.331 37.6828 229.183 38.6752 229.183 39.8164C229.183 40.9577 229.356 41.9749 229.678 42.868C230 43.7612 230.446 44.5054 230.99 45.1257C231.535 45.7459 232.204 46.1925 232.947 46.515C233.69 46.8375 234.507 47.0112 235.374 47.0112C235.894 47.0112 236.365 46.9864 236.761 46.9368C237.182 46.8872 237.554 46.7879 237.9 46.6639C238.247 46.5398 238.594 46.391 238.891 46.1925C239.213 45.994 239.51 45.7707 239.832 45.473C239.931 45.3986 240.03 45.3242 240.129 45.2745C240.278 45.2249 240.377 45.1753 240.501 45.1753Z" fill="#FA3C32"/>
<path d="M248.922 32.6465V38.2783H256.03V41.181H248.922V46.9368H257.937V49.9636H245.132V29.6198H257.937V32.6217H248.922V32.6465Z" fill="#FA3C32"/>
<path d="M278.394 29.6446V49.9884H276.462C276.165 49.9884 275.917 49.9388 275.719 49.8396C275.521 49.7403 275.323 49.5667 275.125 49.3434L264.524 35.7725C264.574 36.3928 264.599 36.9634 264.599 37.4844V49.9636H261.28V29.6198H263.261C263.41 29.6198 263.559 29.6197 263.682 29.6446C263.806 29.6694 263.905 29.6942 263.98 29.719C264.079 29.7686 264.153 29.8182 264.227 29.8927C264.302 29.9671 264.401 30.0663 264.5 30.2152L275.149 43.8356C275.125 43.5131 275.1 43.1906 275.075 42.8681C275.05 42.5455 275.05 42.2478 275.05 41.9749V29.6198H278.394V29.6446Z" fill="#FA3C32"/>
<path d="M293.724 33.3412C293.6 33.5397 293.501 33.6885 293.377 33.7629C293.254 33.8622 293.105 33.887 292.907 33.887C292.709 33.887 292.486 33.8126 292.263 33.6637C292.04 33.5148 291.768 33.366 291.446 33.1675C291.124 32.9938 290.752 32.8202 290.331 32.6713C289.91 32.5225 289.39 32.448 288.82 32.448C288.3 32.448 287.83 32.5225 287.433 32.6465C287.037 32.7706 286.715 32.9442 286.443 33.1675C286.17 33.3908 285.972 33.6637 285.848 33.9862C285.725 34.3087 285.65 34.6561 285.65 35.0282C285.65 35.4996 285.774 35.8966 286.047 36.2191C286.319 36.5416 286.666 36.8145 287.111 37.0378C287.557 37.2611 288.053 37.4596 288.622 37.6332C289.192 37.8069 289.762 38.0054 290.356 38.2038C290.95 38.4023 291.52 38.6504 292.09 38.8985C292.659 39.1714 293.155 39.4939 293.6 39.9157C294.046 40.3127 294.393 40.8337 294.665 41.4043C294.938 41.9997 295.062 42.7192 295.062 43.5627C295.062 44.4807 294.913 45.349 294.591 46.1429C294.269 46.9368 293.823 47.6315 293.204 48.2269C292.61 48.8223 291.867 49.2937 291 49.641C290.133 49.9884 289.142 50.162 288.003 50.162C287.359 50.162 286.715 50.0876 286.096 49.9636C285.477 49.8395 284.858 49.6658 284.288 49.4178C283.718 49.1945 283.174 48.8968 282.678 48.5742C282.183 48.2517 281.712 47.8796 281.341 47.4826L282.455 45.6715C282.554 45.5475 282.678 45.4234 282.827 45.349C282.975 45.2498 283.124 45.2249 283.297 45.2249C283.52 45.2249 283.793 45.3242 284.065 45.5227C284.338 45.7211 284.66 45.9196 285.031 46.1677C285.403 46.391 285.848 46.6143 286.344 46.8128C286.839 47.0112 287.433 47.1105 288.152 47.1105C289.217 47.1105 290.059 46.8624 290.653 46.3414C291.248 45.8204 291.545 45.1009 291.545 44.1333C291.545 43.5875 291.421 43.1657 291.148 42.8184C290.876 42.4711 290.529 42.1982 290.083 41.9749C289.638 41.7516 289.142 41.5531 288.573 41.3795C288.003 41.2306 287.433 41.0569 286.864 40.8585C286.294 40.66 285.725 40.4367 285.155 40.1886C284.585 39.9157 284.09 39.5932 283.644 39.1714C283.198 38.7497 282.852 38.2286 282.579 37.5836C282.307 36.9386 282.183 36.1695 282.183 35.2515C282.183 34.5072 282.332 33.7877 282.629 33.0931C282.926 32.3984 283.347 31.7782 283.917 31.2324C284.486 30.6866 285.18 30.2648 285.997 29.9175C286.814 29.5949 287.755 29.4213 288.845 29.4213C290.034 29.4213 291.148 29.6197 292.164 29.9919C293.179 30.364 294.046 30.885 294.74 31.5797L293.724 33.3412Z" fill="#FA3C32"/>
<path d="M302.12 32.6465V38.2783H309.228V41.181H302.12V46.9368H311.135V49.9636H298.331V29.6198H311.135V32.6217H302.12V32.6465Z" fill="#FA3C32"/>
<path d="M105.87 214.327H38.6782C36.7216 214.327 35.1365 212.739 35.1365 210.779C35.1365 208.819 36.7216 207.231 38.6782 207.231H105.87C107.826 207.231 109.411 208.819 109.411 210.779C109.411 212.739 107.826 214.327 105.87 214.327Z" fill="#91A6F2"/>
<path d="M370.55 191.428H330.131V215.245H370.55V191.428Z" fill="#91A6F2"/>
<path d="M73.4504 146.696C84.5434 146.696 93.5361 135.344 93.5361 121.341C93.5361 107.337 84.5434 95.9854 73.4504 95.9854C62.3574 95.9854 53.3647 107.337 53.3647 121.341C53.3647 135.344 62.3574 146.696 73.4504 146.696Z" fill="#A07666"/>
<path d="M54.603 166.345C53.86 165.154 54.3801 163.988 54.9745 162.798C55.5689 161.607 56.2872 160.441 57.1292 159.25C57.9218 158.059 58.8133 156.893 59.5811 155.702C60.3489 154.511 60.968 153.345 61.4138 152.154C61.8349 150.963 62.0825 149.797 62.2064 148.606C62.355 147.416 62.3797 146.25 62.2807 145.059C62.1816 143.868 61.9587 142.702 61.5624 141.511C61.1414 140.32 60.6213 139.154 59.6802 137.963C53.6124 130.347 54.8507 119.232 62.454 113.129C70.0574 107.05 81.1528 108.291 87.2453 115.907C92.4711 122.482 92.273 131.637 87.2453 137.938C86.3042 139.129 85.7841 140.295 85.3631 141.486C84.9668 142.677 84.7439 143.843 84.6449 145.034C84.5458 146.225 84.5706 147.391 84.7192 148.582C84.8678 149.773 85.0907 150.939 85.5117 152.129C85.9327 153.32 86.5767 154.486 87.3444 155.677C88.1122 156.868 89.0038 158.034 89.7963 159.225C90.6384 160.416 91.3566 161.582 91.951 162.773C92.5702 163.964 93.0655 165.13 92.3225 166.32C85.8337 176.79 72.113 179.966 61.711 173.466C58.739 171.63 56.3367 169.124 54.603 166.345Z" fill="#A07666"/>
<path d="M168.048 196.671C168.243 195.08 167.114 193.632 165.525 193.436C163.937 193.241 162.491 194.373 162.297 195.964C162.102 197.555 163.231 199.003 164.82 199.198C166.408 199.393 167.854 198.262 168.048 196.671Z" fill="#FB5B16"/>
<path d="M168.019 211.495C168.432 209.946 167.513 208.356 165.967 207.942C164.421 207.529 162.832 208.449 162.42 209.998C162.007 211.547 162.926 213.138 164.472 213.551C166.018 213.965 167.607 213.044 168.019 211.495Z" fill="#FB5B16"/>
<path d="M54.727 129.423C57.0256 128.92 58.34 125.995 57.6628 122.889C56.9856 119.783 54.5733 117.673 52.2747 118.176C49.9762 118.679 48.6618 121.604 49.339 124.71C50.0162 127.816 52.4285 129.926 54.727 129.423Z" fill="#A07666"/>
<path d="M96.6102 124.713C97.2874 121.607 95.9731 118.682 93.6745 118.179C91.376 117.676 88.9637 119.786 88.2865 122.891C87.6093 125.997 88.9236 128.923 91.2222 129.426C93.5207 129.928 95.933 127.818 96.6102 124.713Z" fill="#A07666"/>
<path d="M51.9034 120.051C51.9034 120.051 51.0119 112.26 53.3894 105.661C55.7423 99.0618 63.3208 94.7201 66.8872 95.9854C69.6363 91.1475 79.6172 92.7849 84.3477 94.075C89.0781 95.3651 96.0127 102.758 96.1613 111.814C96.2356 116.652 93.5608 122.532 93.5608 122.532L51.9034 120.051Z" fill="#A07666"/>
<path d="M309.575 236.755H269.998C269.453 236.755 269.007 236.308 269.007 235.762C269.007 235.217 269.453 234.77 269.998 234.77H309.575C310.12 234.77 310.566 235.217 310.566 235.762C310.566 236.308 310.12 236.755 309.575 236.755Z" fill="#C4968F"/>
<path d="M385.534 236.755H332.608C332.063 236.755 331.617 236.308 331.617 235.762C331.617 235.217 332.063 234.77 332.608 234.77H385.41C386.648 234.621 402.747 232.314 402.747 217.478V67.7025C402.747 67.1567 403.192 66.7101 403.737 66.7101C404.282 66.7101 404.728 67.1567 404.728 67.7025V217.478C404.728 234.348 385.782 236.73 385.608 236.755H385.534Z" fill="#C4968F"/>
<path d="M403.737 31.6541C403.192 31.6541 402.747 31.2075 402.747 30.6617V20.068C402.747 19.3734 402.301 2.77578 385.484 2.77578H265.713C265.168 2.77578 264.723 2.32921 264.723 1.7834C264.723 1.23759 265.168 0.791016 265.713 0.791016H385.484C404.257 0.791016 404.728 19.8696 404.728 20.0432V30.6369C404.703 31.2075 404.282 31.6541 403.737 31.6541Z" fill="#C4968F"/>
<path d="M242.135 2.77578H187.525C186.98 2.77578 186.535 2.32921 186.535 1.7834C186.535 1.23759 186.98 0.791016 187.525 0.791016H242.135C242.68 0.791016 243.126 1.23759 243.126 1.7834C243.101 2.32921 242.68 2.77578 242.135 2.77578Z" fill="#C4968F"/>
<path d="M159.539 2.77578H147.156C146.611 2.77578 146.165 2.32921 146.165 1.7834C146.165 1.23759 146.611 0.791016 147.156 0.791016H159.539C160.084 0.791016 160.53 1.23759 160.53 1.7834C160.53 2.32921 160.084 2.77578 159.539 2.77578Z" fill="#C4968F"/>
<path d="M1.57782 112.856C1.03296 112.856 0.587158 112.409 0.587158 111.863V23.5662C0.587158 15.7512 2.69232 9.77213 6.87786 5.77779C12.3265 0.592595 19.2859 0.76626 19.8555 0.791069H112.978C113.523 0.791069 113.968 1.23764 113.968 1.78345C113.968 2.32926 113.523 2.77583 112.978 2.77583H19.7812C19.7069 2.77583 13.1438 2.52774 8.21526 7.24155C4.47551 10.8141 2.56848 16.3218 2.56848 23.5662V111.863C2.56848 112.434 2.12268 112.856 1.57782 112.856Z" fill="#C4968F"/>
<path d="M1.57782 147.713C1.03296 147.713 0.587158 147.267 0.587158 146.721V130.322C0.587158 129.776 1.03296 129.329 1.57782 129.329C2.12269 129.329 2.56849 129.776 2.56849 130.322V146.721C2.56849 147.267 2.12269 147.713 1.57782 147.713Z" fill="#C4968F"/>
<path d="M84.1248 238.367C51.4825 238.367 25.1308 237.97 19.6079 236.73C2.89046 233.009 1.42923 223.333 1.3797 222.911V222.787V172.672C1.3797 172.126 1.8255 171.679 2.37036 171.679C2.91523 171.679 3.36102 172.126 3.36102 172.672V222.713C3.50962 223.506 5.26805 231.52 20.0537 234.82C35.9786 238.367 236.538 234.82 238.569 234.795C239.114 234.795 239.56 235.217 239.56 235.762C239.56 236.308 239.139 236.755 238.594 236.755C233.145 236.854 146.982 238.367 84.1248 238.367Z" fill="#C4968F"/>
</svg>
