<svg width="169" height="86" viewBox="0 0 169 86" fill="none" xmlns="http://www.w3.org/2000/svg">
<rect x="69" width="15" height="39" fill="#F95151"/>
<rect x="88" y="30" width="15" height="9" fill="#A551F9"/>
<rect x="88" width="15" height="24" fill="#519EF9"/>
<path d="M10.016 78.384C8.24533 78.384 6.528 78.1493 4.864 77.68C3.22133 77.1893 1.89867 76.56 0.896 75.792L2.656 71.888C3.616 72.592 4.75733 73.1573 6.08 73.584C7.40267 74.0107 8.72533 74.224 10.048 74.224C11.52 74.224 12.608 74.0107 13.312 73.584C14.016 73.136 14.368 72.5493 14.368 71.824C14.368 71.2907 14.1547 70.8533 13.728 70.512C13.3227 70.1493 12.7893 69.8613 12.128 69.648C11.488 69.4347 10.6133 69.2 9.504 68.944C7.79733 68.5387 6.4 68.1333 5.312 67.728C4.224 67.3227 3.28533 66.672 2.496 65.776C1.728 64.88 1.344 63.6853 1.344 62.192C1.344 60.8907 1.696 59.7173 2.4 58.672C3.104 57.6053 4.16 56.7627 5.568 56.144C6.99733 55.5253 8.736 55.216 10.784 55.216C12.2133 55.216 13.6107 55.3867 14.976 55.728C16.3413 56.0693 17.536 56.56 18.56 57.2L16.96 61.136C14.8907 59.9627 12.8213 59.376 10.752 59.376C9.30133 59.376 8.224 59.6107 7.52 60.08C6.83733 60.5493 6.496 61.168 6.496 61.936C6.496 62.704 6.89067 63.28 7.68 63.664C8.49067 64.0267 9.71733 64.3893 11.36 64.752C13.0667 65.1573 14.464 65.5627 15.552 65.968C16.64 66.3733 17.568 67.0133 18.336 67.888C19.1253 68.7627 19.52 69.9467 19.52 71.44C19.52 72.72 19.1573 73.8933 18.432 74.96C17.728 76.0053 16.6613 76.8373 15.232 77.456C13.8027 78.0747 12.064 78.384 10.016 78.384ZM22.7103 60.784H27.7023V78H22.7103V60.784ZM25.2063 58.384C24.2889 58.384 23.5423 58.1173 22.9663 57.584C22.3903 57.0507 22.1023 56.3893 22.1023 55.6C22.1023 54.8107 22.3903 54.1493 22.9663 53.616C23.5423 53.0827 24.2889 52.816 25.2063 52.816C26.1236 52.816 26.8703 53.072 27.4463 53.584C28.0223 54.096 28.3103 54.736 28.3103 55.504C28.3103 56.336 28.0223 57.0293 27.4463 57.584C26.8703 58.1173 26.1236 58.384 25.2063 58.384ZM43.4393 77.168C42.9486 77.5307 42.3406 77.808 41.6153 78C40.9113 78.1707 40.1646 78.256 39.3753 78.256C37.3273 78.256 35.7379 77.7333 34.6073 76.688C33.4979 75.6427 32.9433 74.1067 32.9433 72.08V65.008H30.2873V61.168H32.9433V56.976H37.9353V61.168H42.2233V65.008H37.9353V72.016C37.9353 72.7413 38.1166 73.3067 38.4792 73.712C38.8633 74.096 39.3966 74.288 40.0793 74.288C40.8686 74.288 41.5406 74.0747 42.0953 73.648L43.4393 77.168ZM62.5743 69.456C62.5743 69.52 62.5423 69.968 62.4783 70.8H49.4543C49.6889 71.8667 50.2436 72.7093 51.1183 73.328C51.9929 73.9467 53.0809 74.256 54.3823 74.256C55.2783 74.256 56.0676 74.128 56.7503 73.872C57.4543 73.5947 58.1049 73.168 58.7023 72.592L61.3583 75.472C59.7369 77.328 57.3689 78.256 54.2543 78.256C52.3129 78.256 50.5956 77.8827 49.1023 77.136C47.6089 76.368 46.4569 75.312 45.6463 73.968C44.8356 72.624 44.4303 71.0987 44.4303 69.392C44.4303 67.7067 44.8249 66.192 45.6143 64.848C46.4249 63.4827 47.5236 62.4267 48.9103 61.68C50.3183 60.912 51.8863 60.528 53.6143 60.528C55.2996 60.528 56.8249 60.8907 58.1903 61.616C59.5556 62.3413 60.6223 63.3867 61.3903 64.752C62.1796 66.096 62.5743 67.664 62.5743 69.456ZM53.6463 64.304C52.5156 64.304 51.5663 64.624 50.7983 65.264C50.0303 65.904 49.5609 66.7787 49.3903 67.888H57.8703C57.6996 66.8 57.2303 65.936 56.4623 65.296C55.6943 64.6347 54.7556 64.304 53.6463 64.304ZM85.4243 60.528C87.5576 60.528 89.2749 61.168 90.5763 62.448C91.8989 63.728 92.5603 65.6267 92.5603 68.144V78H87.5683V68.912C87.5683 67.5467 87.2696 66.5333 86.6723 65.872C86.0749 65.1893 85.2109 64.848 84.0803 64.848C82.8216 64.848 81.8189 65.2427 81.0723 66.032C80.3256 66.8 79.9523 67.952 79.9523 69.488V78H74.9603V60.784H79.7283V62.8C80.3896 62.0747 81.2109 61.52 82.1923 61.136C83.1736 60.7307 84.2509 60.528 85.4243 60.528ZM104.029 60.528C106.696 60.528 108.744 61.168 110.173 62.448C111.603 63.7067 112.317 65.616 112.317 68.176V78H107.645V75.856C106.707 77.456 104.957 78.256 102.397 78.256C101.075 78.256 99.9226 78.032 98.9413 77.584C97.9813 77.136 97.2453 76.5173 96.7333 75.728C96.2213 74.9387 95.9653 74.0427 95.9653 73.04C95.9653 71.44 96.5626 70.1813 97.7573 69.264C98.9733 68.3467 100.84 67.888 103.357 67.888H107.325C107.325 66.8 106.995 65.968 106.333 65.392C105.672 64.7947 104.68 64.496 103.357 64.496C102.44 64.496 101.533 64.6453 100.637 64.944C99.7626 65.2213 99.0159 65.6053 98.3973 66.096L96.6053 62.608C97.5439 61.9467 98.6639 61.4347 99.9653 61.072C101.288 60.7093 102.643 60.528 104.029 60.528ZM103.645 74.896C104.499 74.896 105.256 74.704 105.917 74.32C106.579 73.9147 107.048 73.328 107.325 72.56V70.8H103.901C101.853 70.8 100.829 71.472 100.829 72.816C100.829 73.456 101.075 73.968 101.565 74.352C102.077 74.7147 102.771 74.896 103.645 74.896ZM138.883 60.528C141.038 60.528 142.745 61.168 144.003 62.448C145.283 63.7067 145.923 65.6053 145.923 68.144V78H140.931V68.912C140.931 67.5467 140.643 66.5333 140.067 65.872C139.513 65.1893 138.713 64.848 137.667 64.848C136.494 64.848 135.566 65.232 134.883 66C134.201 66.7467 133.859 67.8667 133.859 69.36V78H128.867V68.912C128.867 66.2027 127.779 64.848 125.603 64.848C124.451 64.848 123.534 65.232 122.851 66C122.169 66.7467 121.827 67.8667 121.827 69.36V78H116.835V60.784H121.603V62.768C122.243 62.0427 123.022 61.488 123.939 61.104C124.878 60.72 125.902 60.528 127.011 60.528C128.227 60.528 129.326 60.7733 130.307 61.264C131.289 61.7333 132.078 62.4267 132.675 63.344C133.379 62.448 134.265 61.7547 135.331 61.264C136.419 60.7733 137.603 60.528 138.883 60.528ZM167.449 69.456C167.449 69.52 167.417 69.968 167.353 70.8H154.329C154.564 71.8667 155.119 72.7093 155.993 73.328C156.868 73.9467 157.956 74.256 159.257 74.256C160.153 74.256 160.943 74.128 161.625 73.872C162.329 73.5947 162.98 73.168 163.577 72.592L166.233 75.472C164.612 77.328 162.244 78.256 159.129 78.256C157.188 78.256 155.471 77.8827 153.977 77.136C152.484 76.368 151.332 75.312 150.521 73.968C149.711 72.624 149.305 71.0987 149.305 69.392C149.305 67.7067 149.7 66.192 150.489 64.848C151.3 63.4827 152.399 62.4267 153.785 61.68C155.193 60.912 156.761 60.528 158.489 60.528C160.175 60.528 161.7 60.8907 163.065 61.616C164.431 62.3413 165.497 63.3867 166.265 64.752C167.055 66.096 167.449 67.664 167.449 69.456ZM158.521 64.304C157.391 64.304 156.441 64.624 155.673 65.264C154.905 65.904 154.436 66.7787 154.265 67.888H162.745C162.575 66.8 162.105 65.936 161.337 65.296C160.569 64.6347 159.631 64.304 158.521 64.304Z" fill="black"/>
</svg>
