<svg width="531" height="445" viewBox="0 0 531 445" fill="none" xmlns="http://www.w3.org/2000/svg">
<g clip-path="url(#clip0_8_16419)">
<path d="M531 391.367H0V391.724H531V391.367Z" fill="#EBEBEB"/>
<path d="M384.444 400.761H349.292V401.118H384.444V400.761Z" fill="#EBEBEB"/>
<path d="M468.236 400.88H424.587V401.237H468.236V400.88Z" fill="#EBEBEB"/>
<path d="M399.312 408.729H378.922V409.086H399.312V408.729Z" fill="#EBEBEB"/>
<path d="M239.693 406.47H184.788V406.827H239.693V406.47Z" fill="#EBEBEB"/>
<path d="M175.336 406.47H138.803V406.827H175.336V406.47Z" fill="#EBEBEB"/>
<path d="M116.926 401.475H67.2246V401.832H116.926V401.475Z" fill="#EBEBEB"/>
<path d="M251.694 338.328H46.6218C43.3296 338.328 40.5684 335.236 40.5684 331.55V8.68117C40.5684 4.99464 43.3296 1.90271 46.6218 1.90271H251.694C254.986 1.90271 257.747 4.99464 257.747 8.68117V331.431C257.747 335.236 255.092 338.328 251.694 338.328ZM46.6218 2.25947C43.4358 2.25947 40.7808 5.11356 40.7808 8.80009V331.55C40.7808 335.118 43.3296 338.091 46.6218 338.091H251.694C254.88 338.091 257.535 335.236 257.535 331.55V8.68117C257.535 5.11356 254.986 2.14055 251.694 2.14055H46.6218V2.25947Z" fill="#EBEBEB"/>
<path d="M481.404 338.328H276.332C273.04 338.328 270.279 335.236 270.279 331.55V8.68117C270.279 4.99464 273.04 1.90271 276.332 1.90271H481.404C484.697 1.90271 487.458 4.99464 487.458 8.68117V331.431C487.458 335.236 484.803 338.328 481.404 338.328ZM276.332 2.25947C273.146 2.25947 270.491 5.11356 270.491 8.80009V331.55C270.491 335.118 273.04 338.091 276.332 338.091H481.404C484.59 338.091 487.245 335.236 487.245 331.55V8.68117C487.245 5.11356 484.697 2.14055 481.404 2.14055H276.332V2.25947Z" fill="#EBEBEB"/>
<path d="M126.696 144.013H57.3479C56.4983 144.013 55.7549 143.18 55.7549 142.229V64.4548C55.7549 63.5035 56.4983 62.671 57.3479 62.671H126.696C127.546 62.671 128.289 63.5035 128.289 64.4548V142.11C128.289 143.18 127.546 144.013 126.696 144.013ZM58.9409 140.445H125.103V66.2386H58.9409V140.445Z" fill="#EBEBEB"/>
<path d="M126.696 144.013C126.272 144.013 125.847 143.894 125.528 143.537L56.1796 65.7629C55.5424 65.0494 55.5424 63.9791 56.1796 63.2656C56.8168 62.5521 57.7726 62.5521 58.4098 63.2656L127.758 140.921C128.396 141.634 128.396 142.704 127.758 143.418C127.546 143.775 127.121 144.013 126.696 144.013Z" fill="#EBEBEB"/>
<path d="M57.3478 144.013C56.923 144.013 56.4982 143.894 56.1796 143.537C55.5424 142.823 55.5424 141.753 56.1796 141.04L125.528 63.3845C126.165 62.671 127.121 62.671 127.758 63.3845C128.396 64.098 128.396 65.1683 127.758 65.8818L58.4098 143.418C58.0912 143.775 57.6664 144.013 57.3478 144.013Z" fill="#EBEBEB"/>
<path d="M196.151 144.013H126.802C125.953 144.013 125.209 143.18 125.209 142.229V64.4548C125.209 63.5035 125.953 62.671 126.802 62.671H196.151C197.001 62.671 197.744 63.5035 197.744 64.4548V142.11C197.744 143.18 197.001 144.013 196.151 144.013ZM128.289 140.445H194.452V66.2386H128.289V140.445Z" fill="#EBEBEB"/>
<path d="M196.151 144.013C195.727 144.013 195.302 143.894 194.983 143.537L125.635 65.8818C124.997 65.1683 124.997 64.098 125.635 63.3845C126.272 62.671 127.228 62.671 127.865 63.3845L197.213 141.04C197.851 141.753 197.851 142.823 197.213 143.537C196.895 143.775 196.47 144.013 196.151 144.013Z" fill="#EBEBEB"/>
<path d="M126.696 144.013C126.272 144.013 125.847 143.894 125.528 143.537C124.891 142.823 124.891 141.753 125.528 141.04L194.877 63.3845C195.514 62.671 196.47 62.671 197.107 63.3845C197.744 64.098 197.744 65.1683 197.107 65.8818L127.758 143.537C127.546 143.775 127.121 144.013 126.696 144.013Z" fill="#EBEBEB"/>
<path d="M265.5 144.013H196.151C195.302 144.013 194.558 143.18 194.558 142.229V64.4548C194.558 63.5035 195.302 62.671 196.151 62.671H265.5C266.349 62.671 267.093 63.5035 267.093 64.4548V142.11C267.093 143.18 266.349 144.013 265.5 144.013ZM197.744 140.445H263.907V66.2386H197.744V140.445Z" fill="#EBEBEB"/>
<path d="M265.5 144.013C265.075 144.013 264.65 143.894 264.331 143.537L194.983 65.8818C194.346 65.1683 194.346 64.098 194.983 63.3845C195.62 62.671 196.576 62.671 197.213 63.3845L266.562 141.04C267.199 141.753 267.199 142.823 266.562 143.537C266.349 143.775 265.924 144.013 265.5 144.013Z" fill="#EBEBEB"/>
<path d="M196.151 144.013C195.726 144.013 195.301 143.894 194.983 143.537C194.346 142.823 194.346 141.753 194.983 141.04L264.331 63.3845C264.969 62.671 265.924 62.671 266.562 63.3845C267.199 64.098 267.199 65.1683 266.562 65.8818L197.213 143.537C196.894 143.775 196.47 144.013 196.151 144.013Z" fill="#EBEBEB"/>
<path d="M334.848 144.013H265.5C264.65 144.013 263.907 143.18 263.907 142.229V64.4548C263.907 63.5035 264.65 62.671 265.5 62.671H334.848C335.698 62.671 336.441 63.5035 336.441 64.4548V142.11C336.441 143.18 335.804 144.013 334.848 144.013ZM267.093 140.445H333.255V66.2386H267.093V140.445Z" fill="#EBEBEB"/>
<path d="M334.848 144.013C334.423 144.013 333.999 143.894 333.68 143.537L264.331 65.8818C263.694 65.1683 263.694 64.098 264.331 63.3845C264.969 62.671 265.924 62.671 266.562 63.3845L335.91 141.04C336.547 141.753 336.547 142.823 335.91 143.537C335.698 143.775 335.273 144.013 334.848 144.013Z" fill="#EBEBEB"/>
<path d="M265.5 144.013C265.075 144.013 264.65 143.894 264.331 143.537C263.694 142.823 263.694 141.753 264.331 141.04L333.68 63.3845C334.317 62.671 335.273 62.671 335.91 63.3845C336.547 64.098 336.547 65.1683 335.91 65.8818L266.562 143.537C266.349 143.775 265.924 144.013 265.5 144.013Z" fill="#EBEBEB"/>
<path d="M404.303 144.013H334.954C334.105 144.013 333.361 143.18 333.361 142.229V64.4548C333.361 63.5035 334.105 62.671 334.954 62.671H404.303C405.153 62.671 405.896 63.5035 405.896 64.4548V142.11C405.896 143.18 405.153 144.013 404.303 144.013ZM336.441 140.445H402.604V66.2386H336.441V140.445Z" fill="#EBEBEB"/>
<path d="M404.303 144.013C403.878 144.013 403.454 143.894 403.135 143.537L333.786 65.8818C333.149 65.1683 333.149 64.098 333.786 63.3845C334.424 62.671 335.379 62.671 336.017 63.3845L405.365 141.04C406.002 141.753 406.002 142.823 405.365 143.537C405.153 143.775 404.728 144.013 404.303 144.013Z" fill="#EBEBEB"/>
<path d="M334.848 144.013C334.423 144.013 333.999 143.894 333.68 143.537C333.043 142.823 333.043 141.753 333.68 141.04L403.029 63.3845C403.666 62.671 404.622 62.671 405.259 63.3845C405.896 64.098 405.896 65.1683 405.259 65.8818L335.91 143.537C335.698 143.775 335.273 144.013 334.848 144.013Z" fill="#EBEBEB"/>
<path d="M473.652 144.013H404.303C403.454 144.013 402.71 143.18 402.71 142.229V64.4548C402.71 63.5035 403.454 62.671 404.303 62.671H473.652C474.502 62.671 475.245 63.5035 475.245 64.4548V142.11C475.245 143.18 474.608 144.013 473.652 144.013ZM405.896 140.445H472.059V66.2386H405.896V140.445Z" fill="#EBEBEB"/>
<path d="M473.652 144.013C473.227 144.013 472.802 143.894 472.484 143.537L403.135 65.8818C402.498 65.1683 402.498 64.098 403.135 63.3845C403.772 62.671 404.728 62.671 405.365 63.3845L474.714 141.04C475.351 141.753 475.351 142.823 474.714 143.537C474.501 143.775 474.077 144.013 473.652 144.013Z" fill="#EBEBEB"/>
<path d="M404.303 144.013C403.879 144.013 403.454 143.894 403.135 143.537C402.498 142.823 402.498 141.753 403.135 141.04L472.59 63.2656C473.227 62.5521 474.183 62.5521 474.82 63.2656C475.457 63.9791 475.457 65.0494 474.82 65.7629L405.472 143.418C405.153 143.775 404.728 144.013 404.303 144.013Z" fill="#EBEBEB"/>
<path d="M87.6147 182.781L105.032 183.851L95.8983 159.234L84.2163 173.743L87.6147 182.781Z" fill="#E0E0E0"/>
<path d="M88.3583 171.126L88.0397 152.932L78.3755 163.991L83.0483 176.121L88.3583 171.126Z" fill="#E0E0E0"/>
<path d="M92.1813 181.354L103.439 194.435L89.6325 194.316L85.2783 182.186L92.1813 181.354Z" fill="#E0E0E0"/>
<path d="M69.8793 198.24L93.5619 187.181L85.5969 165.775L61.9143 176.835C56.7105 179.332 54.1617 186.11 56.3919 191.937C58.6221 197.883 64.6755 200.738 69.8793 198.24Z" fill="#EBEBEB"/>
<path d="M64.4631 345.226C63.6135 345.226 62.8701 344.393 62.8701 343.442V188.251C62.8701 187.3 63.6135 186.467 64.4631 186.467C65.3127 186.467 66.0561 187.3 66.0561 188.251V343.442C66.0561 344.393 65.3127 345.226 64.4631 345.226Z" fill="#EBEBEB"/>
<path d="M58.1977 336.188H70.7293C73.3843 336.188 75.6145 333.691 75.6145 330.718C75.6145 327.745 73.3843 325.247 70.7293 325.247H58.1977C55.5427 325.247 53.3125 327.745 53.3125 330.718C53.4187 333.691 55.5427 336.188 58.1977 336.188Z" fill="#E0E0E0"/>
<path d="M88.8894 391.367H91.6506L70.4106 333.81H67.6494L88.8894 391.367Z" fill="#E0E0E0"/>
<path d="M40.0373 391.367H37.3823L58.6223 333.81H61.2773L40.0373 391.367Z" fill="#E0E0E0"/>
<path d="M55.7549 391.367H52.9937L63.2951 333.81H66.0563L55.7549 391.367Z" fill="#E0E0E0"/>
<path d="M470.785 260.911L477.688 278.749L493.299 258.652L476.626 253.419L470.785 260.911Z" fill="#E0E0E0"/>
<path d="M480.449 256.392L494.892 247.949L481.723 243.311L474.183 253.181L480.449 256.392Z" fill="#E0E0E0"/>
<path d="M473.971 264.717L468.448 281.841L462.501 267.927L470.254 258.176L473.971 264.717Z" fill="#E0E0E0"/>
<path d="M450.606 249.971L469.935 268.76L483.528 251.279L464.094 232.489C459.846 228.327 453.261 228.803 449.544 233.56C445.827 238.435 446.252 245.808 450.606 249.971Z" fill="#EBEBEB"/>
<path d="M456.129 345.226C455.279 345.226 454.536 344.393 454.536 343.442V240.1C454.536 239.149 455.279 238.316 456.129 238.316C456.978 238.316 457.722 239.149 457.722 240.1V343.442C457.722 344.393 456.978 345.226 456.129 345.226Z" fill="#EBEBEB"/>
<path d="M449.863 336.188H462.395C465.05 336.188 467.28 333.691 467.28 330.718C467.28 327.745 465.05 325.247 462.395 325.247H449.863C447.208 325.247 444.978 327.745 444.978 330.718C445.084 333.691 447.208 336.188 449.863 336.188Z" fill="#E0E0E0"/>
<path d="M480.555 391.367H483.316L462.076 333.809H459.315L480.555 391.367Z" fill="#E0E0E0"/>
<path d="M431.703 391.367H429.048L450.288 333.809H452.943L431.703 391.367Z" fill="#E0E0E0"/>
<path d="M447.42 391.367H444.659L454.961 333.809H457.722L447.42 391.367Z" fill="#E0E0E0"/>
<path d="M265.5 445C379.227 445 471.422 438.984 471.422 431.562C471.422 424.14 379.227 418.124 265.5 418.124C151.772 418.124 59.5781 424.14 59.5781 431.562C59.5781 438.984 151.772 445 265.5 445Z" fill="#F5F5F5"/>
<path d="M137.529 365.918H135.193C134.237 365.918 133.494 365.086 133.494 364.015V1.90273C133.494 0.832443 134.237 0 135.193 0H137.529C138.485 0 139.228 0.832443 139.228 1.90273V364.015C139.228 365.086 138.485 365.918 137.529 365.918Z" fill="#263238"/>
<path opacity="0.8" d="M137.529 365.918H135.193C134.237 365.918 133.494 365.086 133.494 364.015V1.90273C133.494 0.832443 134.237 0 135.193 0H137.529C138.485 0 139.228 0.832443 139.228 1.90273V364.015C139.228 365.086 138.485 365.918 137.529 365.918Z" fill="white"/>
<path d="M94.7305 46.4979V43.8816C94.7305 42.8113 95.4739 41.9789 96.4297 41.9789H155.371C156.326 41.9789 157.07 42.8113 157.07 43.8816V46.4979C157.07 47.5681 156.326 48.4006 155.371 48.4006H96.4297C95.5801 48.4006 94.7305 47.5681 94.7305 46.4979Z" fill="#263238"/>
<path opacity="0.8" d="M94.7305 46.4979V43.8816C94.7305 42.8113 95.4739 41.9789 96.4297 41.9789H155.371C156.326 41.9789 157.07 42.8113 157.07 43.8816V46.4979C157.07 47.5681 156.326 48.4006 155.371 48.4006H96.4297C95.5801 48.4006 94.7305 47.5681 94.7305 46.4979Z" fill="white"/>
<path d="M148.043 424.07H124.785C123.404 424.07 122.448 422.762 122.661 421.216L129.351 358.545C129.564 356.761 130.944 355.334 132.537 355.334H140.396C141.989 355.334 143.37 356.642 143.582 358.545L150.273 421.216C150.379 422.643 149.317 424.07 148.043 424.07Z" fill="#263238"/>
<path opacity="0.6" d="M148.043 424.07H124.785C123.404 424.07 122.448 422.762 122.661 421.216L129.351 358.545C129.564 356.761 130.944 355.334 132.537 355.334H140.396C141.989 355.334 143.37 356.642 143.582 358.545L150.273 421.216C150.379 422.643 149.317 424.07 148.043 424.07Z" fill="white"/>
<path d="M198.7 121.893H120.855L143.051 7.01636H221.002L198.7 121.893Z" fill="#263238"/>
<path d="M109.917 99.6553L120.856 121.893L143.158 7.01636L124.466 23.4274C120.325 26.995 117.457 32.1086 116.395 37.8167L107.793 82.2929C106.519 88.239 107.262 94.4228 109.917 99.6553Z" fill="#263238"/>
<path opacity="0.3" d="M124.042 119.039L145.175 9.98938H217.71L196.576 119.039H124.042Z" fill="white"/>
<path opacity="0.3" d="M128.396 116.066L148.361 12.9624H215.479L195.514 116.066H128.396Z" fill="white"/>
<path d="M132.75 113.093L151.547 15.9354H213.25L194.452 113.093H132.75Z" fill="white"/>
<path d="M429.791 152.932H235.976C230.242 152.932 225.569 158.164 225.569 164.586V419.908C225.569 426.33 230.242 431.562 235.976 431.562H429.898C435.632 431.562 440.305 426.33 440.305 419.908V164.586C440.199 158.164 435.526 152.932 429.791 152.932Z" fill="#407BFF"/>
<path opacity="0.2" d="M437.969 422.286C439.243 422.286 440.199 421.335 440.199 420.265V164.229C440.199 163.159 439.137 162.207 437.969 162.207C436.695 162.207 435.739 163.159 435.739 164.229V420.146C435.739 421.335 436.695 422.286 437.969 422.286Z" fill="black"/>
<path d="M155.052 423.951C150.698 426.329 150.911 425.854 148.362 427.043C146.238 428.113 145.919 428.708 144.114 429.54C142.733 430.254 141.99 428.827 141.459 426.924C141.246 425.973 140.715 422.881 140.291 421.335L147.3 419.67C149.211 420.978 151.866 421.692 154.415 420.621C157.07 419.789 156.858 423 155.052 423.951Z" fill="#263238"/>
<path d="M121.599 286.598C121.599 286.598 127.228 327.507 130.945 348.437C134.768 370.437 142.945 404.567 146.875 418.005C145.919 419.075 141.777 420.265 139.334 420.265C139.334 420.265 121.387 387.324 118.413 356.642C104.819 323.345 100.89 298.133 103.014 288.025L121.599 286.598Z" fill="#263238"/>
<path d="M146.981 416.816C147.193 417.529 147.724 418.719 148.255 419.551C148.468 419.908 148.362 420.265 148.043 420.383C145.6 421.692 141.671 422.167 140.397 422.405C140.184 422.405 139.866 422.286 139.759 422.048L138.485 419.551C138.273 419.194 138.485 418.838 138.804 418.719L146.344 416.459C146.556 416.34 146.875 416.459 146.981 416.816Z" fill="#407BFF"/>
<path opacity="0.3" d="M146.981 416.816C147.193 417.529 147.724 418.719 148.255 419.551C148.468 419.908 148.362 420.265 148.043 420.383C145.6 421.692 141.671 422.167 140.397 422.405C140.184 422.405 139.866 422.286 139.759 422.048L138.485 419.551C138.273 419.194 138.485 418.838 138.804 418.719L146.344 416.459C146.556 416.34 146.875 416.459 146.981 416.816Z" fill="#E8505B"/>
<path d="M102.483 213.105C97.704 215.722 95.8985 226.425 100.04 229.873C104.182 233.203 96.2172 240.933 103.97 243.311C111.722 245.69 120.006 238.079 116.395 232.014C112.784 226.068 114.271 218.219 111.935 214.77C108.324 209.419 102.483 213.105 102.483 213.105Z" fill="#263238"/>
<path d="M115.44 431.562C110.554 431.681 110.979 431.324 108.218 431.324C105.882 431.324 105.351 431.562 103.439 431.562C101.846 431.562 101.74 429.897 102.058 427.994C102.165 427.043 102.483 425.854 102.696 424.308L110.023 424.189C111.192 426.33 113.422 428.113 116.183 428.47C118.838 428.708 117.457 431.562 115.44 431.562Z" fill="#263238"/>
<path d="M114.165 288.025C114.165 288.025 112.466 329.409 112.36 350.696C112.254 373.053 108.43 408.373 109.811 422.405C108.643 423.238 104.501 423.475 102.058 422.881C102.058 422.881 96.1112 386.61 98.5538 355.929C91.1198 320.253 90.9074 297.301 94.7306 287.906H114.165V288.025Z" fill="#263238"/>
<path d="M110.236 421.335C110.342 422.049 110.661 423.357 110.979 424.308C111.085 424.665 110.979 425.022 110.661 425.14C108.006 425.854 104.076 425.497 102.802 425.378C102.589 425.378 102.377 425.14 102.271 424.903L101.421 422.167C101.315 421.811 101.527 421.454 101.846 421.335L109.599 420.859C109.811 420.74 110.13 420.978 110.236 421.335Z" fill="#407BFF"/>
<path opacity="0.3" d="M110.236 421.335C110.342 422.049 110.661 423.357 110.979 424.308C111.085 424.665 110.979 425.022 110.661 425.14C108.006 425.854 104.076 425.497 102.802 425.378C102.589 425.378 102.377 425.14 102.271 424.903L101.421 422.167C101.315 421.811 101.527 421.454 101.846 421.335L109.599 420.859C109.811 420.74 110.13 420.978 110.236 421.335Z" fill="#E8505B"/>
<path d="M117.67 247.354L119.263 247.711C119.9 247.83 120.537 247.949 121.068 247.949C122.343 248.068 123.617 248.187 124.785 248.187C126.06 248.187 127.334 248.068 128.502 247.83C129.777 247.592 130.945 247.354 132.113 246.879L129.67 250.922C129.67 251.16 129.777 251.279 129.67 251.041C129.67 250.922 129.564 250.684 129.564 250.446C129.458 249.971 129.139 249.376 128.821 248.781C128.29 247.592 127.546 246.284 126.803 245.095C126.06 243.787 125.316 242.598 124.573 241.29L122.236 237.484C121.599 236.414 121.812 234.868 122.767 234.154C123.511 233.56 124.467 233.679 125.21 234.154C126.378 235.106 127.44 236.176 128.608 237.246C129.67 238.317 130.732 239.387 131.794 240.576C132.856 241.765 133.812 242.954 134.768 244.5C135.193 245.214 135.724 245.927 136.149 246.879C136.361 247.354 136.573 247.83 136.786 248.425C136.998 249.019 137.211 249.852 137.211 250.922C137.317 252.706 136.361 254.133 134.98 254.846L134.768 254.965C133.175 255.679 131.582 256.392 129.989 256.749C129.139 256.987 128.396 257.106 127.546 257.344C126.697 257.463 125.847 257.582 125.104 257.582C123.405 257.701 121.812 257.701 120.112 257.463C119.263 257.344 118.413 257.225 117.67 257.106C117.245 256.987 116.82 256.987 116.395 256.868C115.971 256.749 115.652 256.63 115.015 256.511C112.785 255.798 111.51 253.063 112.147 250.565C112.785 248.187 114.909 246.76 117.033 247.236L117.67 247.354Z" fill="#FFC3BD"/>
<path d="M108.643 247.711C108.643 245.214 114.378 244.857 122.237 247.236C125.104 251.755 124.573 260.674 124.573 260.674C124.573 260.674 108.006 259.009 108.643 247.711Z" fill="#E8505B"/>
<path d="M122.449 257.106C122.555 259.96 122.236 263.528 121.705 270.306C121.28 276.133 122.555 287.193 120.962 288.025C117.351 290.879 107.156 290.047 94.7305 288.025C94.1995 279.701 94.4119 273.993 89.7391 255.322C88.6771 251.041 91.1197 246.879 94.9429 246.403C96.0049 246.284 97.0669 246.165 98.2351 246.165C102.589 245.927 106.2 245.808 110.129 246.165C111.404 246.284 112.784 246.522 114.059 246.641C118.732 247.473 122.342 251.992 122.449 257.106Z" fill="#E8505B"/>
<path d="M99.085 231.3C100.147 235.581 101.421 243.43 98.8726 246.284C98.8726 246.284 102.483 245.69 110.236 251.041C112.466 247.473 110.767 246.284 110.767 246.284C106.413 245.095 106.307 241.646 106.838 238.316L99.085 231.3Z" fill="#FFC3BD"/>
<path d="M108.643 249.852C106.094 250.208 105.351 254.49 105.351 254.49C105.351 254.49 99.2973 249.614 97.3857 246.284C98.3415 245.808 99.6159 244.738 99.6159 244.738C99.6159 244.738 107.156 248.306 108.643 249.852Z" fill="white"/>
<path d="M110.979 249.376C110.979 249.376 112.997 249.852 113.953 252.944C114.484 246.641 111.935 246.165 111.935 246.165C111.935 246.165 111.192 245.571 109.599 245.808C111.723 246.998 110.979 249.376 110.979 249.376Z" fill="white"/>
<path opacity="0.2" d="M102.271 234.154L106.837 238.316C106.731 239.149 106.625 239.862 106.625 240.695C104.926 240.457 102.589 238.435 102.271 236.533C102.164 235.462 102.164 234.511 102.271 234.154Z" fill="black"/>
<path d="M93.987 225.592C96.2172 232.133 97.0668 234.987 101.102 237.484C107.156 241.29 113.846 237.246 113.422 230.23C112.997 223.808 109.386 214.176 102.802 213.224C96.2172 212.273 91.7568 218.932 93.987 225.592Z" fill="#FFC3BD"/>
<path d="M89.5269 220.716C97.0671 223.808 98.4477 218.576 102.483 216.435C106.519 214.295 108.749 215.841 109.386 212.154C110.342 206.208 101.421 203.83 103.014 207.516C99.2973 205.97 96.2175 210.013 96.2175 210.013C95.6865 210.727 93.2439 213.224 93.2439 213.224C93.2439 213.224 84.0045 214.889 89.5269 220.716Z" fill="#263238"/>
<path d="M89.3144 219.527C84.5354 222.143 84.4292 229.992 88.571 233.322C92.7128 236.652 84.854 242.479 92.6066 244.976C100.359 247.354 105.882 241.527 102.271 235.581C98.66 229.635 101.103 220.716 97.8104 218.338C94.6244 216.078 89.3144 219.527 89.3144 219.527Z" fill="#263238"/>
<path opacity="0.2" d="M102.483 224.997C102.483 224.997 101.103 224.522 100.041 225.235C101.421 225.354 102.483 224.997 102.483 224.997Z" fill="black"/>
<path opacity="0.2" d="M102.483 225.592C102.483 225.592 101.209 225.473 100.465 226.424C101.634 226.306 102.483 225.592 102.483 225.592Z" fill="black"/>
<path d="M103.758 224.76C103.97 225.354 104.289 225.711 104.607 225.592C104.926 225.473 105.032 224.997 104.926 224.403C104.713 223.808 104.395 223.451 104.076 223.57C103.758 223.57 103.651 224.165 103.758 224.76Z" fill="#263238"/>
<path d="M109.917 222.976C110.129 223.57 110.448 223.927 110.767 223.808C111.085 223.689 111.191 223.214 111.085 222.619C110.873 222.024 110.554 221.668 110.236 221.787C109.917 221.905 109.705 222.5 109.917 222.976Z" fill="#263238"/>
<path d="M110.023 221.905L111.085 221.192C111.192 221.192 110.873 222.381 110.023 221.905Z" fill="#263238"/>
<path d="M108.537 224.403C108.537 224.403 110.13 226.543 111.404 227.495C110.979 228.327 109.705 228.446 109.705 228.446L108.537 224.403Z" fill="#ED847E"/>
<path d="M107.475 231.3C107.793 231.3 108.006 231.181 108.324 231.181C108.43 231.181 108.43 231.062 108.43 230.943C108.43 230.825 108.324 230.825 108.218 230.825C105.988 231.419 104.501 229.992 104.501 229.992C104.395 229.873 104.289 229.992 104.289 229.992C104.289 230.111 104.289 230.111 104.289 230.23C104.395 230.349 105.563 231.419 107.475 231.3Z" fill="#263238"/>
<path d="M93.775 231.181C94.6246 232.489 95.7928 233.203 96.7486 233.322C98.2354 233.441 98.554 231.419 97.8106 229.635C97.1734 227.97 95.5804 225.949 94.1998 226.662C92.9254 227.376 92.8192 229.635 93.775 231.181Z" fill="#FFB573"/>
<path d="M101.952 222.262C102.059 222.262 102.059 222.143 102.165 222.143C102.802 220.835 103.97 220.835 103.97 220.835C104.183 220.835 104.289 220.716 104.289 220.478C104.289 220.241 104.183 220.122 103.97 220.122C103.864 220.122 102.483 220.122 101.634 221.668C101.528 221.787 101.634 222.024 101.74 222.143C101.846 222.262 101.952 222.262 101.952 222.262Z" fill="#263238"/>
<path d="M110.554 218.932C110.66 218.932 110.66 218.932 110.767 218.814C110.873 218.695 110.873 218.457 110.767 218.338C109.492 217.03 108.112 217.386 108.005 217.386C107.793 217.386 107.793 217.624 107.793 217.743C107.793 217.981 108.005 218.1 108.218 217.981C108.324 217.981 109.386 217.743 110.342 218.814C110.448 218.932 110.554 218.932 110.554 218.932Z" fill="#263238"/>
<path d="M103.97 223.57L105.032 222.857C105.032 222.857 104.714 224.046 103.97 223.57Z" fill="#263238"/>
<path d="M106.731 268.76L104.82 268.522C104.076 268.403 103.333 268.76 102.908 269.355L100.678 272.209C99.8282 273.398 99.4034 274.944 99.722 276.49L99.9344 277.441C103.12 278.036 106.944 276.014 106.944 276.014L108.112 275.539C109.174 275.182 109.705 273.993 109.386 272.922L108.643 270.306C108.43 269.474 107.581 268.879 106.731 268.76Z" fill="#FFC3BD"/>
<path d="M122.449 226.9L124.148 227.97C124.785 228.327 125.21 229.16 125.316 229.992L125.635 233.798C125.741 235.343 125.21 236.889 124.148 237.841L123.511 238.435C120.643 236.771 118.519 232.727 118.519 232.727L117.776 231.657C117.139 230.706 117.351 229.397 118.201 228.684L120.112 227.138C120.749 226.424 121.705 226.424 122.449 226.9Z" fill="#FFC3BD"/>
<path d="M95.3678 258.176L94.6244 260.317C94.412 261.03 94.0934 261.863 93.881 262.695C93.4562 264.241 93.0314 265.906 92.6066 267.452C92.288 268.998 91.9694 270.663 91.6508 272.209C91.4384 273.874 91.226 275.42 91.1198 276.966L91.0136 276.014C91.0136 275.895 90.9074 275.658 90.695 275.42C90.4826 275.182 90.2702 274.944 90.0578 274.944C89.7392 274.825 89.8454 275.063 90.164 275.063C90.8012 275.182 91.9694 275.063 93.0314 274.825C94.0934 274.587 95.2616 274.23 96.536 273.874C97.7042 273.517 98.8724 273.041 100.041 272.685H100.147C101.315 272.328 102.483 273.041 102.802 274.231C103.014 275.182 102.802 276.133 102.165 276.728C101.103 277.679 99.9344 278.512 98.7662 279.463C97.598 280.295 96.3236 281.009 95.0492 281.722C93.6686 282.317 92.288 283.031 90.3764 283.15C89.4206 283.268 88.2524 283.268 86.6594 282.436C85.916 282.079 85.1726 281.366 84.5354 280.533C84.0044 279.701 83.6858 278.749 83.4734 277.917C83.4734 277.679 83.3672 277.441 83.3672 277.204V276.966C83.3672 274.944 83.3672 273.041 83.4734 271.02C83.5796 269.117 83.8982 267.095 84.2168 265.311C84.5354 263.409 84.9602 261.506 85.4912 259.722C85.8098 258.771 86.0222 257.938 86.3408 256.987C86.6594 256.036 86.978 255.203 87.4028 254.133C88.3586 251.755 90.9074 250.684 93.0314 251.755C95.0492 252.825 96.005 255.441 95.2616 257.701L95.3678 258.176Z" fill="#FFC3BD"/>
<path d="M94.7306 246.522C90.4826 247.235 88.7834 248.663 85.2788 258.295C86.8718 261.863 94.3058 265.311 94.3058 265.311C94.3058 265.311 100.041 253.538 94.7306 246.522Z" fill="#E8505B"/>
<path d="M111.298 253.419C111.404 254.014 111.298 254.371 110.979 254.371C110.767 254.371 110.448 253.895 110.342 253.419C110.236 252.825 110.342 252.468 110.661 252.468C110.873 252.468 111.192 252.825 111.298 253.419Z" fill="white"/>
<path d="M111.723 258.057C111.723 258.652 111.616 259.009 111.298 259.009C111.085 259.009 110.873 258.533 110.873 257.938C110.873 257.344 110.979 256.987 111.298 256.987C111.51 256.987 111.723 257.582 111.723 258.057Z" fill="white"/>
<path d="M98.3415 228.922C97.5981 226.068 95.4741 224.165 93.4563 224.641C91.4385 225.116 90.4828 227.851 91.12 230.706C91.8634 233.56 93.9874 235.462 96.0051 234.987C97.9167 234.511 98.9787 231.776 98.3415 228.922Z" fill="#E8505B"/>
<path opacity="0.3" d="M95.6863 229.992C95.0491 227.733 93.6685 226.187 92.5003 226.305C91.3321 226.424 90.9073 228.446 91.5445 230.587C92.1817 232.846 93.5623 234.392 94.7305 234.273C95.8987 234.154 96.3235 232.133 95.6863 229.992Z" fill="black"/>
<path d="M95.1555 224.76C93.7749 219.884 93.4563 213.581 96.1113 210.132C94.9431 210.251 92.8191 212.867 92.8191 212.867C91.5447 215.127 90.9075 220.122 92.3943 225.592C94.5183 226.424 95.1555 224.76 95.1555 224.76Z" fill="#E8505B"/>
<path d="M193.284 230.468L140.503 231.3L145.919 237.722L193.391 237.008L193.284 230.468Z" fill="#263238"/>
<path d="M177.248 259.484H157.708L159.619 265.311H177.248V259.484Z" fill="#263238"/>
<path d="M190.742 227.277L193.503 227.266L193.469 217.157L190.708 217.169L190.742 227.277Z" fill="#263238"/>
<path d="M203.798 212.867L193.284 213.819L192.01 230.824L202.524 230.943L203.798 212.867Z" fill="#263238"/>
<path opacity="0.1" d="M202.417 213.938L193.39 214.889L193.496 229.516L202.523 230.349L202.417 213.938Z" fill="white"/>
<path opacity="0.1" d="M202.417 217.743L193.497 218.457V220.954L202.417 220.478V217.743Z" fill="white"/>
<path d="M202.488 228.846L203.868 228.84L203.823 215.402L202.442 215.408L202.488 228.846Z" fill="#263238"/>
<path d="M210.17 210.608L203.479 210.846L203.904 229.992L208.683 229.754L210.17 210.608Z" fill="#263238"/>
<path opacity="0.1" d="M210.595 212.63H203.904V231.657H208.79L210.595 212.63Z" fill="white"/>
<path d="M180.647 214.532L175.868 209.419L175.655 201.094L124.892 202.165L124.467 205.019L119.688 205.138L116.608 223.451L121.387 223.332L119.794 233.322L176.186 232.133L192.222 231.776L191.904 214.295L180.647 214.532Z" fill="#263238"/>
<path opacity="0.1" d="M149.105 205.851L144.008 229.754C143.795 230.587 143.158 231.181 142.415 231.181L124.679 231.657C123.617 231.657 122.874 230.587 122.98 229.516L123.83 223.927C124.042 222.738 123.192 221.786 122.13 221.786H121.387C120.325 221.786 119.582 220.716 119.688 219.646L121.493 208.705C121.599 207.873 122.237 207.278 123.086 207.159H125.21C125.954 207.159 126.697 206.565 126.803 205.613C126.909 204.781 127.547 204.186 128.396 204.067L147.406 203.592C148.574 203.592 149.424 204.662 149.105 205.851Z" fill="white"/>
<path opacity="0.1" d="M190.523 220.003L190.629 230.111C190.629 231.181 189.886 232.014 189.036 232.014L147.087 232.727C146.025 232.727 145.175 231.657 145.494 230.468L150.804 206.565C151.016 205.732 151.654 205.138 152.397 205.138L172.681 204.781C173.637 204.781 174.38 205.613 174.38 206.565L174.487 211.203C174.487 211.678 174.699 212.154 175.018 212.511L179.797 217.743C180.115 218.1 180.54 218.219 180.965 218.219L189.036 218.1C189.779 218.219 190.523 219.051 190.523 220.003Z" fill="white"/>
<path d="M167.478 261.268C172.463 261.268 176.505 256.742 176.505 251.16C176.505 245.577 172.463 241.052 167.478 241.052C162.492 241.052 158.451 245.577 158.451 251.16C158.451 256.742 162.492 261.268 167.478 261.268Z" fill="#263238"/>
<path opacity="0.1" d="M172.257 251.16C172.257 254.133 170.133 256.511 167.478 256.511C164.823 256.511 162.699 254.133 162.699 251.16C162.699 248.187 164.823 245.808 167.478 245.808C170.133 245.808 172.257 248.187 172.257 251.16Z" fill="white"/>
<path d="M168.752 431.562C168.009 431.562 167.478 430.967 167.478 430.135V265.311H170.026V430.135C170.026 430.967 169.389 431.562 168.752 431.562Z" fill="#263238"/>
<path d="M146.132 431.562C145.388 431.562 144.751 430.849 144.857 430.016L160.894 265.43H163.442L147.3 430.492C147.3 431.086 146.769 431.562 146.132 431.562Z" fill="#263238"/>
<path d="M191.266 431.562C190.629 431.562 190.098 431.086 189.992 430.373L173.85 265.311H176.398L192.435 429.897C192.647 430.849 192.116 431.562 191.266 431.562Z" fill="#263238"/>
<path d="M165.247 191.224L137.104 193.602L129.67 202.402L133.918 202.284L139.016 195.862L163.336 194.316L164.398 201.451L168.646 201.332L165.247 191.224Z" fill="#263238"/>
<path d="M174.381 244.025H155.796C154.203 244.025 153.141 242.241 153.672 240.576L154.946 236.652H176.611V241.408C176.717 242.835 175.655 244.025 174.381 244.025Z" fill="#263238"/>
<path opacity="0.1" d="M174.381 244.025H155.796C154.203 244.025 153.141 242.241 153.672 240.576L154.946 236.652H176.611V241.408C176.717 242.835 175.655 244.025 174.381 244.025Z" fill="white"/>
<path d="M184.682 314.663C183.939 317.993 183.195 321.442 182.558 324.891C181.921 328.339 181.284 331.788 180.965 335.118C180.859 335.95 180.859 336.783 180.753 337.615V338.804V339.042V339.161C180.753 339.161 180.753 339.042 180.753 338.923C180.753 338.804 180.646 338.566 180.646 338.447C180.54 338.21 180.54 338.091 180.434 337.853C180.222 337.377 179.797 337.02 179.478 336.783C178.735 336.307 178.416 336.426 178.31 336.426C178.204 336.426 178.204 336.426 178.31 336.426C178.416 336.426 178.735 336.307 178.947 336.307C179.478 336.069 180.222 335.831 180.859 335.474C183.62 334.166 186.381 332.383 189.249 330.837C190.204 330.361 191.266 330.718 191.797 331.788C192.222 332.62 192.01 333.572 191.479 334.166C190.311 335.474 189.142 336.783 187.762 337.972C186.487 339.161 185.213 340.35 183.726 341.42C182.983 342.015 182.239 342.491 181.284 342.966C180.859 343.204 180.328 343.442 179.691 343.68C179.372 343.799 178.947 343.918 178.416 343.918C177.885 343.918 177.142 343.918 176.08 343.323C175.549 342.966 175.018 342.491 174.699 341.777C174.593 341.539 174.381 341.183 174.274 340.945C174.168 340.707 174.168 340.35 174.062 340.231C174.062 339.993 173.956 339.756 173.956 339.637V339.399V339.042L173.85 337.496C173.85 336.545 173.85 335.474 173.956 334.523C174.168 330.718 174.593 327.031 175.23 323.345C175.867 319.658 176.611 316.209 177.46 312.523C177.991 310.263 180.115 309.074 182.027 309.669C184.045 310.144 185.213 312.404 184.682 314.663Z" fill="#B55B52"/>
<path d="M198.063 330.48L196.789 333.81C196.47 334.642 195.833 335.118 195.09 335.118H192.116C192.116 335.118 188.505 336.901 186.912 334.642L187.018 332.264L192.222 328.577C192.753 328.22 193.39 327.982 194.028 328.101L197.001 328.458C197.851 328.696 198.382 329.528 198.063 330.48Z" fill="#B55B52"/>
<path d="M189.567 288.858C190.311 293.02 191.16 300.75 188.505 303.604C188.505 303.604 195.196 307.171 199.763 313.712C204.223 309.431 201.249 304.079 201.249 304.079C197.108 303.009 197.32 298.49 197.851 295.16L189.567 288.858Z" fill="#B55B52"/>
<path d="M186.487 305.269C189.992 309.312 186.912 321.68 184.257 326.437L175.018 320.728C175.018 320.728 175.336 313.355 177.142 309.55C179.053 305.388 184.045 302.534 186.487 305.269Z" fill="#E8505B"/>
<path d="M211.657 314.069C211.444 320.253 212.188 331.193 209.214 348.437L183.514 347.604C184.151 337.02 181.496 329.647 178.522 311.215C177.991 307.885 180.115 304.674 183.089 304.198C184.682 303.96 186.594 303.723 188.505 303.604C192.859 303.366 196.364 303.128 200.187 303.485C201.462 303.604 202.736 303.723 204.01 303.96C208.577 304.674 211.869 309.074 211.657 314.069Z" fill="#E8505B"/>
<path d="M200.824 278.749C201.037 279.225 201.462 279.582 201.674 279.463C201.993 279.344 202.099 278.749 201.886 278.274C201.674 277.798 201.249 277.441 201.037 277.56C200.718 277.679 200.612 278.274 200.824 278.749Z" fill="#263238"/>
<path d="M200.931 277.679L201.993 276.847C201.886 276.847 201.674 278.036 200.931 277.679Z" fill="#263238"/>
<path d="M201.143 279.582C201.143 279.582 202.736 281.485 204.01 282.198C203.586 283.149 202.417 283.268 202.417 283.268L201.143 279.582Z" fill="#A02724"/>
<path d="M199.763 273.993C199.763 273.874 199.763 273.755 199.763 273.636C199.656 273.517 199.444 273.517 199.338 273.636C198.063 274.825 198.17 276.371 198.17 276.371C198.17 276.609 198.382 276.728 198.488 276.609C198.701 276.609 198.807 276.371 198.701 276.252C198.701 276.252 198.594 274.944 199.656 273.993C199.656 274.111 199.763 273.993 199.763 273.993Z" fill="#263238"/>
<path d="M184.151 284.101C186.7 290.523 187.55 293.377 191.691 295.517C197.851 298.847 204.329 293.971 203.586 286.836C202.948 280.414 198.913 270.901 192.329 270.663C185.85 270.425 181.602 277.679 184.151 284.101Z" fill="#B55B52"/>
<path d="M196.364 273.993C199.762 275.776 198.7 281.485 198.169 282.436C201.568 286.955 198.488 295.279 204.966 295.636C204.648 301.225 188.505 302.89 184.151 300.512C181.177 298.966 178.31 292.544 183.195 287.312C179.584 281.485 180.434 276.49 183.195 273.16C188.611 266.738 197.001 268.165 196.364 273.993Z" fill="#263238"/>
<path d="M184.257 283.506C178.841 290.404 174.487 304.674 185.213 293.971C191.904 287.312 196.895 275.42 196.895 275.42L184.257 283.506Z" fill="#407BFF"/>
<path opacity="0.7" d="M184.257 283.506C178.841 290.404 174.487 304.674 185.213 293.971C191.904 287.312 196.895 275.42 196.895 275.42L184.257 283.506Z" fill="#E8505B"/>
<path d="M182.664 289.452C190.523 287.549 198.382 274.944 198.913 272.684C197.32 269.949 193.39 267.571 190.204 268.165C185.213 269.117 180.859 273.636 179.691 279.82C179.266 282.555 182.664 289.452 182.664 289.452Z" fill="#E8505B"/>
<path d="M195.727 283.625C196.364 285.171 197.532 286.122 198.7 286.598C200.4 287.193 201.355 285.528 201.037 283.625C200.718 281.96 199.338 279.582 197.532 279.701C195.727 279.82 194.983 281.841 195.727 283.625Z" fill="#B55B52"/>
<path d="M240.437 427.757L246.491 427.043L242.349 410.275L236.295 410.989L240.437 427.757Z" fill="#B55B52"/>
<path d="M257.429 429.065C253.606 428.351 251.588 428.232 247.446 425.378C247.021 425.022 246.49 424.903 246.066 424.903L239.694 425.854C239.481 425.854 239.269 426.092 239.269 426.449L238.95 431.205C238.844 432.87 239.906 434.297 241.18 434.178C243.198 433.941 245.428 433.227 247.552 433.108C250.738 432.87 253.606 432.989 257.217 432.157C259.553 431.681 258.703 429.303 257.429 429.065Z" fill="#263238"/>
<path d="M261.465 407.065L266.244 404.329L259.872 390.535L254.986 396.243L261.465 407.065Z" fill="#B55B52"/>
<path d="M266.35 402.546L260.403 405.875C260.19 405.994 260.084 406.351 260.084 406.589L261.358 411.227C261.783 412.773 263.376 413.367 264.757 412.773C266.668 411.94 268.155 409.919 270.492 408.61C273.89 406.708 275.802 406.232 278.563 403.021C280.474 400.881 278.032 399.929 276.97 400.405C274.209 401.713 273.465 402.664 268.155 402.308C267.412 402.189 266.881 402.189 266.35 402.546Z" fill="#263238"/>
<path d="M200.293 348.08C200.293 348.08 241.924 341.183 246.172 353.075C253.712 373.886 264.757 398.978 264.757 398.978L258.172 402.902C258.172 402.902 240.968 383.518 234.49 362.707C226.737 365.442 204.647 371.626 195.62 371.626C186.062 371.626 179.797 365.323 183.195 350.102C183.514 348.793 184.576 347.842 185.85 347.842C192.01 347.842 200.293 348.08 200.293 348.08Z" fill="#407BFF"/>
<path opacity="0.5" d="M200.293 348.08C200.293 348.08 241.924 341.183 246.172 353.075C253.712 373.886 264.757 398.978 264.757 398.978L258.172 402.902C258.172 402.902 240.968 383.518 234.49 362.707C226.737 365.442 204.647 371.626 195.62 371.626C186.062 371.626 179.797 365.323 183.195 350.102C183.514 348.793 184.576 347.842 185.85 347.842C192.01 347.842 200.293 348.08 200.293 348.08Z" fill="white"/>
<path d="M208.471 349.388C208.471 349.388 238.419 352.956 238.738 366.513C239.163 388.87 245.322 420.978 245.322 420.978L238.632 421.692C238.632 421.692 226.95 396.481 224.295 374.599C212.082 375.432 203.267 375.194 194.346 373.648C184.364 371.983 177.142 364.134 184.257 347.842C190.098 346.415 208.471 349.388 208.471 349.388Z" fill="#407BFF"/>
<path opacity="0.7" d="M208.471 349.388C208.471 349.388 238.419 352.956 238.738 366.513C239.163 388.87 245.322 420.978 245.322 420.978L238.632 421.692C238.632 421.692 226.95 396.481 224.295 374.599C212.082 375.432 203.267 375.194 194.346 373.648C184.364 371.983 177.142 364.134 184.257 347.842C190.098 346.415 208.471 349.388 208.471 349.388Z" fill="white"/>
<path d="M183.195 345.939L182.452 348.437C182.346 348.675 182.558 348.793 182.877 348.912L209.321 349.745C209.533 349.745 209.745 349.626 209.745 349.507L210.064 346.891C210.064 346.772 209.852 346.534 209.639 346.534L183.62 345.702C183.408 345.82 183.195 345.82 183.195 345.939Z" fill="white"/>
<path d="M186.593 349.388H185.85C185.744 349.388 185.638 349.269 185.638 349.15L186.062 345.82C186.062 345.702 186.169 345.702 186.381 345.702H187.124C187.231 345.702 187.337 345.82 187.337 345.939L186.912 349.269C186.806 349.269 186.7 349.388 186.593 349.388Z" fill="#407BFF"/>
<path d="M207.302 349.983H206.559C206.453 349.983 206.347 349.864 206.347 349.745L206.771 346.415C206.771 346.296 206.878 346.296 207.09 346.296H207.833C207.94 346.296 208.046 346.415 208.046 346.534L207.621 349.864C207.621 349.983 207.515 349.983 207.302 349.983Z" fill="#407BFF"/>
<path d="M197.001 349.745H196.258C196.152 349.745 196.045 349.626 196.045 349.507L196.47 346.177C196.47 346.058 196.576 346.058 196.789 346.058H197.532C197.638 346.058 197.745 346.177 197.745 346.296L197.32 349.626C197.214 349.626 197.107 349.745 197.001 349.745Z" fill="#407BFF"/>
<path d="M213.356 317.993C213.462 319.301 213.675 320.847 213.887 322.274C214.099 323.701 214.418 325.128 214.737 326.555C215.055 327.982 215.48 329.291 215.905 330.599C216.33 331.907 216.861 333.096 217.498 334.285L217.604 334.523C217.604 334.523 217.604 334.642 217.71 334.642C217.816 334.761 218.029 334.999 218.241 335.237C218.666 335.712 219.197 336.069 219.728 336.545C220.79 337.377 221.958 338.329 223.126 339.161L230.242 344.393C231.091 344.988 231.304 346.296 230.773 347.248C230.348 348.08 229.392 348.318 228.649 348.08C225.781 347.129 223.126 346.058 220.365 344.631C218.985 343.918 217.71 343.323 216.33 342.491C215.692 342.134 214.949 341.658 214.206 341.064C213.887 340.826 213.462 340.469 213.037 340.112C212.825 339.874 212.613 339.637 212.4 339.399L211.975 338.923L211.763 338.685C209.745 335.593 208.471 332.264 207.515 328.934C207.09 327.269 206.665 325.604 206.453 323.82C206.347 322.988 206.241 322.155 206.134 321.204C206.028 320.372 205.922 319.539 205.922 318.469C205.816 316.209 207.409 314.188 209.427 314.069C211.444 313.95 213.144 315.615 213.356 317.755V317.993Z" fill="#B55B52"/>
<path d="M208.258 305.863C215.268 311.215 215.374 322.036 215.374 322.036L206.453 325.009C206.453 325.009 201.886 321.323 201.886 314.426C201.78 309.312 205.71 303.961 208.258 305.863Z" fill="#E8505B"/>
<path d="M236.932 345.702L234.808 344.037C234.277 343.68 233.64 343.442 233.109 343.442L227.799 344.037L226.312 346.653C228.861 348.912 231.091 349.031 231.091 349.031L233.746 350.696C234.171 350.934 234.702 350.934 235.021 350.458L237.251 347.961C237.782 347.485 237.676 346.296 236.932 345.702Z" fill="#B55B52"/>
<path d="M258.491 403.021L264.863 399.573C265.288 399.335 265.5 398.859 265.288 398.383L264.438 395.886C264.226 395.291 263.695 395.054 263.164 395.41L256.155 399.81C255.624 400.167 255.517 401 255.942 401.475L257.429 403.021C257.854 403.14 258.172 403.259 258.491 403.021Z" fill="white"/>
<path d="M238.313 423.238L245.322 422.524C245.747 422.524 246.172 422.048 246.172 421.573V418.957C246.172 418.362 245.641 417.886 245.11 418.005L237.145 419.432C236.508 419.551 236.189 420.265 236.508 420.859L237.464 422.881C237.676 423.119 237.995 423.238 238.313 423.238Z" fill="white"/>
<path d="M182.664 383.756H221.852C223.869 383.756 225.569 381.853 225.569 379.594V373.172C225.569 370.913 223.869 369.01 221.852 369.01H182.664C180.646 369.01 178.947 370.913 178.947 373.172V379.594C179.053 381.972 180.646 383.756 182.664 383.756Z" fill="#263238"/>
<path d="M199.714 438.072H204.812V383.845H199.714V438.072Z" fill="#263238"/>
<path opacity="0.6" d="M199.714 438.072H204.812V383.845H199.714V438.072Z" fill="white"/>
<path opacity="0.2" d="M199.762 383.756H204.86V389.345L199.762 387.205V383.756Z" fill="black"/>
<path d="M215.161 434.535L221.427 436.676C222.701 437.151 222.383 439.173 221.108 439.173H183.407C182.133 439.173 181.814 437.151 183.089 436.676L189.354 434.535C197.85 431.8 206.771 431.8 215.161 434.535Z" fill="#263238"/>
<path d="M180.009 357.356H211.338C214.205 357.356 216.223 354.739 215.692 351.41L212.931 332.977C212.4 329.766 209.639 327.031 206.771 327.031H175.336C172.469 327.031 170.451 329.647 170.982 332.977L173.743 351.41C174.274 354.739 177.035 357.356 180.009 357.356Z" fill="#263238"/>
<path d="M207.302 376.264C206.559 376.264 205.815 375.669 205.709 374.718L200.187 336.664C200.081 335.712 200.612 334.761 201.461 334.642C202.311 334.523 203.16 335.118 203.267 336.069L208.789 374.124C208.895 375.075 208.364 376.026 207.515 376.145C207.515 376.264 207.408 376.264 207.302 376.264Z" fill="#E8505B"/>
<path d="M186.168 376.264C185.425 376.264 184.682 375.669 184.575 374.718L179.053 336.664C178.947 335.712 179.478 334.761 180.327 334.642C181.177 334.523 182.027 335.118 182.133 336.069L187.655 374.124C187.761 375.075 187.23 376.026 186.381 376.145C186.381 376.264 186.275 376.264 186.168 376.264Z" fill="#E8505B"/>
<path d="M373.459 436.315L340.051 436.185L340.505 433.333L342.127 422.38L357.242 423.352C357.242 423.352 372.032 427.565 373.395 430.87C373.524 431.13 373.589 431.389 373.654 431.648C374.173 433.917 373.459 436.315 373.459 436.315Z" fill="#485A7E"/>
<path d="M373.459 436.315L340.051 436.185L340.505 433.333L373.654 431.648C374.173 433.917 373.459 436.315 373.459 436.315Z" fill="#627A9E"/>
<path d="M275.958 410.972L302.555 434.759L303.658 432.231L308.004 422.38L295.549 412.333C295.549 412.333 281.602 405.139 278.812 406.759C278.618 406.889 278.423 407.018 278.228 407.213C276.607 408.509 275.958 410.972 275.958 410.972Z" fill="#485A7E"/>
<path d="M275.958 410.972L302.555 434.759L303.658 432.231L278.228 407.213C276.607 408.509 275.958 410.972 275.958 410.972Z" fill="#627A9E"/>
<path d="M365.156 310.509L364.637 322.759L360.29 424.065L340.051 426.139L340.894 337.926V337.148L319.941 394.315L308.329 426.009L293.019 411.102L319.551 319.713L321.108 314.139L365.156 310.509Z" fill="#FAD4B0"/>
<path d="M365.156 310.509L364.637 322.759C357.371 324.38 350.041 325.676 342.71 325.611C334.731 325.611 326.622 323.926 319.551 319.713L321.108 314.139L365.156 310.509Z" fill="#F0BC97"/>
<path d="M340.894 337.148L319.94 394.315C323.314 373.38 327.401 352.574 332.136 331.963C335.834 333.065 340.894 337.148 340.894 337.148Z" fill="#F0BC97"/>
<path d="M336.677 315.824C335.769 321.852 335.834 328.074 337.002 334.102" stroke="#C2856E" stroke-miterlimit="10" stroke-linecap="round"/>
<path d="M340.894 315.824C340.894 320.361 340.634 326.194 340.18 327.296C339.467 328.982 338.299 329.046 336.612 329.111" stroke="#C2856E" stroke-miterlimit="10" stroke-linecap="round"/>
<path d="M322.989 316.083C322.73 317.574 322.405 319.13 321.822 320.556C321.238 321.982 320.265 323.278 318.902 323.991" stroke="#C2856E" stroke-miterlimit="10" stroke-linecap="round"/>
<path d="M356.917 313.75C356.982 315.5 357.047 317.315 357.631 318.935C358.279 320.556 359.252 322.176 361.588 322.435" stroke="#C2856E" stroke-miterlimit="10" stroke-linecap="round"/>
<path d="M361.912 312.13C361.653 348.556 360.356 385.435 357.696 421.796" stroke="#C2856E" stroke-miterlimit="10" stroke-linecap="round"/>
<path d="M340.634 424.13C347.057 423.546 353.479 422.768 359.836 421.731" stroke="#C2856E" stroke-miterlimit="10" stroke-linecap="round"/>
<path d="M294.251 408.769C299.376 412.982 304.436 417.194 309.561 421.407" stroke="#C2856E" stroke-miterlimit="10" stroke-linecap="round"/>
<path d="M308.699 246.13C308.699 246.13 306.105 248.5 301.5 248.5C294.818 248.5 279.5 253.5 274 255.5C269.875 257 264 258.5 264 258.5V266.5C264 266.5 290.618 262.074 292.5 261.62C293.602 261.361 300.98 261.167 303.38 261.361C305.067 261.491 306.299 261.62 306.299 261.62L308.699 246.13Z" fill="#FDA68A"/>
<path d="M313.388 261.38C313.388 261.38 309.626 261.509 305.02 261.509C305.28 256.194 306.382 251.074 308.134 246.148C309.82 246.019 311.053 245.889 311.053 245.889L313.388 261.38Z" fill="#E57873"/>
<path d="M267.351 257.817C262.844 258.011 255.409 258.668 252.987 259.722C251.374 260.39 245.894 263.932 245.41 265.528C244.925 267.176 246.853 272.194 247.922 273.328C248.329 273.76 249.508 273.387 249.555 272.14C249.611 270.632 248.752 268.153 249.106 267.177C249.341 266.561 250.753 265.625 251.937 265.097C251.356 266.481 251.037 267.927 250.917 269.692C250.784 271.822 250.937 273.389 252.047 274.837C252.503 275.375 253.517 275.152 253.801 274.643C253.999 275.014 254.357 275.34 254.942 275.258C255.528 275.176 255.702 274.766 255.931 274.306C256.395 274.636 257.039 274.4 257.427 273.946C257.76 273.542 257.887 272.974 258.012 272.458C258.206 271.529 258.241 270.593 258.691 269.881C259.144 269.117 259.956 268.627 260.822 268.139C264.424 268.067 266.63 267.109 268.668 264.999C268.915 262.665 269.007 260.222 267.351 257.817Z" fill="#FDA68A"/>
<path d="M253.76 274.329C252.842 272.003 252.836 269.348 253.77 267.041" stroke="#D85B5B" stroke-miterlimit="10" stroke-linecap="round" stroke-linejoin="round"/>
<path d="M255.849 273.678C255.139 271.465 255.55 268.982 256.838 267.104" stroke="#D85B5B" stroke-miterlimit="10" stroke-linecap="round" stroke-linejoin="round"/>
<path d="M380.919 268.574C380.919 268.574 399.602 275.509 401.354 277.389C403.105 279.269 400.381 291.389 395.904 291.13C391.428 290.806 373.913 284.713 373.913 284.713L380.919 268.574Z" fill="#F79881"/>
<path d="M398.759 247.704C397.267 245.306 396.424 242.454 396.489 239.602C396.489 238.889 396.553 238.176 396.294 237.463C396.034 236.815 395.451 236.167 394.737 236.167C394.088 236.167 393.569 236.685 393.18 237.268C392.207 238.694 391.753 240.444 391.948 242.194C392.142 243.944 392.986 245.565 394.413 246.861C395.84 247.185 397.332 247.444 398.759 247.704Z" fill="#E57873"/>
<path d="M390.078 255.517L367.797 249.813C367.183 249.656 366.816 249.018 366.977 248.389L370.137 236.087C370.298 235.458 370.927 235.076 371.542 235.233L393.823 240.937C394.437 241.094 394.804 241.732 394.643 242.361L391.483 254.662C391.323 255.292 390.694 255.675 390.078 255.517Z" fill="#E7E6FF"/>
<path opacity="0.25" d="M384.753 245.976C383.153 245.567 381.516 246.563 381.095 248.201C380.674 249.84 381.629 251.5 383.229 251.909C384.829 252.319 386.466 251.323 386.887 249.684C387.308 248.046 386.353 246.386 384.753 245.976ZM383.413 251.195C382.199 250.884 381.474 249.625 381.793 248.382C382.113 247.139 383.355 246.383 384.569 246.694C385.782 247.004 386.507 248.264 386.188 249.507C385.869 250.75 384.626 251.506 383.413 251.195Z" fill="#91A6F2"/>
<path opacity="0.25" d="M384.678 250.137C385.329 249.741 385.548 248.886 385.169 248.227C384.789 247.567 383.954 247.353 383.303 247.749C382.652 248.145 382.432 249 382.812 249.659C383.192 250.318 384.027 250.532 384.678 250.137Z" fill="#91A6F2"/>
<path d="M376.469 241.309L370.827 239.865L368.807 247.727L374.449 249.172L376.469 241.309Z" fill="#D0B5B7"/>
<path d="M374.45 249.172L368.807 247.727L369.213 246.149C369.328 245.697 369.745 245.395 370.199 245.434L372.355 245.618L374.334 246.493C374.75 246.677 374.97 247.141 374.854 247.593L374.449 249.171L374.45 249.172Z" fill="#A07666"/>
<path d="M391.145 246.505L378.894 243.367C378.628 243.299 378.47 243.024 378.54 242.752C378.61 242.48 378.88 242.315 379.146 242.383L391.397 245.522C391.663 245.59 391.821 245.864 391.751 246.136C391.681 246.409 391.411 246.573 391.145 246.505Z" fill="#FB5B16"/>
<path d="M381.656 246.182L378.386 245.345C378.267 245.314 378.196 245.19 378.227 245.068C378.258 244.946 378.38 244.872 378.5 244.902L381.771 245.74C381.89 245.771 381.961 245.894 381.93 246.017C381.897 246.138 381.775 246.213 381.656 246.182Z" fill="#91A6F2"/>
<path d="M390.568 248.754L386.47 247.704C386.204 247.636 386.046 247.362 386.116 247.09C386.186 246.817 386.457 246.653 386.722 246.721L390.82 247.77C391.086 247.838 391.244 248.113 391.174 248.385C391.104 248.657 390.834 248.822 390.568 248.754Z" fill="#91A6F2"/>
<path d="M382.542 247.368L378.155 246.244C378.036 246.214 377.965 246.09 377.996 245.968C378.027 245.845 378.149 245.771 378.269 245.802L382.655 246.925C382.774 246.956 382.846 247.08 382.814 247.202C382.783 247.324 382.661 247.398 382.542 247.368Z" fill="#91A6F2"/>
<path d="M384.001 248.7L377.924 247.143C377.805 247.113 377.734 246.989 377.765 246.867C377.796 246.745 377.918 246.671 378.038 246.701L384.116 248.258C384.236 248.289 384.307 248.413 384.276 248.535C384.243 248.657 384.121 248.731 384.001 248.7Z" fill="#91A6F2"/>
<path d="M383.771 249.6L377.694 248.043C377.574 248.012 377.503 247.889 377.535 247.766C377.566 247.644 377.688 247.57 377.807 247.601L383.886 249.158C384.005 249.188 384.076 249.312 384.045 249.434C384.012 249.556 383.89 249.63 383.771 249.6Z" fill="#91A6F2"/>
<path d="M380.732 249.78L377.463 248.942C377.343 248.912 377.272 248.788 377.304 248.666C377.335 248.544 377.457 248.469 377.576 248.5L380.847 249.338C380.967 249.368 381.038 249.492 381.006 249.614C380.974 249.736 380.851 249.81 380.732 249.78Z" fill="#91A6F2"/>
<path d="M379.04 251.265L377.68 250.917C377.561 250.886 377.489 250.762 377.521 250.64C377.552 250.518 377.674 250.444 377.793 250.474L379.153 250.823C379.273 250.853 379.344 250.977 379.313 251.099C379.281 251.221 379.159 251.295 379.04 251.265Z" fill="#91A6F2"/>
<path d="M383.078 252.299L380.888 251.739C380.769 251.708 380.697 251.584 380.729 251.462C380.76 251.34 380.882 251.266 381.002 251.296L383.192 251.857C383.311 251.888 383.382 252.011 383.351 252.134C383.319 252.256 383.197 252.33 383.078 252.299Z" fill="#FFB445"/>
<path d="M379.271 250.365L377.911 250.017C377.792 249.987 377.72 249.863 377.752 249.741C377.783 249.619 377.905 249.544 378.024 249.575L379.384 249.923C379.504 249.954 379.575 250.077 379.543 250.2C379.513 250.32 379.39 250.396 379.271 250.365Z" fill="#91A6F2"/>
<path d="M390.544 241.548L388.632 243.202L394.072 244.595L394.589 242.584L390.544 241.548Z" fill="#FFB445"/>
<path d="M375.12 237.596L370.077 236.305L369.561 238.316L373.207 239.25L375.12 237.596Z" fill="#FFB445"/>
<path d="M376.216 238.956C376.192 239.049 376.155 239.13 376.105 239.201C376.055 239.271 375.995 239.328 375.926 239.37C375.858 239.412 375.78 239.438 375.695 239.449C375.61 239.46 375.52 239.454 375.427 239.43L374.956 239.309L375.281 238.042L375.752 238.162C375.846 238.186 375.928 238.224 375.997 238.274C376.066 238.325 376.121 238.385 376.161 238.455C376.201 238.524 376.226 238.602 376.236 238.688C376.246 238.775 376.24 238.864 376.216 238.956ZM375.979 238.896C375.997 238.826 376.003 238.762 376 238.702C375.996 238.641 375.982 238.589 375.957 238.541C375.934 238.494 375.899 238.454 375.856 238.421C375.813 238.389 375.761 238.364 375.701 238.349L375.461 238.287L375.232 239.179L375.472 239.24C375.532 239.256 375.59 239.259 375.643 239.251C375.696 239.243 375.745 239.225 375.789 239.195C375.832 239.165 375.872 239.125 375.904 239.074C375.937 239.025 375.961 238.965 375.979 238.896Z" fill="#FA3C32"/>
<path d="M377.221 239.889L377.013 239.836C376.974 239.826 376.949 239.803 376.939 239.766L376.785 239.295C376.78 239.277 376.771 239.263 376.762 239.255C376.751 239.245 376.736 239.238 376.713 239.232L376.615 239.207L376.488 239.702L376.257 239.643L376.583 238.375L376.96 238.472C377.044 238.493 377.113 238.521 377.169 238.553C377.224 238.587 377.268 238.625 377.298 238.665C377.329 238.708 377.346 238.753 377.352 238.803C377.359 238.852 377.355 238.904 377.342 238.958C377.33 239.001 377.314 239.04 377.292 239.074C377.27 239.11 377.244 239.139 377.213 239.164C377.182 239.189 377.147 239.21 377.106 239.224C377.065 239.238 377.023 239.247 376.975 239.25C376.988 239.263 376.999 239.276 377.008 239.291C377.017 239.307 377.026 239.324 377.032 239.342L377.221 239.889ZM376.8 239.073C376.844 239.085 376.884 239.088 376.918 239.085C376.953 239.083 376.984 239.074 377.01 239.059C377.036 239.045 377.057 239.025 377.075 239.002C377.092 238.978 377.104 238.95 377.112 238.918C377.129 238.853 377.121 238.798 377.089 238.753C377.056 238.709 376.997 238.676 376.911 238.654L376.764 238.616L376.656 239.036L376.8 239.073Z" fill="#FA3C32"/>
<path d="M377.589 239.983L377.358 239.924L377.683 238.657L377.914 238.716L377.589 239.983Z" fill="#FA3C32"/>
<path d="M379.25 239.058L378.425 240.198L378.217 240.145L378.042 238.749L378.227 238.796C378.246 238.801 378.262 238.81 378.271 238.824C378.281 238.836 378.288 238.853 378.29 238.87L378.382 239.718C378.385 239.745 378.389 239.775 378.388 239.808C378.39 239.84 378.389 239.874 378.39 239.909C378.406 239.878 378.42 239.849 378.437 239.82C378.452 239.793 378.468 239.767 378.485 239.744L378.973 239.045C378.981 239.032 378.994 239.022 379.01 239.015C379.026 239.008 379.045 239.006 379.064 239.011L379.25 239.058Z" fill="#FA3C32"/>
<path d="M379.561 239.338L379.471 239.688L379.904 239.799L379.858 239.98L379.425 239.869L379.333 240.228L379.882 240.368L379.834 240.557L379.053 240.357L379.379 239.09L380.159 239.29L380.111 239.477L379.562 239.336L379.561 239.338Z" fill="#FA3C32"/>
<path d="M381.003 240.858L380.795 240.805C380.756 240.795 380.731 240.772 380.721 240.735L380.566 240.264C380.561 240.246 380.551 240.232 380.542 240.223C380.532 240.214 380.516 240.206 380.493 240.201L380.395 240.175L380.268 240.67L380.037 240.611L380.363 239.344L380.74 239.44C380.825 239.462 380.893 239.489 380.949 239.522C381.005 239.556 381.048 239.593 381.078 239.634C381.109 239.676 381.126 239.722 381.133 239.771C381.139 239.821 381.136 239.872 381.122 239.927C381.111 239.97 381.094 240.009 381.073 240.043C381.051 240.078 381.024 240.107 380.993 240.133C380.963 240.158 380.927 240.178 380.886 240.192C380.847 240.207 380.803 240.216 380.756 240.218C380.768 240.231 380.78 240.244 380.789 240.26C380.797 240.275 380.806 240.292 380.813 240.31L381.003 240.858ZM380.582 240.042C380.626 240.053 380.665 240.057 380.7 240.054C380.734 240.051 380.765 240.043 380.792 240.028C380.818 240.014 380.839 239.994 380.856 239.971C380.874 239.947 380.886 239.919 380.894 239.886C380.911 239.821 380.902 239.767 380.87 239.722C380.838 239.678 380.779 239.645 380.693 239.622L380.545 239.585L380.437 240.005L380.582 240.042Z" fill="#FA3C32"/>
<path d="M382.745 241.097L382.695 241.292L381.971 241.106L382.296 239.839L382.527 239.898L382.252 240.971L382.745 241.097Z" fill="#FA3C32"/>
<path d="M383.091 241.393L382.86 241.334L383.186 240.067L383.416 240.126L383.091 241.393Z" fill="#FA3C32"/>
<path d="M384.294 241.382C384.306 241.385 384.317 241.393 384.323 241.406L384.388 241.529C384.322 241.58 384.247 241.614 384.165 241.629C384.082 241.644 383.99 241.638 383.887 241.612C383.795 241.589 383.716 241.552 383.652 241.501C383.587 241.449 383.536 241.389 383.5 241.318C383.463 241.248 383.44 241.17 383.433 241.082C383.426 240.997 383.435 240.905 383.459 240.812C383.484 240.716 383.521 240.634 383.57 240.562C383.62 240.491 383.679 240.434 383.748 240.39C383.817 240.347 383.891 240.318 383.975 240.307C384.059 240.294 384.144 240.299 384.235 240.322C384.325 240.345 384.401 240.381 384.463 240.429C384.525 240.477 384.575 240.531 384.611 240.593L384.506 240.683C384.499 240.69 384.491 240.694 384.483 240.697C384.474 240.7 384.464 240.701 384.45 240.697C384.441 240.695 384.433 240.689 384.425 240.682C384.417 240.675 384.408 240.667 384.4 240.656C384.391 240.646 384.381 240.635 384.369 240.622C384.357 240.609 384.343 240.597 384.325 240.584C384.309 240.572 384.288 240.56 384.265 240.549C384.242 240.538 384.214 240.528 384.181 240.519C384.125 240.505 384.072 240.503 384.021 240.511C383.97 240.52 383.922 240.539 383.879 240.569C383.836 240.599 383.798 240.639 383.766 240.69C383.733 240.741 383.708 240.8 383.69 240.871C383.672 240.942 383.666 241.009 383.671 241.069C383.677 241.13 383.692 241.183 383.715 241.23C383.738 241.277 383.772 241.316 383.812 241.347C383.852 241.379 383.899 241.403 383.952 241.416C383.984 241.424 384.013 241.43 384.038 241.433C384.064 241.437 384.089 241.436 384.112 241.434C384.135 241.432 384.158 241.428 384.18 241.42C384.202 241.413 384.224 241.403 384.248 241.39C384.256 241.387 384.263 241.384 384.27 241.382C384.28 241.381 384.286 241.38 384.294 241.382Z" fill="#FA3C32"/>
<path d="M385.008 240.733L384.918 241.084L385.351 241.195L385.304 241.375L384.871 241.265L384.779 241.623L385.328 241.764L385.28 241.952L384.5 241.753L384.825 240.485L385.605 240.685L385.557 240.872L385.008 240.731L385.008 240.733Z" fill="#FA3C32"/>
<path d="M386.852 241.006L386.527 242.273L386.409 242.243C386.391 242.239 386.376 242.232 386.366 242.222C386.355 242.213 386.346 242.199 386.338 242.182L385.909 241.171C385.902 241.211 385.894 241.247 385.886 241.279L385.686 242.057L385.484 242.005L385.81 240.737L385.93 240.768C385.939 240.771 385.948 240.773 385.956 240.776C385.963 240.78 385.968 240.783 385.972 240.786C385.978 240.79 385.981 240.794 385.985 240.8C385.988 240.806 385.993 240.814 385.996 240.825L386.427 241.839C386.431 241.819 386.435 241.798 386.438 241.778C386.442 241.757 386.447 241.739 386.451 241.722L386.649 240.952L386.852 241.004L386.852 241.006Z" fill="#FA3C32"/>
<path d="M387.727 241.476C387.716 241.486 387.708 241.494 387.699 241.496C387.69 241.501 387.681 241.5 387.668 241.497C387.656 241.494 387.644 241.486 387.633 241.473C387.622 241.46 387.607 241.447 387.591 241.429C387.574 241.413 387.554 241.397 387.531 241.381C387.508 241.365 387.477 241.352 387.442 241.343C387.411 241.335 387.381 241.333 387.355 241.334C387.329 241.336 387.306 241.342 387.286 241.351C387.266 241.361 387.249 241.375 387.237 241.393C387.224 241.411 387.214 241.432 387.208 241.455C387.2 241.484 387.202 241.511 387.213 241.535C387.225 241.559 387.241 241.582 387.265 241.603C387.289 241.624 387.316 241.644 387.347 241.663C387.379 241.683 387.411 241.704 387.444 241.726C387.477 241.748 387.508 241.772 387.538 241.796C387.569 241.822 387.594 241.85 387.614 241.883C387.635 241.915 387.648 241.953 387.655 241.993C387.662 242.034 387.658 242.081 387.645 242.133C387.63 242.19 387.607 242.242 387.575 242.287C387.543 242.331 387.504 242.367 387.457 242.395C387.411 242.423 387.359 242.44 387.3 242.449C387.242 242.457 387.179 242.452 387.109 242.434C387.07 242.424 387.032 242.41 386.996 242.392C386.961 242.375 386.926 242.354 386.895 242.33C386.864 242.307 386.835 242.28 386.81 242.252C386.785 242.224 386.762 242.194 386.746 242.163L386.843 242.068C386.851 242.062 386.861 242.056 386.871 242.054C386.882 242.05 386.891 242.051 386.902 242.053C386.915 242.057 386.93 242.067 386.944 242.084C386.957 242.1 386.973 242.118 386.992 242.139C387.011 242.159 387.035 242.18 387.062 242.2C387.089 242.22 387.123 242.235 387.167 242.246C387.232 242.263 387.287 242.261 387.332 242.238C387.376 242.214 387.406 242.174 387.422 242.114C387.43 242.08 387.429 242.052 387.418 242.026C387.407 242 387.391 241.978 387.367 241.957C387.343 241.936 387.316 241.916 387.285 241.896C387.252 241.878 387.22 241.858 387.189 241.837C387.157 241.816 387.126 241.793 387.095 241.768C387.065 241.743 387.04 241.715 387.02 241.682C386.999 241.648 386.986 241.61 386.98 241.566C386.974 241.522 386.979 241.472 386.993 241.415C387.005 241.368 387.026 241.326 387.055 241.287C387.084 241.248 387.12 241.216 387.163 241.191C387.207 241.166 387.256 241.151 387.311 241.142C387.366 241.134 387.426 241.138 387.492 241.155C387.565 241.174 387.63 241.204 387.686 241.243C387.741 241.282 387.786 241.328 387.817 241.382L387.727 241.476Z" fill="#FA3C32"/>
<path d="M388.25 241.564L388.16 241.914L388.593 242.025L388.547 242.206L388.114 242.095L388.022 242.454L388.571 242.595L388.523 242.783L387.742 242.583L388.068 241.316L388.848 241.516L388.8 241.703L388.251 241.562L388.25 241.564Z" fill="#FA3C32"/>
<path d="M373.384 249.816L369.288 248.767C369.169 248.736 369.098 248.612 369.129 248.49C369.161 248.368 369.283 248.294 369.402 248.324L373.497 249.374C373.616 249.404 373.688 249.528 373.656 249.65C373.625 249.772 373.503 249.846 373.384 249.816Z" fill="#91A6F2"/>
<path d="M389.883 252.522L387.419 251.891L387.038 253.375L389.501 254.006L389.883 252.522Z" fill="#91A6F2"/>
<path d="M372.489 245.097C373.164 245.27 373.894 244.703 374.118 243.831C374.342 242.958 373.976 242.111 373.3 241.938C372.624 241.765 371.895 242.332 371.67 243.204C371.446 244.077 371.813 244.924 372.489 245.097Z" fill="#A07666"/>
<path d="M371.026 246.027C371 245.941 371.05 245.877 371.106 245.812C371.161 245.747 371.223 245.685 371.294 245.624C371.361 245.563 371.434 245.504 371.5 245.442C371.566 245.379 371.622 245.316 371.668 245.249C371.713 245.182 371.747 245.113 371.773 245.04C371.801 244.969 371.821 244.896 371.835 244.821C371.848 244.745 371.853 244.669 371.848 244.588C371.841 244.508 371.828 244.427 371.79 244.338C371.542 243.769 371.795 243.096 372.356 242.834C372.916 242.574 373.573 242.824 373.822 243.394C374.035 243.885 373.877 244.452 373.469 244.766C373.393 244.826 373.343 244.89 373.298 244.958C373.255 245.026 373.223 245.095 373.197 245.168C373.172 245.241 373.155 245.314 373.145 245.39C373.135 245.467 373.13 245.543 373.137 245.623C373.143 245.704 373.164 245.787 373.192 245.873C373.219 245.959 373.255 246.046 373.284 246.132C373.316 246.22 373.342 246.304 373.359 246.387C373.377 246.471 373.389 246.551 373.325 246.614C372.762 247.165 371.875 247.149 371.345 246.581C371.194 246.421 371.087 246.227 371.026 246.027Z" fill="#A07666"/>
<path d="M377.456 249.687C377.493 249.591 377.447 249.483 377.354 249.446C377.26 249.409 377.154 249.457 377.116 249.553C377.079 249.649 377.125 249.757 377.218 249.794C377.312 249.831 377.418 249.783 377.456 249.687Z" fill="#FB5B16"/>
<path d="M377.217 250.61C377.267 250.52 377.237 250.406 377.149 250.356C377.061 250.306 376.95 250.339 376.9 250.429C376.85 250.519 376.881 250.633 376.968 250.682C377.056 250.732 377.167 250.7 377.217 250.61Z" fill="#FB5B16"/>
<path d="M371.624 243.729C371.772 243.733 371.899 243.571 371.907 243.367C371.916 243.163 371.802 242.994 371.654 242.99C371.506 242.985 371.379 243.147 371.371 243.351C371.363 243.555 371.476 243.724 371.624 243.729Z" fill="#A07666"/>
<path d="M374.252 244.089C374.343 243.906 374.31 243.703 374.178 243.636C374.046 243.569 373.865 243.663 373.774 243.846C373.683 244.029 373.716 244.231 373.848 244.299C373.98 244.366 374.161 244.272 374.252 244.089Z" fill="#A07666"/>
<path d="M371.602 243.101C371.602 243.101 371.672 242.602 371.922 242.228C372.171 241.853 372.703 241.701 372.9 241.835C373.145 241.577 373.727 241.835 373.994 241.989C374.262 242.143 374.566 242.712 374.43 243.278C374.358 243.581 374.1 243.906 374.1 243.906L371.602 243.101Z" fill="#A07666"/>
<path d="M385.441 254.394L383.029 253.776C382.996 253.767 382.976 253.732 382.985 253.698C382.993 253.664 383.028 253.643 383.061 253.652L385.473 254.27C385.506 254.278 385.526 254.313 385.518 254.347C385.509 254.381 385.475 254.402 385.441 254.394Z" fill="#C4968F"/>
<path d="M390.07 255.58L386.845 254.755C386.812 254.746 386.792 254.711 386.801 254.677C386.809 254.643 386.844 254.622 386.877 254.631L390.094 255.455C390.172 255.465 391.189 255.572 391.427 254.648L393.823 245.317C393.832 245.283 393.866 245.262 393.899 245.271C393.932 245.279 393.952 245.314 393.944 245.348L391.547 254.679C391.277 255.73 390.085 255.582 390.074 255.581L390.07 255.58Z" fill="#C4968F"/>
<path d="M394.459 243.089C394.426 243.08 394.406 243.045 394.415 243.011L394.584 242.351C394.595 242.308 394.834 241.266 393.809 241.004L386.509 239.135C386.476 239.126 386.456 239.091 386.465 239.057C386.473 239.023 386.508 239.002 386.541 239.011L393.841 240.88C394.985 241.173 394.708 242.37 394.705 242.38L394.536 243.041C394.525 243.076 394.492 243.097 394.459 243.089Z" fill="#C4968F"/>
<path d="M385.071 238.766L381.743 237.914C381.71 237.905 381.69 237.87 381.698 237.836C381.707 237.802 381.742 237.781 381.775 237.79L385.103 238.643C385.136 238.651 385.156 238.686 385.148 238.72C385.137 238.754 385.105 238.775 385.071 238.766Z" fill="#C4968F"/>
<path d="M380.037 237.477L379.283 237.283C379.249 237.275 379.229 237.24 379.238 237.206C379.247 237.172 379.281 237.151 379.314 237.16L380.069 237.353C380.102 237.361 380.122 237.396 380.114 237.43C380.105 237.464 380.07 237.485 380.037 237.477Z" fill="#C4968F"/>
<path d="M368.649 241.868C368.616 241.86 368.596 241.825 368.605 241.791L370.018 236.29C370.143 235.803 370.367 235.463 370.686 235.28C371.101 235.042 371.522 235.161 371.556 235.171L377.231 236.624C377.264 236.632 377.284 236.667 377.275 236.701C377.266 236.735 377.232 236.756 377.199 236.748L371.52 235.294C371.516 235.293 371.12 235.175 370.744 235.392C370.459 235.556 370.254 235.869 370.138 236.321L368.725 241.822C368.716 241.858 368.682 241.877 368.649 241.868Z" fill="#C4968F"/>
<path d="M368.092 244.038C368.059 244.029 368.039 243.995 368.048 243.961L368.31 242.939C368.319 242.905 368.353 242.884 368.386 242.893C368.419 242.901 368.439 242.936 368.43 242.97L368.168 243.991C368.16 244.025 368.125 244.046 368.092 244.038Z" fill="#C4968F"/>
<path d="M371.674 250.975C369.685 250.466 368.085 250.03 367.768 249.866C366.809 249.373 366.875 248.748 366.878 248.72L366.88 248.713L367.682 245.589C367.691 245.555 367.725 245.534 367.759 245.543C367.792 245.551 367.812 245.586 367.803 245.62L367.002 248.739C366.999 248.791 366.978 249.318 367.826 249.754C368.74 250.224 381.02 253.132 381.144 253.163C381.177 253.171 381.197 253.204 381.189 253.238C381.18 253.272 381.147 253.294 381.114 253.285C380.78 253.206 375.505 251.956 371.674 250.975Z" fill="#C4968F"/>
<path d="M399.797 261.12C401.094 259.306 401.678 251.204 399.408 247.315C398.24 245.37 393.829 242.324 389.936 244.268C388.12 245.176 387.017 247.38 387.861 249.518C387.147 249.972 386.693 250.75 386.693 251.593C386.693 252.435 387.212 253.213 387.925 253.861C387.406 254.444 387.147 255.287 387.342 256C387.536 256.778 388.12 257.426 388.899 257.88C388.12 258.722 388.315 260.213 389.093 261.056C389.872 261.963 391.039 262.352 392.207 262.546C394.867 263.194 398.24 263.389 399.797 261.12Z" fill="#FDA68A"/>
<path d="M388.379 249.13C390.39 247.768 393.115 247.509 395.321 248.417" stroke="#D85B5B" stroke-miterlimit="10" stroke-linecap="round" stroke-linejoin="round"/>
<path d="M389.028 253.861C391.039 253.602 393.05 253.602 395.061 253.926" stroke="#D85B5B" stroke-miterlimit="10" stroke-linecap="round" stroke-linejoin="round"/>
<path d="M389.417 257.75C391.234 257.491 393.115 257.62 394.867 258.139" stroke="#D85B5B" stroke-miterlimit="10" stroke-linecap="round" stroke-linejoin="round"/>
<path d="M400.11 256.275C400.11 256.275 406.689 282.513 404.054 286.084C401.483 289.668 396.928 291.598 393.57 290.529C390.148 289.447 390.468 284.223 391.094 275.821C391.414 271.588 392.347 261 392.347 261L400.11 256.275Z" fill="#FDA68A"/>
<path d="M375.081 288.407C370.929 287.5 366.907 286.009 363.404 284.972C363.469 287.435 363.469 289.833 363.534 292.491C363.599 294.565 363.599 296.768 363.664 299.167C364.831 300.074 364.961 302.018 364.118 303.704C365.156 306.815 365.805 310.055 366.323 313.167C351.922 317.639 334.666 324.25 318.773 316.278C318.708 311.935 318.838 306.944 319.097 301.694C319.681 289.25 320.914 275.315 321.822 265.074C317.54 265.204 313.324 265.593 309.107 265.528C307.939 258.981 307.68 252.111 308.588 245.435C316.502 243.75 322.276 242.843 326.817 243.167C330.515 243.426 334.861 245.565 339.207 248.417C341.997 250.231 344.786 252.305 347.446 254.38C352.052 253.926 355.814 254.055 359.447 254.963C366.648 256.648 373.265 260.991 384.617 268.639C382.606 275.315 379.492 282.444 375.081 288.407Z" fill="#E8505B"/>
<path d="M359.382 254.898C358.15 259.824 351.338 265.398 344.721 264.231C336.483 262.806 336.158 252.565 339.142 248.417C341.932 250.231 344.721 252.306 347.381 254.38C351.987 253.861 355.75 254.056 359.382 254.898Z" fill="#A3383F"/>
<path opacity="0.302" d="M366.259 313.231C351.857 317.704 334.601 324.315 318.708 316.343C318.643 312 318.773 307.009 319.032 301.759C320.2 302.602 321.497 303.315 322.86 303.898C326.752 305.454 330.969 305.778 335.12 305.648C341.348 305.454 347.576 304.157 353.155 301.306C357.177 299.231 360.809 296.25 363.469 292.62C363.534 294.694 363.534 296.898 363.599 299.296C364.766 300.204 364.896 302.148 364.053 303.833C365.156 306.815 365.74 310.056 366.259 313.231Z" fill="#E8505B"/>
<path d="M363.145 284.194C362.432 281.278 361.523 277.454 361.588 274.407C361.653 271.361 362.691 267.213 364.832 265.074C362.302 271.88 362.691 278.296 363.145 284.194Z" fill="#AE3E47"/>
<path d="M362.561 284.194C359.318 280.5 357.696 277.454 357.242 270.843C355.166 275.25 358.409 282.12 362.561 284.194Z" fill="#AE3E47"/>
<path d="M322.211 264.102C322.536 259.37 323.833 254.639 326.104 250.491C321.952 253.731 320.395 259.889 322.211 264.102Z" fill="#AE3E47"/>
<path d="M320.524 263C318.968 258.917 318.319 254.444 318.708 250.102C316.892 254.12 317.476 259.111 320.524 263Z" fill="#AE3E47"/>
<path d="M354.907 248.546C354.647 251.074 354.971 253.537 355.75 255.87C353.544 258.268 351.533 259.565 349.393 260.537C348.16 261.12 346.798 261.639 345.435 261.509C343.749 261.315 342.322 260.213 341.348 258.787C340.375 257.361 339.856 255.741 339.402 254.12C339.921 253.537 340.375 252.889 340.765 252.241C341.803 250.426 342.257 248.481 342.127 246.602C347.057 245.694 351.793 244.333 356.399 242.648C355.555 244.593 355.101 246.537 354.907 248.546Z" fill="#FDA68A"/>
<path d="M356.399 242.713C355.62 244.593 355.101 246.537 354.907 248.546C350.82 251.333 345.76 252.694 340.765 252.305C341.803 250.491 342.257 248.546 342.127 246.667C347.057 245.694 351.793 244.398 356.399 242.713Z" fill="#E57873"/>
<path d="M330.969 230.204C329.866 232.019 331.099 234.676 333.693 236.231C336.288 237.787 339.272 237.528 340.375 235.778C341.478 233.963 340.245 231.306 337.651 229.75C335.056 228.194 332.072 228.389 330.969 230.204Z" fill="#E57873"/>
<path d="M339.207 247.444C348.03 251.917 359.772 246.861 364.767 237.722C365.934 235.648 366.583 233.509 366.778 231.435C367.556 224.759 363.988 218.537 358.215 216.074C357.89 215.944 357.566 215.815 357.242 215.685C353.349 214.389 350.106 213.676 347.057 214.907C344.592 215.88 342.256 218.083 339.726 222.231C338.624 223.981 337.521 226.12 336.418 228.583C332.915 236.296 332.655 244.074 339.207 247.444Z" fill="#FDA68A"/>
<path d="M339.727 222.231C341.997 224.37 345.111 224.435 346.668 225.083C348.354 225.796 349.846 227.417 350.69 227.676C351.598 227.935 354.777 228.065 355.944 228.843C357.177 229.62 359.707 230.333 359.707 230.333C359.707 230.333 360.939 240.185 361.199 240.444L365.999 234.741L366.843 231.5C367.621 224.824 364.053 218.602 358.28 216.139L347.057 214.972C344.592 215.944 342.257 218.148 339.727 222.231Z" fill="#E57873"/>
<path d="M338.688 211.343C339.986 209.852 338.818 208.037 339.921 206.352C340.635 205.185 341.673 204.861 342.905 204.537C344.527 204.148 345.24 203.954 346.343 202.722C346.862 202.139 347.057 201.75 347.835 201.491C349.198 201.037 350.56 201.815 351.468 202.722C352.636 203.759 352.701 204.796 354.387 205.25C355.49 205.574 356.658 205.509 357.696 205.963C359.188 206.676 360.161 208.037 360.81 209.463C361.523 211.148 361.523 212.315 363.08 213.417C364.248 214.194 365.351 214.194 366.583 214.907C368.01 215.815 368.983 217.111 369.762 218.537C370.086 219.12 370.346 219.768 370.605 220.417C371.513 222.685 372.746 223.917 372.551 226.444C372.097 232.213 368.464 237.333 364.832 241.741C364.832 241.806 364.832 241.935 364.767 242C364.507 242.454 364.183 242.778 363.794 243.037L363.729 243.102C363.729 243.167 363.664 243.167 363.664 243.167C363.21 243.426 362.691 243.491 362.107 243.361C360.291 243.037 360.615 241.741 360.615 240.25C360.55 237.139 361.134 233.963 361.069 230.917C361.004 229.167 361.199 229.944 359.836 229.426C358.799 229.037 358.02 228.583 357.112 228.13C354.777 226.963 352.182 227.481 350.041 226.056C348.419 224.954 347.511 223.917 345.5 223.528C344.267 223.268 343.229 223.139 342.127 222.491C340.44 221.454 339.921 219.639 338.494 218.343C337.456 217.435 336.548 216.722 336.418 215.231C336.418 215.037 336.418 214.843 336.418 214.713C336.418 212.963 337.651 212.574 338.688 211.343Z" fill="#6B393A"/>
<path d="M336.288 214.648C336.353 214.583 336.418 214.583 336.483 214.518C337.391 213.741 338.559 213.352 339.597 212.898C340.634 212.38 341.737 211.731 342.191 210.63C342.581 209.787 342.645 208.685 343.554 208.296C344.332 207.972 345.24 208.491 346.019 208.231C347.381 207.778 347.316 205.444 348.678 205.055C349.457 204.796 350.3 205.444 350.819 206.093C351.338 206.741 351.857 207.518 352.636 207.843C353.609 208.231 354.776 207.778 355.814 208.037C357.047 208.296 357.89 209.398 358.409 210.565C358.928 211.731 359.252 212.898 359.966 213.935C361.328 215.75 363.729 216.268 365.869 216.917C367.232 217.305 368.659 217.889 369.697 218.796C368.918 217.37 368.01 216.074 366.518 215.167C365.35 214.454 364.248 214.454 363.015 213.676C361.393 212.574 361.458 211.407 360.745 209.722C360.096 208.231 359.188 206.87 357.631 206.222C356.593 205.704 355.425 205.833 354.322 205.509C352.701 205.055 352.571 204.083 351.403 202.981C350.43 202.074 349.133 201.361 347.77 201.75C346.992 202.009 346.797 202.398 346.278 202.981C345.175 204.213 344.462 204.407 342.84 204.796C341.608 205.12 340.57 205.444 339.856 206.611C338.753 208.296 339.921 210.111 338.623 211.602C337.65 212.574 336.418 212.963 336.288 214.648Z" fill="#7F4C56"/>
<path d="M358.02 240.444C357.696 242.519 359.837 244.593 362.821 245.046C365.805 245.565 368.465 244.269 368.789 242.194C369.113 240.12 366.973 238.046 363.988 237.593C361.069 237.074 358.345 238.37 358.02 240.444Z" fill="#FDA68A"/>
<path d="M347.251 234.157C346.992 234.806 347.121 235.454 347.511 235.583C347.9 235.713 348.419 235.324 348.678 234.676C348.938 234.028 348.808 233.38 348.419 233.25C348.03 233.12 347.511 233.509 347.251 234.157Z" fill="#474E54"/>
<path d="M337.651 230.981C337.91 230.333 338.429 229.944 338.818 230.139C339.208 230.268 339.337 230.917 339.078 231.565C338.818 232.213 338.299 232.602 337.91 232.407C337.521 232.278 337.391 231.63 337.651 230.981Z" fill="#474E54"/>
<path d="M343.035 226.898C343.359 228.907 342.516 231.111 340.894 232.407C340.245 232.926 339.467 233.38 339.272 234.157C339.078 234.935 339.532 235.778 339.986 236.426" stroke="#D85B5B" stroke-miterlimit="10" stroke-linecap="round" stroke-linejoin="round"/>
<path d="M354.453 231.954C354.128 230.528 353.48 229.167 352.312 228.454C351.209 227.806 349.522 228 348.549 229.232C350.885 229.426 353.025 230.593 354.453 231.954Z" fill="#6B393A"/>
<path d="M342.256 226.898C341.997 226.185 341.673 225.537 341.154 225.018C340.635 224.5 339.921 224.111 339.207 224.111C338.494 224.111 337.715 224.5 337.391 225.213C339.337 225.278 341.154 226.056 342.256 226.898Z" fill="#6B393A"/>
<path d="M339.662 238.37C342.386 239.343 345.37 239.407 348.225 238.694C349.198 239.861 348.938 241.806 347.835 242.843C346.797 243.944 345.111 244.333 343.554 244.139C342.192 243.944 340.829 243.361 339.986 242.324C339.272 241.222 339.013 239.602 339.662 238.37Z" fill="white"/>
</g>
<defs>
<clipPath id="clip0_8_16419">
<rect width="531" height="445" fill="white"/>
</clipPath>
</defs>
</svg>
